<svg width="475" height="1120" viewBox="0 0 475 1120" fill="none" xmlns="http://www.w3.org/2000/svg">
<g clip-path="url(#clip0_29_891)">
<rect width="475" height="1120" fill="#CDF6CB"/>
<path d="M476.18 438.72V441.6C475.25 442.2 474.33 442.8 473.4 443.4C474.33 444.4 475.25 445.4 476.18 446.4V462.24C475.07 461.5 474.22 460.93 473.73 462.98C473.24 465.04 472.41 467.07 471.39 468.92C471.11 469.42 469.03 469.66 468.74 469.29C467.85 468.13 466.91 466.6 466.95 465.24C467.02 462.9 467.09 459.79 468.52 458.48C470.05 457.06 470.05 456.11 469.83 454.55C469.44 451.8 468.94 449.04 468.84 446.27C468.8 445.02 468.62 442.88 471.17 443.42C471.63 443.52 472.07 443.72 472.53 443.88C472.42 443.15 472.5 442.32 472.17 441.7C470.82 439.16 469.28 436.73 467.96 434.18C467.21 432.74 467.69 431.77 469.46 431.51C471.41 431.22 471.67 430.19 470.44 428.71C469.4 427.45 468.59 425.85 467.29 424.99C464.12 422.89 463.23 419.54 461.82 416.41C461.14 414.9 460.17 413.51 459.23 412.14C458.95 411.72 458.33 411.53 457.87 411.24C457.7 411.73 457.41 412.21 457.37 412.72C457.11 415.56 457.17 418.46 456.63 421.25C455.83 425.32 454.57 429.29 453.62 433.33C453.47 433.98 453.64 435 454.07 435.44C454.98 436.37 456.1 437.15 457.26 437.74C457.95 438.09 458.89 438.01 459.72 438.06C460.11 438.09 460.77 437.81 460.87 437.96C463.83 442.47 461.78 452.53 457.36 455.69C455.97 456.68 455.44 456.41 455.26 454.72C455.04 452.67 454.78 450.59 454.2 448.62C454 447.94 452.85 447.37 452.02 447.11C451.66 447 450.73 447.71 450.55 448.22C448.76 453.28 447.33 458.39 448.05 463.89C448.95 470.79 446.88 477.09 442.82 482.48C438.16 488.66 435.03 495.15 435.24 503.06C435.31 505.6 435.06 508.18 434.63 510.68C434.09 513.84 434.92 516.52 436.22 519.4C438.17 523.71 439.45 528.32 441.05 532.79C441.23 533.29 441.58 533.76 441.95 534.15C442.61 534.85 443.5 535.38 444.03 536.16C447.59 541.4 451.38 546.52 454.48 552.02C456.58 555.75 458.82 559.99 458.98 564.08C459.29 571.82 458.38 579.65 457.54 587.4C456.98 592.59 456.1 597.84 454.56 602.8C452.97 607.9 450.62 612.71 451.45 618.3C451.56 619.03 450.83 620.19 450.15 620.67C448.57 621.79 446.87 622.92 445.05 623.49C441.05 624.74 436.96 626.41 432.86 626.53C425.76 626.74 423.89 623.04 426.96 616.31C427.19 615.8 427.49 615.33 427.72 614.82C430.24 609.31 433.62 604.01 435.07 598.23C437.35 589.15 438.49 579.76 439.78 570.46C440.13 567.95 439.71 565.13 438.89 562.71C437.7 559.18 435.75 555.92 434.28 552.48C432.3 547.82 430.67 543 428.51 538.42C425.58 532.19 422.27 526.15 419.17 520C418.62 518.9 418.24 517.7 417.93 516.5C416.96 512.77 416.65 508.73 415.01 505.34C412.57 500.31 409.15 495.76 406.26 490.93C404.07 487.26 402.06 483.49 400 479.75C399.13 478.17 398.32 476.55 397.53 474.93C397.23 474.31 397.06 473.62 396.83 472.96C396.57 473.42 396.37 473.93 396.04 474.33C395.89 474.51 395.38 474.65 395.22 474.54C394.02 473.72 392.89 472.8 391.69 471.98C390.84 471.39 389.97 470.62 389.01 470.44C386.74 470.02 385.72 471.18 385.11 473.45C384.58 475.41 385.08 476.56 386.99 477.2C388.29 477.64 390.16 479.06 390.2 480.12C390.39 484.19 390.16 488.32 389.6 492.37C389.45 493.42 387.55 494.23 386.45 495.15C386.21 494.18 385.86 493.23 385.76 492.25C385.65 491.15 385.89 490 385.73 488.91C385.57 487.9 385.31 486.74 384.67 486.02C383.77 485 382.39 484.4 381.37 483.46C380.14 482.32 379.1 480.96 377.89 479.79C377.68 479.59 377.06 479.8 376.63 479.83C376.67 480.26 376.6 480.74 376.78 481.1C377.62 482.79 378.44 484.51 379.45 486.11C380.95 488.49 377.68 487.23 377.74 488.46C376.96 488.37 375.77 488.57 375.48 488.15C373.3 484.97 370.12 484.22 367.01 486.43C366.78 486.59 366.85 487.73 367.14 487.96C369.17 489.6 371.38 491.03 373.38 492.7C374.77 493.87 375.92 496.24 377.2 492.65C377.28 492.43 378.04 492.51 378.42 492.32C378.75 492.16 379.04 491.85 379.28 491.56C379.63 491.12 379.93 490.63 380.24 490.15C380.32 490.64 380.32 491.17 380.51 491.61C380.8 492.27 381.15 492.95 381.64 493.46C382.76 494.64 382.11 498.6 380.84 499.37C379.97 499.9 379.17 500.94 378.85 501.91C378.2 503.91 377.97 506.05 377.38 508.08C377.23 508.62 376.39 509.33 375.91 509.29C375.41 509.26 374.75 508.5 374.54 507.92C373.57 505.18 372.75 502.39 371.84 499.63C371.69 499.17 371.37 498.76 371.12 498.33C370.99 498.84 370.83 499.34 370.74 499.86C370.69 500.17 370.85 500.53 370.76 500.81C370.4 501.88 369.97 502.93 369.56 503.99C368.68 503.59 367.82 503.1 366.9 502.81C365.86 502.49 364.47 501.85 363.77 502.26C362.86 502.8 362.24 504.16 361.91 505.29C361.01 508.37 360.37 511.53 359.49 514.61C359.41 514.9 358.11 515.23 357.81 514.99C356.75 514.16 356.16 507.47 356.63 506.19C357.04 505.08 357.59 503.35 357.07 502.74C356.42 501.98 354.75 501.86 353.53 501.89C352.49 501.91 351.45 502.49 350.43 502.88C349.97 503.05 349.57 503.36 349.14 503.61C349.52 503.76 350.02 503.81 350.27 504.09C351.05 504.97 352.34 505.91 352.36 506.86C352.42 509.64 352 512.43 351.67 515.2C351.62 515.66 351.04 516.43 350.77 516.4C350.26 516.35 349.6 515.93 349.34 515.48C347.49 512.15 345.99 508.58 343.85 505.45C341.38 501.84 338.4 498.57 335.56 495.21C334.06 493.44 332.07 491.98 330.95 490.02C330.2 488.7 330.67 486.72 330.41 485.06C330.32 484.48 329.71 483.98 329.34 483.45C328.54 484.14 327.21 484.73 327.05 485.55C326.84 486.65 327.14 488.47 327.91 489.02C330.62 490.94 330.15 493.03 329.08 495.54C328.51 496.88 327.26 498.46 330.18 499.31C332.38 499.95 334.32 501.6 336.24 502.99C337.18 503.67 337.62 505.2 338.59 505.62C343.27 507.64 343.75 511.51 342.9 515.16C342.4 517.28 341.12 517.21 339.74 516.02C336.38 513.15 333.08 510.21 329.74 507.31C329.35 506.97 328.88 506.72 328.44 506.43C328.46 506.94 328.34 507.5 328.51 507.95C330.51 513.53 330.98 519.29 330.68 525.16C330.64 525.93 331 526.72 331.03 527.51C331.18 531.03 331.71 534.6 331.28 538.05C330.76 542.3 329.43 546.44 328.46 550.63C327.8 553.48 327.32 556.39 326.49 559.19C325.45 562.69 323.99 566.07 322.98 569.58C321.43 574.99 320.01 580.44 318.72 585.92C317.8 589.83 316.51 593.68 317.75 597.91C318.1 599.12 316.8 601.21 315.68 602.28C315.05 602.88 312.95 602.65 312.02 602.04C311.03 601.39 309.87 599.64 310.11 598.7C312.67 588.58 315.47 578.52 318.27 568.46C319.28 564.84 320.49 561.3 318.62 557.57C318.1 556.54 317.94 555.29 317.79 554.11C317.11 548.67 316.27 543.07 312.34 539.07C307.49 534.13 305.29 527.98 302.7 521.91C302.32 521.03 301.61 520.29 301.05 519.48C300.72 520.4 300.45 521.35 300.03 522.23C299.29 523.79 298.46 525.3 297.66 526.83C296.43 525.39 295.16 523.98 293.98 522.5C293.71 522.16 293.59 521.59 293.6 521.13C293.7 516.93 293.86 512.73 293.97 508.53C293.99 507.64 294.13 506.61 293.76 505.87C291.19 500.72 291.15 500.74 286.89 504.59C286.71 504.75 286.46 505.05 286.34 505.01C285.48 504.74 283.99 504.52 283.9 504.06C283.28 500.88 281.57 497.8 282.86 494.38C283.04 493.9 282.47 493.14 282.25 492.5C283.45 491.6 284.93 490.88 285.74 489.71C286.11 489.18 285.16 487.73 284.73 486.73C284.71 486.68 283.58 486.88 283.52 487.12C283.04 488.91 282.69 490.74 282.3 492.56C281.97 492.35 281.45 491.89 281.34 491.97C278.97 493.73 278.41 491.72 277.61 490.22C277.08 489.24 276.65 488.2 276.01 487.31C275.76 486.96 275.05 486.83 274.54 486.81C273.35 486.78 272.16 486.92 270.97 486.93C270.63 486.93 270.28 486.77 269.94 486.68C270.01 487.03 269.99 487.42 270.16 487.71C271.44 490.05 272.75 492.38 274.09 494.7C274.22 494.92 274.66 494.93 274.85 495.14C275.18 495.51 275.53 495.92 275.67 496.37C276.16 497.88 276.51 499.43 277.07 500.9C277.14 501.09 278.23 500.79 278.81 500.89C279.63 501.03 280.41 501.34 281.21 501.57C280.8 502.09 280.26 502.56 280.02 503.15C279.64 504.08 279.45 505.08 279.18 506.06C278.78 507.5 278.47 508.97 277.91 510.34C277.79 510.63 276.26 510.77 276.16 510.57C274.44 507.24 270.17 505.12 271.3 500.39C271.41 499.94 270.73 499.17 270.24 498.74C268.94 497.57 267.41 496.64 266.23 495.37C265.22 494.28 264.5 494.17 263.93 495.51C262.24 499.45 260.32 503.34 259.08 507.42C256.77 515.03 255.19 522.88 252.69 530.43C250.69 536.48 250.4 542.29 251.71 548.51C253.82 558.49 255.96 568.52 255.03 578.86C254.97 579.51 255.55 580.2 255.58 580.88C255.66 582.61 256.3 585.19 255.45 585.89C254.02 587.06 251.43 587.78 249.64 587.36C246.03 586.52 244.38 583.23 244.17 579.34C244.06 577.26 243.67 574.98 242.66 573.21C240.11 568.73 239.01 563.93 238.03 558.95C237.28 555.11 235.72 551.41 234.24 547.76C233.42 545.74 232.01 543.95 230.87 542.06C229.43 539.68 228.29 537.04 226.49 534.97C222.62 530.51 221.28 525.1 220.6 519.61C219.91 514.03 220.96 508.19 217.54 503.14C216.92 502.23 216.1 501.45 215.37 500.61C215.04 501.76 214.7 502.91 214.41 504.08C214.34 504.37 214.39 504.73 214.47 505.03C215.77 509.58 212.94 512.58 210.41 515.64C209.93 516.23 208.98 516.43 208.24 516.8C207.96 516.09 207.44 515.37 207.44 514.66C207.42 508.57 207.52 502.48 207.53 496.4C207.53 495.87 207.23 495.33 207.06 494.8C206.65 495.19 206.14 495.51 205.83 495.97C204.61 497.82 203.52 499.77 202.23 501.57C201.82 502.14 200.93 502.37 200.26 502.75C199.94 502.09 199.7 501.35 199.26 500.77C198.82 500.2 197.97 499.25 197.66 499.37C194.64 500.56 194.4 500.48 193.18 497.35C193.01 496.92 192.62 496.49 192.22 496.3C192.05 496.22 191.58 496.76 191.25 497.02C191.56 496.52 192.02 496.05 192.16 495.5C192.32 494.85 192.23 494.14 192.21 493.45C192.18 492.32 189.97 491.51 191.73 490.12C191.32 489.77 190.95 489.19 190.5 489.12C189.69 489 188.84 489.2 188 489.22C187.4 489.24 186.8 489.19 186.2 489.17C186.33 489.9 186.51 490.63 186.55 491.37C186.58 491.76 186.3 492.51 186.28 492.5C184.19 492.1 184.54 493.98 184.9 494.53C185.45 495.37 186.65 495.8 187.63 496.29C187.82 496.38 188.27 495.95 188.59 495.77C188.32 496.15 188.13 496.75 187.77 496.87C185.31 497.69 186.7 499.46 186.74 500.87C186.74 501.16 187.18 501.44 187.42 501.73C187.65 501.47 187.87 501.19 188.12 500.95C188.51 500.57 188.92 500.22 189.32 499.86C189.28 500.49 189.38 501.17 189.17 501.74C188.65 503.17 187.99 504.55 187.36 505.93C187.26 506.16 186.86 506.5 186.82 506.47C184.68 505.01 184.73 507.04 184.16 508.11C183.96 508.49 183.69 509.15 183.46 509.15C182.94 509.15 181.98 508.77 181.99 508.6C182.15 505.76 179.81 506.96 178.71 506.77C177.12 506.5 177.34 506.36 177.71 504.93C178.36 502.42 178.34 499.73 178.46 497.11C178.48 496.67 177.78 496.2 177.41 495.75C177.18 496.25 176.99 496.76 176.73 497.24C176.51 497.65 177.32 499.82 175.55 497.95C175.4 497.79 173.91 498.88 173.07 499.45C173.01 499.49 173.16 500.1 173.35 500.23C174.47 500.97 175.04 501.51 173.08 501.65C173.05 501.65 172.97 502.35 173.09 502.65C173.27 503.08 173.87 503.44 173.85 503.81C173.76 505.46 173.6 507.12 173.26 508.73C173.17 509.14 172.34 509.53 171.79 509.67C170.98 509.89 169.49 509.64 169.36 510C168.28 512.9 167.55 515.94 166.47 518.85C166.12 519.79 165.06 521.11 164.34 521.1C163.23 521.1 161.86 520.32 161.11 519.43C160.28 518.45 159.98 516.99 159.54 515.71C158.32 512.2 157.16 508.68 155.94 505.17C155.8 504.76 155.41 504.42 155.11 504.08C155.09 504.06 154.73 504.25 154.63 504.41C153.5 506.14 152.33 507.85 151.29 509.64C149.9 512.03 148.61 511.54 147.44 509.55C145.26 505.84 143.23 502.04 141 498.36C140.66 497.8 139.59 497.68 138.86 497.36C138.47 498.27 137.59 499.32 137.8 500.05C138.1 501.09 139.22 501.89 139.96 502.82C141.44 504.67 143.44 506.33 144.27 508.44C147.04 515.48 147.32 522.75 144.82 529.97C144.61 530.56 143.01 531.34 142.76 531.14C140.88 529.67 139.16 527.99 137.42 526.34C136.59 525.55 135.83 524.67 135.03 523.84C134.58 525 133.85 526.14 133.73 527.34C132.88 535.43 132.15 543.54 131.38 551.64C131.24 553.1 131.05 554.56 130.94 556.03C130.69 559.35 130.94 562.77 130.17 565.96C128.37 573.45 126.08 580.83 124.02 588.27C123.9 588.72 124.12 589.27 124.18 589.77C124.43 589.31 124.76 588.87 124.91 588.37C127.16 580.69 129.55 573.11 135.77 567.46C136.35 566.93 136.41 565.75 136.56 564.85C137.21 560.98 137.19 556.86 138.57 553.28C140.3 548.8 143.4 544.88 145.47 540.51C148.87 533.36 151.9 526.03 155.14 518.81C155.43 518.16 156.14 517.7 156.65 517.16C157.1 518.15 158.14 519.29 157.92 520.1C155.35 529.78 151.24 538.76 145.42 546.97C141.85 552.01 139.66 557.7 139.53 563.91C139.47 566.66 138.71 568.73 137.02 570.82C135.05 573.26 132.92 575.81 131.86 578.68C129.06 586.28 126.88 594.11 124.31 601.79C122.6 606.91 120.15 611.84 118.95 617.07C117.69 622.57 117.37 628.3 116.91 633.96C116.5 639.06 115.99 644.06 114 648.88C112.44 652.67 111.96 656.61 113.11 660.79C115.15 668.16 118.98 675.02 119.46 682.83C119.53 683.89 119.75 685.32 119.19 685.99C116.89 688.75 114.14 690.78 110.16 689.69C108.7 689.29 107.2 689.07 105.72 688.73C103.49 688.21 101.99 686.83 102.37 684.51C103.39 678.31 101.23 672.51 100.46 666.54C99.81 661.55 98.56 656.33 100.98 651.58C102.69 648.22 102.54 644.98 101.97 641.62C101.55 639.11 100.82 636.64 99.98 634.23C97.54 627.17 95.41 620.32 97.73 612.55C99.19 607.64 99.39 602.02 97.07 597.11C93.82 590.24 90.9 583.28 85.55 577.39C80.06 571.34 75.94 564.06 71.22 557.31C69.82 555.32 68.39 553.35 67.03 551.33C63.95 546.74 60.91 542.11 57.85 537.51C56.68 535.75 55.7 533.79 54.24 532.29C51.41 529.38 48.3 526.74 45.33 523.97C42.72 521.53 40.16 519.03 37.53 516.6C37.11 516.21 35.99 515.83 35.95 515.89C35 517.53 34.06 519.2 33.41 520.97C33.35 521.14 35.13 521.98 36.04 522.54C36.31 522.7 36.52 522.95 36.76 523.16C40.23 526.23 41.15 530.03 39.87 534.4C39.64 535.18 39.1 535.86 38.71 536.59C38.08 535.96 37.33 535.42 36.85 534.7C35 531.89 33.38 528.92 31.39 526.22C30.56 525.09 29.11 524.06 28.15 526.62C27.83 527.47 27.26 529.83 25.47 528.35C23.7 526.89 22.01 525.14 22.58 522.29C22.76 521.38 21.76 520.3 21.65 519.26C21.56 518.37 21.85 516.68 22.2 516.62C25.39 516.04 25.88 513.31 27.08 511.07C27.54 510.21 28.9 509.68 29.06 508.84C29.48 506.7 29.6 504.48 29.55 502.29C29.53 501.41 28.77 500.55 28.34 499.68C27.62 500.22 26.63 500.6 26.24 501.31C25.03 503.54 23.03 503.17 21.24 502.81C20.96 502.75 21.23 500.43 21.07 499.17C20.94 498.06 20.57 496.98 20.31 495.89C19.74 496.4 19.18 496.94 18.58 497.42C17.99 497.89 17.38 498.6 16.72 498.68C14.8 498.9 15.04 499.68 16.2 500.49C19.08 502.5 17.58 504.09 15.87 505.76C15.49 506.13 14.91 506.92 15.02 507.09C16.5 509.19 15.55 510.04 13.49 510.61C13.21 510.69 13.18 511.71 13.04 512.3C14.34 512.55 15.66 513.08 16.94 512.99C19.51 512.81 20.07 513.87 19.56 516.57C18.77 520.74 14.59 523.7 15.52 528.4C15.72 529.44 16.02 530.45 16.27 531.48C17.21 530.82 19.68 531.65 18.63 529.01C18.5 528.69 19.01 528.11 19.22 527.65C19.46 528.07 19.89 528.48 19.91 528.91C20.07 531.91 20.14 534.92 20.28 537.92C20.3 538.36 20.51 538.79 20.63 539.22C21.21 537.99 24.32 540.09 23.58 536.86C23.35 535.86 24.33 534.59 24.75 533.44C25.79 534.14 27.3 534.61 27.77 535.58C28.63 537.34 28.67 539.49 29.43 541.32C30.69 544.38 32.44 547.25 33.6 550.35C34.69 553.29 35.36 556.4 35.98 559.48C36.07 559.9 34.35 561.17 34.25 561.08C29.34 557.14 25.36 552.58 24.94 545.88C24.81 543.79 22.12 541.16 20.31 541.88C16.76 543.28 15.8 541.09 14.69 538.65C14.13 537.42 13.44 536.24 12.66 535.14C12.27 534.59 11.56 534.27 11 533.85C11.18 534.48 11.45 535.09 11.52 535.73C11.58 536.28 11.48 536.88 11.32 537.42C11.27 537.58 10.58 537.75 10.51 537.67C9.21 535.94 9.65 537.83 9.39 538.21C9.13 538.58 8.87 539.3 8.65 539.29C5.74 539.09 5.83 540.66 6.32 542.78C6.49 543.51 5.91 544.4 5.72 545.23C5.34 546.85 4.61 548.51 4.73 550.1C4.89 552.15 5.9 554.13 6.23 556.19C6.35 556.96 5.78 558.29 5.15 558.59C4.61 558.85 3.39 558.2 2.72 557.65C0.76 556.04 -1.07 554.27 -2.95 552.57C-2.95 393.45 -2.95 234.33 -3 75.21C-3 73.4 -2.6 73 -0.79 73C157.45 73.05 315.69 73.05 473.93 73C475.74 73 476.14 73.4 476.14 75.21C476.09 194.49 476.09 313.77 476.09 433.05C475.14 432.86 474.19 432.66 473.24 432.47C473.55 433.4 473.79 434.36 474.2 435.25C474.76 436.47 475.45 437.63 476.09 438.82L476.18 438.72ZM213.5 472.14C212.93 471.99 212.36 471.85 211.78 471.7C211.9 472.21 212.02 472.72 212.15 473.22C212.81 475.69 213.63 478.04 216.45 478.87C215.97 479.59 215.43 480.29 215.04 481.06C214.91 481.32 215.12 481.81 215.29 482.13C215.33 482.21 215.87 482.13 216.1 481.99C217.6 481.11 219.1 480.23 220.54 479.27C220.92 479.02 221.4 478.39 221.31 478.1C221.17 477.66 220.63 477.21 220.17 477.04C218.8 476.55 217.38 476.21 215.99 475.8C215.36 474.95 214.72 474.1 214.09 473.25C215.09 472.8 216.1 472.35 217.1 471.89C216.8 471.46 216.33 470.63 216.24 470.67C215.29 471.07 214.41 471.62 213.51 472.13L213.5 472.14ZM391.96 437.01L391.9 437.07C391.68 438.31 390.9 439.83 391.35 440.74C392.24 442.56 393.78 444.08 395.12 445.66C395.22 445.78 396.25 445.46 396.29 445.24C396.59 443.59 396.8 441.91 396.9 440.24C396.92 439.96 396.31 439.57 395.93 439.34C394.62 438.54 393.29 437.78 391.97 437.01H391.96ZM64.82 500.7C65.36 500.34 62.99 498.58 65.55 499.18C65.21 498.11 64.9 497.03 64.5 495.98C64.4 495.72 63.99 495.59 63.73 495.4C63.68 495.54 63.57 495.71 63.6 495.83C64.01 497.44 64.43 499.05 64.86 500.66C64.49 503.64 64.18 506.63 63.71 509.59C63.57 510.49 62.99 512.04 62.56 512.06C59.97 512.16 60.68 513.71 60.95 515.14C61.04 515.63 61.15 516.13 61.26 516.62C61.69 516.24 62.32 515.96 62.53 515.48C64.27 511.5 66.03 507.53 67.55 503.46C67.96 502.36 67.56 500.96 67.53 499.69C66.63 500.02 65.72 500.35 64.82 500.69V500.7ZM99.91 450.17C99.78 449.16 99.65 448.15 99.52 447.14C98.5 447.33 97.4 447.37 96.49 447.8C96.17 447.95 96.31 449.08 96.25 449.76C98.43 447.84 97.55 451.17 98.62 451.14C98.91 452.31 99.13 453.5 99.51 454.63C99.65 455.04 100.15 455.33 100.48 455.68C100.62 455.25 100.82 454.83 100.89 454.39C100.94 454.06 100.84 453.71 100.81 453.37C101.09 453.6 101.43 453.79 101.65 454.07C102.77 455.51 103.84 456.99 104.98 458.41C105.13 458.6 105.83 458.66 105.88 458.57C106.8 456.96 108.09 455.39 108.38 453.65C108.59 452.42 108.69 450.18 106.2 450.01C105.89 449.99 105.39 449.51 105.34 449.19C104.99 446.64 103.9 446.4 102.12 448.06C101.37 448.75 100.64 449.46 99.91 450.17ZM252.12 491.17C251.05 491.19 249.35 490.8 249.01 491.3C247.08 494.21 246.49 492.15 245.76 490.58C244.72 488.36 243.48 488.02 241.73 489.6C240.72 490.51 239.87 491.71 238.71 492.27C237.97 492.62 236.74 492.13 235.82 491.79C235.33 491.6 235.03 490.91 234.64 490.44C234.28 491.07 233.65 491.69 233.61 492.35C233.26 499.19 232.68 506.03 232.85 512.86C232.95 516.76 234.26 520.64 235.12 524.51C235.23 525.01 235.88 525.39 236.28 525.83C236.47 525.44 236.81 525.05 236.82 524.65C236.94 519.65 238.55 515.32 242.25 511.81C242.79 511.3 243.15 509.6 242.9 509.41C240.43 507.62 240.87 505.01 240.72 502.57C240.6 500.53 240.06 498.32 240.65 496.49C241.13 495.02 243.03 494.01 244.3 492.8C245.08 493.96 246.18 495.02 246.55 496.3C247.03 497.99 246.92 499.85 247.1 501.63C247.13 501.91 247.33 502.17 247.45 502.45C247.65 502.22 247.9 502.01 248.04 501.74C249.09 499.77 249.9 497.63 251.22 495.87C252.4 494.31 252.95 492.93 252.08 491.14C256.34 488.91 255.49 485.39 254.51 481.77C254.21 480.65 254.29 479.43 254.05 478.28C253.92 477.65 253.47 477.09 253.17 476.5C252.71 477.11 252.26 477.73 251.8 478.34C251.33 478.98 252.21 481.03 250.04 480.02C249.94 479.97 248.66 481.54 248.84 481.96C250.05 484.75 248.49 488.52 251.86 490.53C252.02 490.62 252.04 490.96 252.12 491.18V491.17ZM93.6 527.49C96.54 529.21 98.09 531.75 98.65 535.13C98.93 536.81 99.5 538.82 100.67 539.9C104.35 543.33 105.45 547.85 105.87 552.34C106.47 558.65 106.14 565.04 106.28 571.4C106.43 577.91 106.68 584.41 106.86 590.92C106.95 594.2 107.29 597.5 106.95 600.74C106.72 602.92 105.2 604.93 104.79 607.12C103.26 615.15 103.92 623.02 107.13 630.6C107.32 631.05 107.73 631.4 108.03 631.8C108.15 631.29 108.29 630.79 108.38 630.28C108.9 627.41 109.08 624.42 109.99 621.68C112.97 612.77 116.55 604.04 119.28 595.06C121.31 588.38 121.51 581.05 124.1 574.65C127.42 566.46 127.68 558.1 128.28 549.64C128.75 542.96 129.28 536.28 129.78 529.6C130.2 524 132.65 518.23 128.48 512.98C128.32 512.78 128.44 512.36 128.4 512.05C128.05 509.32 127.9 506.54 127.23 503.89C126.98 502.88 125.59 502.1 124.59 501.4C124.42 501.28 123.61 502.14 123.07 502.5C120.63 504.12 120.03 507.71 116.72 508.46C116.51 508.51 116.55 509.72 116.51 510.39C116.49 510.61 116.56 510.84 116.59 511.06C116.43 511.06 116.19 511.13 116.11 511.06C115.38 510.28 114.69 509.47 113.96 508.69C113.53 508.23 113.08 507.53 112.57 507.46C110.76 507.23 110.42 508.35 110.69 509.88C112.23 518.74 110.62 527.01 106.06 534.74C105.4 535.87 104.59 537.55 103.36 535.8C100.23 531.36 95.79 527.61 96.09 521.29C96.39 514.94 95.86 508.52 99.47 502.78C100.05 501.86 100.35 500.72 100.6 499.64C100.67 499.36 99.92 498.57 99.81 498.61C97.65 499.54 96.22 498.76 94.85 497.01C94.42 496.45 93.02 496.39 92.14 496.54C91.71 496.61 91.22 497.67 91.16 498.32C91.04 499.52 91.19 500.76 91.28 501.97C91.58 506.07 91.65 510.14 90.03 514.02C89.96 514.18 89.43 514.34 89.28 514.25C88.67 513.86 88.13 513.36 87.57 512.91C87.31 513.8 86.57 514.94 86.88 515.53C89.01 519.6 91.36 523.55 93.63 527.54C93.16 528.15 92.7 528.76 92.23 529.37C93 529.88 93.77 530.39 94.54 530.9C94.29 530.23 94.01 529.57 93.81 528.89C93.68 528.44 93.66 527.96 93.59 527.5L93.6 527.49ZM59.97 526.59C60.52 528.75 60.72 530.37 61.34 531.8C62.95 535.51 64.64 539.2 66.52 542.78C67.81 545.22 69.35 547.56 71.01 549.76C73.29 552.79 75.89 555.58 78.19 558.59C82.29 563.96 86.32 569.39 90.27 574.87C92.26 577.62 94.25 580.41 95.84 583.4C97.46 586.46 98.55 589.79 99.97 592.97C100.18 593.45 100.92 593.7 101.41 594.06C101.6 593.58 101.95 593.1 101.97 592.61C102.21 586.77 102.68 580.93 102.54 575.1C102.36 567.92 101.41 560.75 101.26 553.57C101.15 548.37 100.73 543.57 96.14 540.16C95.55 539.72 95.06 538.86 94.94 538.12C93.88 531.2 88.62 526.31 86.3 519.92C84.48 514.91 83.45 515.12 79.8 518.98C79.75 519.04 79.69 519.1 79.64 519.16C78.08 520.88 77.01 520.46 76.13 518.45C75.17 516.27 74.15 514.09 72.97 512.02C71.98 510.27 70.78 508.74 71.94 506.51C72.19 506.03 71.17 504.9 70.74 504.08C70.16 504.57 69.33 504.94 69.04 505.57C67.1 509.75 65.25 513.97 63.43 518.19C62.18 521.09 61.02 524.02 59.97 526.59ZM409.87 469.95C408.77 478.05 411.92 482.48 416.49 486.29C418.19 487.71 419.83 489.26 421.23 490.97C423.2 493.38 425.07 493.61 426.84 490.95C429.33 487.21 431.43 483.21 433.77 479.37C435.86 475.95 437.92 472.57 437.92 468.36C437.92 465.77 437.91 463.15 438.22 460.59C438.56 457.86 439.13 455.15 439.86 452.49C440.54 450.03 441.4 447.6 442.45 445.28C443.72 442.49 445.72 439.98 446.61 437.1C447.65 433.73 447.89 430.1 448.32 426.57C448.45 425.52 448.44 423.84 447.83 423.43C446.63 422.63 445.05 422.6 444.02 424.26C443.67 424.82 442.86 425.1 442.27 425.5C442.05 424.77 441.68 424.05 441.65 423.31C441.48 419.06 441.43 414.81 441.26 410.56C441.19 408.79 441.1 408.82 440.01 409.28C439.76 409.39 439.32 409.1 439.1 409.23C438.72 409.43 438.2 409.8 438.16 410.14C437.93 412.66 437.85 415.2 437.63 417.72C437.43 419.98 437.11 422.24 436.8 424.49C436.61 425.86 436.35 427.22 436.13 428.59C437.42 428.35 438.7 428.07 440 427.87C440.62 427.77 441.58 427.54 441.83 427.83C442.25 428.33 442.48 429.25 442.35 429.91C441.57 433.79 438.71 436.22 435.59 438C432.78 439.61 432.1 435.94 430.29 434.93C431.05 434.19 431.8 433.44 432.57 432.71C432.87 432.42 433.22 432.17 433.54 431.9C433.25 431.6 432.97 431.3 432.68 430.99C431.61 429.86 430.49 428.77 429.49 427.58C428.59 426.5 427.91 425.21 426.94 424.21C426.62 423.88 425.68 424.15 425.03 424.15C425.25 424.44 425.65 424.75 425.64 425.03C425.63 425.41 425.34 425.81 425.09 426.15C424.33 427.21 421.94 427.11 422.75 429.27C424.05 432.78 425.61 436.21 426.71 439.79C427.18 441.33 427.17 443.28 426.67 444.81C425.52 448.3 423.95 451.65 422.49 455.03C422.27 455.53 421.71 455.88 421.3 456.3C420.89 455.89 420.29 455.56 420.1 455.07C419.6 453.82 419.49 452.37 418.81 451.24C418.35 450.47 417.27 449.82 416.36 449.62C413.75 449.04 410.31 450.3 409.45 446.11C409.39 445.82 408.13 445.78 407.43 445.62C407.5 446.25 407.33 447.18 407.68 447.44C409.12 448.54 408.33 449.09 407.48 450.06C406.85 450.77 406.41 452.07 406.57 452.98C407.68 459.19 408.96 465.37 409.87 469.92V469.95ZM239.4 525.7C239.87 531.49 239.97 537.54 245.94 541.09C246.58 541.47 247.32 541.7 248.02 541.99C248.17 541.23 248.33 540.47 248.48 539.71C249.27 535.84 249.96 531.95 250.88 528.11C251.39 525.96 252.48 523.94 252.95 521.79C253.66 518.53 254.14 515.22 254.57 511.91C254.96 508.91 255.38 505.88 255.3 502.88C255.26 501.51 254.03 500.17 253.34 498.82C252.42 500.07 251.34 501.24 250.6 502.59C248.84 505.79 247.86 509.7 245.42 512.2C241.62 516.09 238.88 519.98 239.41 525.69L239.4 525.7ZM292.15 500.33C292.66 501.05 293.37 502.39 294.4 503.39C295.21 504.17 296.92 504.27 297.36 505.12C298.64 507.59 299.44 510.31 300.5 512.9C302.72 518.35 304.96 523.79 307.27 529.21C307.55 529.86 308.21 530.37 308.76 530.87C309.42 531.46 310.34 531.85 310.82 532.54C313.39 536.27 315.85 540.07 318.39 543.82C318.67 544.24 319.19 544.5 319.59 544.83C319.71 544.26 320.09 543.59 319.92 543.12C318.52 539.33 317.09 535.55 315.54 531.82C313.06 525.89 310.46 520.01 307.95 514.09C307.48 512.99 307.18 511.83 306.82 510.69C306.2 508.7 305.38 506.75 305.03 504.71C304.69 502.72 304.1 500.93 302.03 500.6C299 500.12 298.91 498.24 299.26 495.95C299.51 494.35 299.86 492.77 300.03 491.16C300.07 490.78 299.65 490.25 299.3 489.94C298.62 489.33 297.78 488.9 297.13 488.27C295.74 486.93 294.56 486.71 294.12 488.92C293.41 492.42 292.89 495.95 292.15 500.3V500.33ZM236.01 533.94C236.43 533.77 236.85 533.61 237.27 533.44C236.56 531.83 235.82 530.22 235.15 528.59C233.9 525.55 232.25 522.58 231.56 519.41C230.74 515.64 230.16 512.12 225.95 510.57C224.98 510.21 224.28 509.16 223.44 508.44C223.07 508.13 222.67 507.86 222.28 507.57C222.07 508.13 221.65 508.69 221.68 509.23C221.78 510.82 221.98 512.41 222.28 513.97C223.22 518.87 223.38 524.15 225.4 528.57C228.12 534.5 232.28 539.76 235.86 545.29C236.19 545.81 236.92 546.07 237.24 546.59C238.2 548.13 239.31 549.65 239.91 551.34C241.33 555.38 242.46 559.52 243.78 563.59C243.91 564.01 244.51 564.27 244.9 564.61C245.05 564.12 245.44 563.57 245.33 563.14C244.26 558.94 243.27 554.71 241.93 550.6C240.11 545 238 539.49 236.01 533.94ZM328.6 517.56C327.61 514.79 326.33 510.97 324.8 507.26C324.57 506.71 322.55 506.21 322.36 506.46C320.43 508.97 319.46 506.88 318.26 505.77C317.9 505.44 317.5 505.14 317.12 504.83C317.1 505.3 316.97 505.79 317.08 506.23C318.21 510.76 319.65 515.22 320.49 519.8C322 528.03 323.14 536.32 324.47 544.58C324.57 545.19 325.01 545.74 325.29 546.32C325.79 545.84 326.61 545.43 326.75 544.86C327.46 541.93 328.38 538.98 328.52 536.01C328.8 530.29 328.6 524.56 328.6 517.58V517.56ZM156.62 482.47C154.84 478.79 153.03 475.02 151.14 471.29C151.07 471.15 149.76 471.29 149.64 471.56C148.92 473.25 148.02 473.25 146.44 472.54C144.7 471.76 144.2 470.59 144.03 468.87C143.97 468.3 143.09 467.81 142.59 467.28C142.35 467.53 141.86 467.92 141.91 468.01C143.55 471 142.99 474.93 146.29 477.32C147.45 478.16 147.66 480.34 148.25 481.93C148.38 482.27 148.12 482.77 148.28 483.07C150.3 486.89 152.48 490.63 154.37 494.51C155.06 495.93 155.1 497.68 155.42 499.28C155.52 499.78 155.58 500.29 155.66 500.8C155.99 500.43 156.41 500.1 156.62 499.67C158.08 496.77 159.13 493.57 161.04 491.01C162.9 488.52 161.89 487.49 159.71 487.52C155.9 487.58 153.88 486.95 156.61 482.48L156.62 482.47ZM44.37 505.39C43.92 505.93 43.53 506.21 43.39 506.59C42.8 508.17 42.41 509.65 40.03 509.47C39.3 509.42 38.19 511.12 37.73 512.21C37.5 512.76 38.12 513.94 38.68 514.52C40.95 516.83 43.37 519 45.7 521.25C48.72 524.16 51.7 527.12 54.71 530.03C54.97 530.28 55.41 530.36 55.76 530.52C55.85 530.26 56.06 529.97 56 529.74C55.28 526.69 54.93 523.45 53.67 520.63C51.73 516.3 49.21 512.23 46.83 508.11C46.26 507.13 45.28 506.39 44.36 505.39H44.37ZM319.75 530.7L319.94 530.65C319.49 527.84 319.37 524.92 318.53 522.23C316.27 515.03 314.05 507.84 313.4 500.26C313.32 499.33 312.99 498.38 312.59 497.52C312.42 497.15 311.78 497 311.36 496.75C311.17 497.16 310.7 497.8 310.82 497.94C312.46 499.81 310.39 501.56 310.67 503.44C310.92 505.17 310.4 507.02 310.2 508.81C310.05 510.23 309.33 511.87 309.8 513.03C312.49 519.66 315.46 526.17 318.35 532.72C318.49 533.04 318.86 533.26 319.12 533.53C319.33 533.14 319.64 532.78 319.72 532.37C319.82 531.83 319.75 531.26 319.75 530.71V530.7ZM103.65 498.4C104 498.91 104.74 500.09 105.6 501.18C108.46 504.79 108.89 504.78 111.39 501.04C112.39 499.55 113.72 498.46 112.83 496.05C111.84 493.37 114.19 491.6 117.19 492.16C117.61 492.24 118.51 491.7 118.59 491.32C119.38 487.43 121.61 483.77 120.48 479.57C120.35 479.08 120.31 478.56 120.24 478.06C120 478.53 119.66 478.98 119.53 479.48C119.01 481.47 118.37 483.21 116.01 483.82C115.12 484.05 114.41 485.06 113.7 485.78C113.64 485.84 114.44 486.77 114.4 486.8C112.45 488.58 110.7 490.84 108.39 491.89C105.69 493.12 103.7 494.36 103.66 498.39L103.65 498.4ZM78.79 491.45C79.45 492.98 79.66 493.89 80.19 494.52C80.46 494.84 81.33 494.74 81.91 494.67C82.22 494.63 82.49 494.25 82.77 494.03C82.41 493.86 81.88 493.77 81.73 493.48C81.56 493.16 81.64 492.63 81.76 492.24C81.97 491.56 82.36 490.93 82.53 490.25C82.69 489.63 82.43 488.83 82.73 488.34C83.9 486.41 85.41 484.67 86.45 482.68C87.88 479.96 89.04 477.09 90.18 474.24C90.28 473.99 89.47 473.24 88.95 472.94C88.63 472.75 87.79 473.16 87.66 472.97C85.64 470.03 80.77 470.69 79.63 466.58C79.48 466.04 78.36 465.76 77.69 465.36C77.55 466.09 77.15 466.89 77.31 467.54C77.78 469.38 78.56 471.13 79.06 472.96C79.98 476.27 80.66 479.66 81.72 482.92C82.02 483.86 79.08 485.83 82.54 485.77C82.4 486.05 82.29 486.36 82.11 486.62C80.95 488.31 79.79 490 78.78 491.46L78.79 491.45ZM182.12 482.2C182.72 482.99 183.36 484.71 184.28 484.88C186.53 485.3 186.23 483.59 185.83 482.1C185.82 482.05 186.38 481.71 186.65 481.75C187.28 481.83 187.88 482.05 188.5 482.21C188.35 481.3 188.19 480.4 188.05 479.49C188.02 479.28 188.05 478.88 188.07 478.88C189.26 478.79 190.45 478.71 191.64 478.69C192.32 478.68 193.05 478.97 193.66 478.79C194.47 478.55 195.29 478.11 195.92 477.54C196.72 476.81 197.32 475.87 198.01 475.03C197.27 474.88 196.53 474.59 195.8 474.62C194.98 474.65 193.79 475.39 193.42 475.07C190.84 472.83 186.78 470.64 186.37 467.94C185.85 464.52 183.53 464.64 181.92 463.4C181.48 463.06 180.17 463.86 179.26 464.14C179.6 465 179.77 465.99 180.32 466.69C180.95 467.51 182.22 467.92 182.66 468.79C183.42 470.28 183.52 472.11 184.32 473.56C185.06 474.89 185.46 475.62 184.18 476.99C183.17 478.09 182.96 479.93 182.12 482.2ZM71.48 486.46C71.08 482.95 69.92 481.76 66.61 481.8C66.4 481.8 65.93 481.17 66 481.01C67.64 477.14 64.36 475.33 62.62 472.9C61.58 471.45 60.44 470.08 59.26 468.74C59.05 468.5 58.45 468.6 58.03 468.54C58.15 468.89 58.26 469.25 58.4 469.6C59.6 472.49 60.92 475.35 61.97 478.3C62.38 479.44 62.02 480.83 62.3 482.05C62.53 483.07 63.12 484.03 63.63 484.97C64.32 486.25 65.34 487.41 65.78 488.76C66.47 490.91 66.71 493.2 67.34 495.37C67.48 495.85 68.42 496.31 69.04 496.37C69.34 496.4 69.94 495.53 70.04 494.99C70.59 492.16 71.02 489.31 71.49 486.46H71.48ZM340.18 494.77C340.21 497.56 341.64 498.94 344.51 498.99C346.72 499.03 349.07 500.3 351 497.96C352.46 496.2 354.25 494.72 355.78 493.01C356.85 491.82 357.75 490.64 356.26 488.9C354.37 486.69 352.95 484.06 351 481.91C350.41 481.26 348.43 476.71 347.54 482.03C347.48 482.38 346.84 482.81 346.93 482.99C347.5 484.21 348.12 485.41 348.88 486.51C349.12 486.86 350.02 486.76 350.26 487.11C350.86 488.03 351.35 489.05 351.71 490.09C351.88 490.57 351.75 491.21 351.58 491.73C351.32 492.55 350.87 493.3 350.59 494.12C350.42 494.61 350.59 495.51 350.34 495.61C348.86 496.25 347.31 496.72 345.79 497.25C345.44 496.02 345.08 494.79 344.76 493.56C344.68 493.26 344.69 492.92 344.73 492.61C345.04 489.93 341.99 490.43 341.16 488.83C340.98 489.93 340.8 491.03 340.62 492.12C340.47 493.06 340.32 493.99 340.19 494.77H340.18ZM223.19 487.83C222.61 488.67 221.92 489.67 221.23 490.66C220.4 490.08 219.59 489.48 218.75 488.93C218.01 488.45 217.23 488.02 216.46 487.58C216.31 487.98 216 488.4 216.02 488.79C216.31 493.1 217.7 496.44 222.44 497.88C224.62 498.55 224.49 498.02 224.79 496.34C225.36 493.13 224.91 489.57 228.51 487.34C229.88 486.49 230.32 484.16 231.18 482.5C229.72 482.87 228.26 483.23 226.81 483.6C226.35 483.72 225.87 483.78 225.43 483.96C223.88 484.6 221.64 484.79 223.18 487.84L223.19 487.83ZM120.5 461.05C119.04 460.79 117.47 461.39 117.52 463.54C117.56 465.24 118.2 466.92 118.66 468.59C118.7 468.74 119.58 468.89 119.71 468.74C120.66 467.58 121.5 466.34 122.42 465.16C122.8 464.68 123.36 463.88 123.74 463.93C125.52 464.19 127.37 464.49 128.98 465.23C129.5 465.47 129.36 467.11 129.57 468.1C129.66 468.52 129.85 468.92 130 469.33C130.36 469.05 130.82 468.84 131.06 468.48C132 467.09 130.6 461.74 129.26 460.82C127.57 459.67 126.01 458.33 124.4 457.06C124.07 456.8 123.78 456.49 123.46 456.21C123.47 456.65 123.39 457.11 123.51 457.51C124.41 460.4 123.91 461.13 120.5 461.05ZM374.4 458.31C374.41 461.44 375.9 462.55 378.19 461.64C381.49 460.33 384.18 462.78 387.23 462.93C387.58 462.95 387.83 463.81 388.22 464.18C388.78 464.71 389.39 465.22 390.05 465.59C390.3 465.73 390.78 465.5 391.15 465.43C390.96 465.11 390.73 464.8 390.6 464.46C390.12 463.23 389.32 461.98 389.33 460.74C389.33 459.52 390.16 458.29 390.62 457.07C389.33 457.29 388.05 457.63 386.76 457.69C385.54 457.75 384 457 383.14 457.51C380.47 459.1 379.66 457.53 378.73 455.56C378.49 455.05 377.79 454.76 377.3 454.37C376.21 455.84 375.12 457.32 374.4 458.3V458.31ZM83.73 453.36C83.44 453.46 83.14 453.55 82.85 453.65C82.93 454.7 82.76 455.85 83.13 456.78C84.08 459.13 86.19 457.76 87.73 457.81C89.21 457.86 89.87 456.9 88.75 455.41C86.82 452.84 84.92 450.24 83.09 447.6C82.96 447.41 83.32 446.56 83.61 446.47C85.3 445.91 87.08 441.76 86.08 440.22C85.82 439.82 84.74 439.47 84.39 439.68C82.63 440.72 80.96 441.91 79.35 443.17C79.12 443.35 79.29 444.28 79.51 444.75C80.88 447.64 82.31 450.5 83.72 453.36H83.73ZM47.62 460.48C47.43 460.7 47.24 460.92 47.05 461.13C47.94 461.69 48.84 462.73 49.73 462.72C51.68 462.71 52.87 463.26 53.58 465.14C53.8 465.73 54.78 466.04 55.41 466.47C55.67 465.84 56.08 465.23 56.14 464.59C56.27 463.14 58.06 461.46 55.66 460.27C55.61 460.24 55.68 459.67 55.81 459.61C57.64 458.76 56.03 458.43 55.55 458.06C54.26 457.08 52.96 456.1 51.59 455.25C50.24 454.42 48.84 453.64 47.36 453.1C46.92 452.94 46.14 453.68 45.52 454.01C45.94 454.26 46.45 454.44 46.76 454.79C47.29 455.38 48.04 456.06 48.08 456.74C48.16 457.96 47.79 459.22 47.61 460.46L47.62 460.48ZM68.15 444.54C67.91 444.2 67.66 443.87 67.42 443.53C67.04 442.68 66.83 441.69 66.26 441.01C64.92 439.4 63.68 438.03 65.5 435.83C65.91 435.33 64.95 433.7 64.61 432.59C63.9 433.05 62.91 433.34 62.54 433.99C61.02 436.69 59.63 439.46 58.38 442.29C58.24 442.61 59.19 443.85 59.8 443.99C61.92 444.5 64.1 444.79 66.27 445.03C66.87 445.1 67.53 444.72 68.16 444.55L68.15 444.54ZM402.81 384.39C402.55 384.97 402.06 385.57 402.05 386.18C401.98 389.98 401.97 393.79 402.06 397.59C402.07 398.09 402.7 398.77 403.22 399.01C403.55 399.17 404.44 398.83 404.64 398.47C405.44 397.07 406.43 395.62 406.66 394.09C406.96 392.02 407.01 389.74 406.41 387.78C406.02 386.53 404.27 385.7 402.81 384.39ZM314.23 490.01C314.62 492.75 314.79 494.91 315.25 497C315.63 498.72 319.76 500.26 321.14 499.25C321.54 498.96 321.82 498.15 321.73 497.65C321.55 496.57 321.2 495.48 320.73 494.48C319.98 492.91 319.16 491.35 318.2 489.9C317.6 488.98 316.69 488.27 315.91 487.46C315.26 488.44 314.61 489.43 314.22 490.02L314.23 490.01ZM45.5 476.98C47.8 477.24 49.5 476.06 49.34 474.11C49.25 473.04 47.1 471.51 45.73 471.32C43.76 471.05 43.28 471 44.42 469.08C45.56 467.16 44.61 465.19 42.85 465.49C41.88 465.66 40.44 466.33 40.23 467.07C39.75 468.75 38.75 470.71 40.96 472.24C41.64 472.71 41.82 473.93 42.18 474.82C42.37 475.28 42.33 476.08 42.61 476.2C43.52 476.59 44.53 476.74 45.5 476.99V476.98ZM35.13 457.57C34.94 455.84 32.9 455.13 31.84 455.67C29.81 456.69 28.81 455.54 27.28 454.9C26.06 454.39 24.36 454.73 22.98 455.08C22.65 455.16 22.37 457.44 22.66 457.59C23.71 458.14 25.09 458.05 26.2 458.53C27.42 459.06 28.51 459.92 29.6 460.72C30.11 461.1 30.45 461.68 30.87 462.18C31.81 460.26 36.93 462.55 35.14 457.56L35.13 457.57ZM142.04 458.44C141.93 458.44 141.81 458.46 141.7 458.46C141.92 460.23 142.14 462 142.37 463.77C143.63 462.51 145.52 461.44 146 459.93C146.6 458.05 148.7 455.73 145.69 453.65C144.65 452.93 144.37 451.14 143.74 449.84C143.48 449.31 143.2 448.79 142.93 448.27C142.64 448.83 142.11 449.39 142.09 449.96C142 452.78 142.05 455.61 142.05 458.44H142.04ZM202.55 455.33C202.15 455.5 201.76 455.66 201.36 455.83L202.68 457.63C203.17 456.88 203.75 456.16 204.14 455.35C204.47 454.65 204.44 453.78 204.81 453.12C205.23 452.38 205.92 451.79 206.5 451.13C205.92 450.87 205.32 450.65 204.77 450.34C204.61 450.25 204.44 449.87 204.51 449.72C204.98 448.64 205.43 447.53 206.04 446.52C206.58 445.62 207.31 444.84 207.96 444.01C207.3 444.19 206.63 444.37 205.97 444.54C204.79 444.84 203.59 445.43 202.42 445.38C199.64 445.26 200.1 447.16 200.42 448.59C200.93 450.88 201.83 453.09 202.56 455.33H202.55ZM213.95 491.74C213.09 488.89 212.62 486.59 211.65 484.52C211.29 483.76 209.79 483.2 208.79 483.16C207.91 483.13 207 483.97 206.1 484.4C205.39 484.73 204.66 485.02 203.94 485.33C204.54 485.7 205.19 486 205.72 486.45C206.2 486.86 206.47 487.51 206.96 487.9C208.69 489.27 210.44 490.61 212.26 491.86C212.58 492.08 213.24 491.8 213.95 491.73V491.74ZM43.71 485.2C43.91 483.15 42.09 481.62 40.38 481.75C39.8 481.79 38.99 481.75 38.63 481.38C36.2 478.96 36.22 479.15 34.35 481.65C32.74 483.8 34.3 484.97 35.11 486.39C35.3 486.72 36.4 486.53 37.09 486.58C37.31 483.48 39.13 485.33 40.47 485.42C41.58 485.5 42.71 485.28 43.71 485.2ZM422.43 422.72C423.12 422.57 424.09 422.36 425.05 422.15C424.49 421.41 423.88 420.71 423.38 419.93C422.39 418.4 421.48 416.82 420.49 415.3C420.31 415.03 419.88 414.72 419.61 414.76C418.29 414.93 416.98 415.2 415.67 415.46C415.53 415.49 415.33 415.65 415.3 415.78C414.82 418.52 419.14 422.89 422.44 422.72H422.43ZM171.08 469.79C169.59 469.06 169.11 468.83 168.64 468.6C168.24 468.41 167.85 468.21 167.45 468.02C166.46 467.55 165.48 467.08 164.49 466.61C164.34 467.5 164.26 468.41 164.02 469.28C163.82 470.03 163.14 470.76 163.21 471.44C163.35 472.84 163.82 474.22 164.22 475.58C164.26 475.71 164.91 475.85 165.04 475.73C166.86 473.99 168.64 472.2 171.07 469.79H171.08ZM443.88 397.95C443.18 397.84 442.57 397.56 442.07 397.7C440.11 398.25 438.19 398.95 436.25 399.57C435.73 399.74 435.19 399.82 434.65 399.93C435.15 400.91 435.62 401.91 436.19 402.86C436.26 402.97 436.89 402.64 437.22 402.71C437.91 402.86 438.71 402.99 439.17 403.44C439.45 403.71 439.31 404.59 439.15 405.13C438.96 405.75 438.54 406.3 438.22 406.88C438.67 406.9 439.23 407.1 439.53 406.91C440.19 406.49 440.91 405.97 441.25 405.31C441.72 404.38 441.82 403.27 442.17 402.26C442.62 400.98 443.16 399.74 443.88 397.95ZM329.63 470.58C330.92 472.71 331.59 475.12 333.08 475.86C334.39 476.51 335 476.82 335.07 478.2C335.08 478.49 335.71 479.05 335.85 478.99C336.97 478.55 337.16 474.79 336.15 474.05C334.2 472.62 333.08 471.11 335.54 469.11C335.76 468.93 335.61 468.29 335.63 467.86C335.21 467.86 334.74 467.72 334.38 467.87C333.48 468.25 332.62 468.74 331.77 469.23C331.16 469.58 330.58 469.98 329.62 470.58H329.63ZM54.88 491.1C54.4 488.7 54.07 486.83 53.61 484.99C53.52 484.64 52.91 484.42 52.54 484.14C52.26 484.76 51.64 485.86 51.75 485.93C54.66 487.97 49.92 488.09 50.86 489.57C50.5 489.06 50.18 488.51 49.76 488.05C49.5 487.77 49.11 487.53 48.74 487.45C48.19 487.33 47.6 487.35 47.03 487.32C47.26 487.87 47.43 488.44 47.72 488.95C48.19 489.8 48.58 490.77 49.28 491.38C50.27 492.24 51.49 493.32 52.63 493.34C53.43 493.35 54.26 491.76 54.87 491.1H54.88ZM285.44 482.29C285.38 483.28 285.19 483.77 285.36 484.05C285.94 485.04 286.46 486.4 287.36 486.79C288.3 487.19 289.83 484.05 289.46 482.76C289.32 482.28 289.59 481.69 289.52 481.17C289.43 480.49 289.39 479.47 288.96 479.22C287.58 478.39 286.03 477.85 284.54 477.19C284.49 477.81 284.27 478.46 284.41 479.03C284.72 480.32 285.21 481.57 285.44 482.29ZM375.31 471.98C374.8 472.58 373.88 473.56 373.11 474.65C372.86 475.01 372.89 476.09 373.01 476.13C375.26 476.82 377.54 477.42 379.84 477.92C379.98 477.95 380.54 476.97 380.57 476.45C380.66 474.7 377.98 472.08 375.3 471.98H375.31ZM419.37 382.61C419.24 382.93 419.09 383.13 419.09 383.33C419.14 386.74 419.16 390.15 419.36 393.55C419.38 393.85 420.62 394.08 421.29 394.34C422.05 391.82 422.81 389.31 423.56 386.79C423.57 386.75 423.46 386.62 423.42 386.62C420.68 387.05 420.64 384.73 419.88 383.15C419.79 382.97 419.6 382.84 419.37 382.61ZM248.13 552.29C248.66 548.35 246.2 543.49 243.26 542.21C242.88 542.05 242.41 542.1 241.98 542.05C242.01 542.43 241.95 542.85 242.09 543.19C244.02 547.77 245.96 552.33 247.94 556.89C248.08 557.21 248.46 557.42 248.73 557.68C248.8 557.27 248.97 556.84 248.91 556.44C248.7 555.05 248.4 553.68 248.14 552.29H248.13ZM257.82 492.92C258.26 493.54 259.09 494.71 259.92 495.88C260.66 494.88 261.51 493.95 262.11 492.87C262.9 491.46 263.54 489.96 264.12 488.46C264.25 488.14 263.96 487.31 263.71 487.24C262.14 486.76 257.77 490.42 257.81 492.92H257.82ZM405.98 406.38C405.74 405.73 405.61 405.19 405.32 404.76C405.26 404.67 404.46 404.84 404.3 405.09C404.09 405.4 404.2 405.91 404.15 406.34C404.09 406.83 404 407.76 403.95 407.76C401.68 407.66 401.19 409.38 400.49 410.96C400.35 411.27 399.65 411.36 399.2 411.51C398.3 411.8 397.39 412.07 396.48 412.35C397.03 413.09 397.6 413.82 398.13 414.58C399.41 416.44 400.35 414.78 401.01 414.1C402.21 412.88 403.18 411.41 404.12 409.96C404.85 408.84 405.37 407.58 405.98 406.4V406.38ZM11.14 512.5C10.73 511.91 10.47 511.14 9.99 510.95C9.54 510.77 8.84 511.2 8.26 511.4C7.56 511.64 6.86 512.17 6.18 512.14C4.68 512.07 3.2 511.69 1.7 511.52C1.27 511.47 0.81 511.7 0.36 511.81C0.72 512.05 1.05 512.44 1.44 512.5C3.13 512.75 4.67 512.91 4.7 515.29C4.7 515.92 5.92 516.58 6.67 517.11C6.86 517.25 7.5 517.07 7.7 516.83C8.71 515.68 9.64 514.47 10.6 513.27C10.79 513.03 10.95 512.78 11.15 512.49L11.14 512.5ZM74.14 458.99C73.71 458.46 73.55 458.29 73.42 458.1C71.47 455.19 67.98 454.47 65.35 452.53C65.04 452.3 63.99 452.93 63.4 453.34C63.22 453.46 63.32 454.47 63.54 454.59C66.54 456.2 69.58 457.74 72.65 459.23C72.96 459.38 73.47 459.11 74.14 459V458.99ZM195.87 449.46C196.23 449.26 196.59 449.06 196.94 448.86C196.6 448.56 196.26 448.26 195.91 447.96C195.15 449.73 194.29 451.47 193.69 453.29C193.5 453.86 193.77 454.87 194.21 455.31C195.19 456.31 196.36 457.12 197.53 457.91C197.91 458.17 198.55 458.3 198.98 458.18C199.46 458.04 199.84 457.55 200.27 457.21C199.8 457.02 199.31 456.86 198.88 456.61C198.55 456.42 198.15 456.15 198.04 455.83C197.28 453.71 196.59 451.57 195.88 449.44L195.87 449.46ZM117.22 472.31C115.94 470.86 114.72 469.03 114.39 469.18C112.93 469.84 111.72 471.07 110.43 472.09C111.36 473.05 112.26 474.74 113.21 474.77C114.36 474.8 115.55 473.42 117.22 472.31ZM37.23 449.21C38.46 448.93 39.46 448.76 40.42 448.45C40.69 448.36 40.84 447.86 41 447.53C41.01 447.5 40.65 447.3 40.47 447.18C39.19 446.32 37.9 445.48 36.65 444.58C36.19 444.25 35.6 443.34 35.47 443.41C34.25 444.1 33.11 444.94 31.95 445.74C32.31 446.1 32.67 446.77 33.03 446.77C34.61 446.78 36.26 446.45 36.52 448.78C36.54 448.99 37.09 449.13 37.23 449.21ZM365.21 402.48C365.21 405.09 365.18 407.03 365.24 408.96C365.25 409.39 365.48 409.99 365.8 410.18C366.62 410.67 367.56 410.99 368.45 411.35C368.77 411.48 369.11 411.56 369.45 411.66C369.45 411.37 369.45 411.08 369.42 410.79C369.29 409.66 369.04 408.53 369.04 407.4C369.04 406.92 369.84 406.09 369.76 406.02C368.59 405 367.34 404.09 365.22 402.47L365.21 402.48ZM274.56 463.12C273.34 461.28 272.29 459.72 271.24 458.15C271.23 458.13 271.06 458.16 271.03 458.21C270.29 459.5 269.56 460.78 268.86 462.09C268.84 462.14 269.27 462.36 269.4 462.56C269.82 463.23 270.27 463.9 270.57 464.62C270.75 465.07 270.68 465.63 270.71 466.15C271.44 466.09 272.46 466.31 272.84 465.92C273.62 465.12 274.05 463.98 274.56 463.11V463.12ZM234.33 483.28C234.87 484.31 235.36 485.25 235.85 486.2C236.13 485.96 236.48 485.76 236.68 485.46C237.79 483.88 238.91 482.31 239.93 480.68C240.49 479.77 240.86 478.75 241.32 477.77C239.67 477.04 238.71 477.71 237.81 479.16C237.16 480.19 236.02 480.91 235.17 481.83C234.82 482.2 234.65 482.73 234.33 483.29V483.28ZM200.68 477.29C203.02 477.26 207.11 474.06 207.67 472.05C207.71 471.9 207.04 471.34 206.9 471.4C204.73 472.4 202.55 473.4 200.5 474.61C200.1 474.85 200.17 476.02 200.17 476.75C200.17 476.99 200.64 477.23 200.69 477.28L200.68 477.29ZM58.82 486.76C58.68 487.23 58.21 487.95 58.34 488.54C58.56 489.6 58.93 490.79 59.63 491.55C60.52 492.5 61.85 493.94 63.15 492.15C64.28 490.6 61.79 486.8 58.82 486.76ZM-2.58 540.34C-2.3 541.71 -2.33 542.53 -1.96 543.08C-1.43 543.86 -0.61 544.43 0.0900002 545.09C0.31 544.23 0.62 543.38 0.72 542.51C0.87 541.2 0.95 539.87 0.89 538.56C0.87 538.17 0.29 537.81 -0.03 537.44C-0.96 538.51 -1.89 539.57 -2.57 540.34H-2.58ZM175.77 479.38C175.37 479.7 175.25 479.8 175.13 479.89C173.68 481.04 173.67 485.45 175.18 486.51C175.58 486.79 176.18 486.78 176.69 486.9C176.63 486.49 176.46 486.05 176.56 485.69C176.66 485.33 177.14 485.08 177.28 484.72C177.51 484.1 177.9 483.31 177.7 482.8C177.23 481.61 176.46 480.54 175.78 479.38H175.77ZM296.64 474.18C296.39 473.38 296.38 472.8 296.09 472.5C295.1 471.5 294.14 470.23 292.9 469.8C292.12 469.52 290.89 470.54 289.86 470.98C290.41 471.49 290.96 472.02 291.52 472.52C292.14 473.07 292.76 473.63 293.43 474.12C293.93 474.48 294.5 474.98 295.04 474.98C295.59 474.98 296.15 474.45 296.64 474.18ZM59.41 420.86C58.24 422.29 56.7 423.35 56.73 424.38C56.75 425.35 58.42 426.28 59.37 427.23C60.18 425.78 61.08 424.35 61.72 422.83C61.81 422.62 60.63 421.88 59.42 420.86H59.41ZM138.89 435.5C138.42 436.63 137.92 437.24 137.99 437.77C138.11 438.68 138.34 439.94 138.97 440.34C140.03 441.02 141.44 441.16 142.72 441.47C142.83 441.5 143.26 440.85 143.2 440.78C142.05 439.32 140.86 437.89 138.88 435.5H138.89ZM307.48 475.27C308.48 475.13 308.93 475.07 309.38 475.01C309.26 474.52 309.27 473.94 309 473.54C308.26 472.42 307.5 471.27 306.54 470.35C306.17 469.99 305.17 470.07 304.57 470.27C304.35 470.34 304.34 471.4 304.45 471.97C304.75 473.51 307.59 473.02 307.14 475.23C307.43 475.26 307.71 475.28 307.46 475.26L307.48 475.27ZM345.89 447.85C346.49 448.86 346.94 449.62 347.39 450.37C348.23 449.05 349.29 447.8 349.75 446.37C349.87 445.99 348.16 445.01 347.28 444.31C346.86 445.38 346.44 446.45 345.88 447.85H345.89ZM369.88 451.15C369.64 450.77 369.38 450.35 369.12 449.94C368.27 451.31 367.43 452.68 366.58 454.05C367.61 454.48 368.65 454.91 369.68 455.34C369.74 454 369.81 452.67 369.88 451.14V451.15ZM201.05 488.33C200.32 488.91 199.23 489.34 199.07 490C198.87 490.86 199.41 491.89 199.64 492.85C199.99 492.35 200.33 491.84 200.71 491.37C200.76 491.3 201.04 491.44 201.14 491.37C202 490.81 202.84 490.23 203.69 489.66C202.93 489.28 202.16 488.89 201.05 488.33ZM213.56 441.76C213.75 441.99 213.93 442.23 214.12 442.46C214.5 442.18 214.88 441.89 215.26 441.61C214.44 440.81 213.68 439.92 212.75 439.27C212.5 439.1 211.46 439.55 211.25 439.96C210.78 440.85 210.56 441.89 210.35 442.9C210.27 443.28 210.5 443.72 210.59 444.14C210.95 443.87 211.31 443.61 211.66 443.32C212.3 442.81 212.93 442.28 213.56 441.76ZM357.08 468.16C357.17 467.76 357.26 467.35 357.35 466.95C355.91 466.33 354.5 465.62 353.01 465.16C352.52 465.01 351.61 465.33 351.29 465.75C350.92 466.22 351 467.03 350.88 467.69C351.14 467.72 351.55 467.87 351.64 467.76C353.17 465.91 354.38 467.25 355.71 468.07C356.05 468.28 356.62 468.15 357.08 468.17V468.16ZM227.04 472.21C226.48 473.64 225.79 474.68 226.02 474.96C226.92 476.03 228.1 476.86 229.18 477.78C229.38 477.37 229.87 476.8 229.74 476.56C229.03 475.25 228.18 474.01 227.03 472.21H227.04ZM311.74 476.15C311.19 477.02 310.78 477.67 310.38 478.31C311.61 478.93 312.82 479.59 314.1 480.09C314.24 480.15 315.08 478.92 315.04 478.89C314.04 477.98 312.98 477.14 311.74 476.15ZM433.03 386.33C433.98 384.44 434.65 383.29 435.1 382.06C435.2 381.78 434.53 381.22 434.21 380.79C433.42 381.94 432.58 383.07 431.9 384.28C431.78 384.49 432.32 385.07 433.03 386.33ZM322.47 537.45C322.22 535.11 322.01 532.96 321.75 530.82C321.72 530.57 321.44 530.35 321.27 530.11C321.17 530.3 320.97 530.5 320.97 530.69C321.02 532.99 321.06 535.29 321.2 537.59C321.22 537.93 321.77 538.23 322.08 538.55C322.23 538.13 322.38 537.72 322.47 537.45ZM256.52 484.14C257.31 485.55 257.93 486.68 258.56 487.8C259.09 487.16 260.18 486.31 260.03 485.92C259.63 484.85 258.72 483.98 257.94 483.08C257.92 483.05 257.2 483.63 256.51 484.14H256.52ZM324.81 493.46C324.58 494.28 324.23 494.85 324.34 495.28C324.62 496.31 325.12 497.28 325.53 498.28C326.21 497.95 326.89 497.62 327.57 497.3C326.73 496.13 325.88 494.96 324.81 493.46ZM93.63 486.04C92.66 487.06 91.59 487.94 91.69 488.1C92.25 489.01 93.09 489.75 93.84 490.54C94.28 489.62 94.83 488.73 95.1 487.76C95.18 487.49 94.47 486.99 93.63 486.04ZM446.76 400.5C446.59 399.51 446.48 398.84 446.36 398.18C446.05 398.74 445.67 399.27 445.45 399.86C444.9 401.32 444.4 402.8 443.95 404.29C443.84 404.65 444.02 405.1 444.07 405.52C444.44 405.32 445.03 405.21 445.15 404.91C445.77 403.4 446.28 401.84 446.75 400.5H446.76ZM387.06 447.1C386.74 446.49 386.5 445.61 385.94 445.06C385.26 444.4 384.31 444 383.46 443.53C383.09 443.33 382.66 443.23 382.26 443.08C382.33 443.55 382.24 444.17 382.51 444.48C383.55 445.66 384.69 446.74 385.8 447.85C386.06 448.11 386.32 448.37 386.58 448.63C386.71 448.22 386.84 447.81 387.06 447.1ZM231.03 500.78C230.51 500.17 229.98 499.52 229.96 499.54C229.12 500.17 228.04 500.73 227.67 501.6C227.5 502.01 228.71 503.01 229.29 503.74C229.85 502.8 230.41 501.85 231.04 500.79L231.03 500.78ZM269.4 479.06C268.39 478.25 267.85 477.81 267.31 477.37C266.88 478.02 266.11 478.67 266.1 479.32C266.1 480.09 266.76 480.86 267.14 481.63C267.77 480.91 268.4 480.2 269.41 479.06H269.4ZM250.89 475.49C252.14 474.92 252.81 474.62 253.49 474.31C252.65 473.19 251.81 472.07 250.97 470.94C250.65 471.8 250.17 472.64 250.08 473.52C250.02 474.09 250.55 474.72 250.89 475.49ZM300.27 467.95C300.86 466.73 301.38 465.84 301.66 464.89C301.73 464.65 300.91 463.83 300.73 463.89C299.92 464.19 299.19 464.71 298.43 465.16C298.98 465.99 299.52 466.81 300.27 467.94V467.95ZM119.52 471.3C118.6 472.38 117.96 473.13 117.31 473.88L119.78 475.72C120.01 475.26 120.47 474.76 120.41 474.34C120.28 473.4 119.89 472.5 119.51 471.29L119.52 471.3ZM155.42 437.38C154.28 436.71 153.54 436.17 152.71 435.88C152.53 435.82 151.75 436.65 151.76 437.06C151.77 437.64 152.26 438.22 152.54 438.8C153.35 438.4 154.17 438 155.42 437.38ZM402.29 418.1C402.04 418.69 401.42 419.46 401.6 419.9C401.93 420.73 402.73 421.37 403.33 422.08C403.8 421.52 404.77 420.61 404.67 420.47C404.04 419.62 403.18 418.94 402.28 418.1H402.29ZM411.64 433.84C410.73 433.04 410.07 432.45 409.4 431.86C409.13 432.17 408.57 432.62 408.64 432.77C409.11 433.72 409.71 434.6 410.27 435.51C410.61 435.1 410.95 434.68 411.64 433.85V433.84ZM318.01 475.51C317.8 475.05 317.56 474.52 317.32 473.99C316.87 474.43 315.97 474.97 316.04 475.29C316.35 476.64 316.95 477.93 317.44 479.24C317.62 478.09 317.79 476.94 318.01 475.52V475.51ZM132.41 494.33C132.9 493.37 133.45 492.74 133.48 492.09C133.5 491.56 132.9 491.01 132.58 490.46C132.06 491.19 131.4 491.86 131.09 492.67C130.99 492.94 131.76 493.55 132.4 494.33H132.41ZM393.44 456.2C393.12 456.89 392.84 457.27 392.92 457.36C393.75 458.35 394.61 459.3 395.52 460.22C395.57 460.27 396.03 459.91 396.29 459.74C395.43 458.67 394.57 457.61 393.44 456.2ZM375.09 397.83C374.89 398.42 374.53 398.98 374.67 399.17C375.2 399.89 375.85 400.53 376.55 401.09C376.68 401.19 377.22 400.77 377.57 400.59C376.81 399.74 376.05 398.89 375.09 397.82V397.83ZM386.16 416.14C386.73 415.3 387.15 414.69 387.56 414.07C387.15 413.8 386.63 413.21 386.35 413.31C385.65 413.56 385.05 414.12 384.42 414.55C384.92 415.01 385.41 415.46 386.16 416.14ZM454.18 401.82C455.02 400.42 455.58 399.54 456.05 398.61C456.12 398.48 455.71 398.11 455.52 397.86C454.83 398.59 454.09 399.29 453.48 400.09C453.36 400.25 453.75 400.8 454.17 401.82H454.18ZM269.23 492.05C269.6 491.27 269.93 490.89 269.84 490.69C269.42 489.74 268.89 488.85 268.41 487.93C268.16 488.08 267.66 488.33 267.68 488.38C268.09 489.46 268.56 490.51 269.23 492.05ZM407.55 403.01C406.96 403.94 406.39 404.46 406.34 405.02C406.31 405.4 407 405.84 407.37 406.25C407.8 405.67 408.33 405.14 408.59 404.5C408.68 404.27 408.1 403.77 407.55 403.01ZM247.78 567.93C247.47 566.84 247.18 565.82 246.89 564.79C246.66 565.42 246.2 566.08 246.25 566.69C246.33 567.5 246.81 568.26 247.12 569.05C247.33 568.7 247.53 568.35 247.77 567.93H247.78ZM32.85 470.16C32.08 469.45 31.47 468.89 30.86 468.32C30.64 468.67 30.16 469.17 30.25 469.33C30.6 469.92 31.1 470.46 31.65 470.88C31.77 470.97 32.33 470.48 32.85 470.16ZM77.48 434.45C76.44 433.67 75.88 433.24 75.32 432.81C74.97 433.39 74.62 433.97 74.27 434.55C74.92 434.62 75.58 434.7 76.23 434.74C76.45 434.75 76.68 434.64 77.47 434.45H77.48ZM200.25 462.89C199.36 464.22 198.62 465.27 197.96 466.37C197.89 466.49 198.33 466.91 198.53 467.19C199.49 466.18 200.46 465.18 201.38 464.14C201.4 464.11 200.95 463.66 200.24 462.88L200.25 462.89ZM171.77 489.88C172.33 490.51 172.81 491.04 173.28 491.57C173.56 491.29 174.14 490.9 174.08 490.76C173.73 489.85 173.23 489 172.78 488.13C172.51 488.6 172.23 489.07 171.77 489.88Z" fill="#6FA06E"/>
<path d="M262.55 507.65C263.12 505.37 263.67 503.13 264.26 500.9C264.35 500.56 264.61 500.26 264.79 499.94C266.19 500.8 268.61 501.48 268.8 502.55C269.41 505.97 269.19 509.53 269.28 513.04C269.28 513.36 269.3 513.73 269.15 513.98C268.36 515.28 267.52 516.54 266.7 517.82C266.02 516.66 265.19 515.57 264.71 514.33C263.9 512.23 263.31 510.05 262.55 507.65Z" fill="#6FA06E"/>
<path d="M11.75 549C12.37 548.02 12.89 546.5 13.94 545.75C14.65 545.25 16.68 545.42 17.14 546.03C18.02 547.2 18.56 548.89 18.61 550.38C18.7 553.15 18.46 555.96 18.09 558.72C17.95 559.74 17.07 560.66 16.53 561.63C15.68 560.87 14.34 560.26 14.07 559.33C13.14 556.14 12.58 552.83 11.75 549Z" fill="#6FA06E"/>
<path d="M409.23 459.38C409.87 458.56 410.49 457.77 411.11 456.99C411.9 457.63 413.46 458.68 413.37 458.84C412.64 460.16 411.62 461.32 410.68 462.53C410.25 461.59 409.81 460.65 409.23 459.38Z" fill="#6FA06E"/>
<path d="M47.9098 473.86C47.1298 474.52 46.7098 475.18 46.2598 475.19C45.8498 475.2 45.4298 474.52 45.0098 474.14C45.4498 473.76 45.8498 473.22 46.3598 473.05C46.6598 472.95 47.1498 473.44 47.9198 473.86H47.9098Z" fill="#6FA06E"/>
</g>
<defs>
<clipPath id="clip0_29_891">
<rect width="475" height="1120" fill="white"/>
</clipPath>
</defs>
</svg>
