<svg width="475" height="1596" viewBox="0 0 475 1596" fill="none" xmlns="http://www.w3.org/2000/svg">
<g clip-path="url(#clip0_63_1449)">
<rect width="475" height="1596" transform="matrix(-1 0 0 1 475 0)" fill="#FFCAFD"/>
<path d="M-3.88 733.496C-2.94 733.646 -1.98 733.735 -1.06 733.975C0.79 734.455 2.63 735.006 4.47 735.566C5.23 735.796 5.99 736.065 6.71 736.415C11.73 738.895 16.73 741.385 21.73 743.905C22.44 744.265 23.08 744.756 23.76 745.176C24.46 745.606 24.98 745.665 25.02 745.345C25.1 744.805 24.76 744.476 24.45 744.146C23.34 742.996 22.21 741.865 21.09 740.725C19.97 739.585 18.87 738.446 17.99 737.086C16.85 735.326 15.36 733.866 13.62 732.706C12.01 731.636 10.56 730.406 9.47 728.796C9.41 728.696 9.43 728.486 9.5 728.376C9.57 728.266 9.76 728.155 9.88 728.165C11.04 728.315 12.01 728.896 12.81 729.676C15.67 732.486 18.94 734.776 22.15 737.146C23.05 737.806 23.84 738.606 24.69 739.326C24.8 739.416 25.01 739.486 25.14 739.446C25.49 739.326 25.59 739.035 25.49 738.665C25.45 738.515 25.38 738.356 25.39 738.196C25.4 737.906 25.45 737.606 25.49 737.316C25.77 737.356 26.14 737.306 26.32 737.456C28.13 739.036 29.85 740.696 31.15 742.746C31.29 742.966 31.66 743.075 31.95 743.165C32.25 743.265 32.45 742.576 32.3 741.926C32.26 741.766 32.23 741.616 32.19 741.456C31.06 736.616 29.53 731.915 27.31 727.465C27.14 727.125 27.24 726.806 27.55 726.646C27.66 726.586 27.9 726.646 28 726.736C29.97 728.656 31.47 730.906 32.43 733.486C33.15 735.436 33.76 737.425 34.35 739.415C35.12 742.015 35.83 744.636 36.57 747.256C36.91 748.446 37.75 749.146 38.89 749.456C39.66 749.666 40.46 749.845 41.24 749.855C43.48 749.865 45.72 749.856 47.95 749.706C48.88 749.646 49.85 749.346 50.69 748.936C53.9 747.356 57.41 746.916 60.85 746.236C63.61 745.696 66.25 746.175 68.67 747.715C69.49 748.235 70.2 748.835 70.82 749.595C72.9 752.155 73.96 755.126 74.51 758.326C74.56 758.636 74.59 758.965 74.54 759.275C74.22 761.325 73.94 763.385 73.5 765.405C73.25 766.545 72.43 767.406 71.29 767.756C69.77 768.226 68.21 768.625 66.64 768.905C64 769.375 61.56 768.575 59.3 767.285C57.35 766.175 55.56 764.876 54.34 762.876C53.56 761.586 52.22 760.965 50.77 760.655C50.32 760.555 49.82 760.636 49.35 760.676C48.9 760.716 48.4 761.305 48.46 761.655C48.69 763.075 49.04 764.466 49.85 765.696C50.82 767.166 51.84 768.586 53.11 769.826C54.6 771.276 56.08 772.736 57.48 774.266C59.77 776.756 61.62 779.516 62.64 782.806C63.17 784.516 63.37 786.236 63.27 788.006C63.21 788.986 63 789.936 62.29 790.636C60.76 792.136 59.82 793.946 59.26 795.996C59.14 796.456 58.92 796.896 58.69 797.316C58.04 798.506 57.02 799.216 55.69 799.486C55.03 799.616 54.39 799.486 53.86 799.116C53.34 798.756 52.82 798.336 52.47 797.816C51.2 795.976 49.87 794.176 48.93 792.126C48 790.086 46.75 788.225 45.37 786.465C45.15 786.185 44.81 786.186 44.55 786.396C44.44 786.486 44.35 786.645 44.32 786.785C44.13 787.605 44.35 788.376 44.65 789.116C45.48 791.196 46.29 793.276 47.19 795.326C47.86 796.836 48 798.396 47.95 800.016C47.91 801.166 47.62 802.215 46.95 803.165C46.58 803.685 46.24 804.236 45.89 804.766C45.35 805.596 44.62 806.196 43.74 806.626C43.02 806.976 42.28 807.276 41.56 807.626C40.77 808.016 40.36 808.706 40.38 809.556C40.4 810.346 40.48 811.156 40.72 811.896C40.96 812.646 41.32 813.406 41.81 814.016C44.25 816.996 46.27 820.255 48.35 823.475C49.77 825.675 51.71 827.295 53.74 828.855C54.14 829.165 55.16 829.135 55.56 828.845C56.75 827.995 57.69 826.926 58.48 825.706C60.46 822.616 63.49 820.846 66.68 819.316C67.1 819.116 67.61 819.095 68.02 819.415C68.11 819.485 68.19 819.716 68.15 819.806C68.01 820.076 67.86 820.386 67.62 820.546C62.94 823.616 59.88 828.085 57.1 832.785C56.68 833.495 56.65 834.316 56.82 835.116C57.14 836.676 57.48 838.235 57.86 839.785C57.92 840.015 58.3 840.286 58.54 840.296C58.78 840.296 59.15 840.056 59.25 839.816C59.97 838.216 60.62 836.575 61.33 834.975C62.24 832.925 63.25 830.936 64.99 829.446C65.09 829.356 65.36 829.296 65.43 829.366C65.64 829.546 65.93 829.795 65.93 830.025C65.93 830.485 65.84 830.995 65.65 831.405C64.47 833.865 63.78 836.505 62.81 839.035C61.1 843.515 60.93 848.066 61.91 852.696C62.16 853.866 62.06 854.896 61.39 855.886C61.13 856.276 60.89 856.715 60.73 857.155C60.46 857.935 60.46 858.725 60.88 859.465C61.04 859.745 61.26 859.986 61.41 860.266C62.03 861.406 61.97 861.666 60.96 862.746C60.53 863.206 60.1 863.676 59.78 864.206C59.66 864.406 59.75 864.866 59.91 865.076C60.35 865.616 61.79 865.525 62.03 864.975C62.55 863.805 63.1 862.656 63.53 861.456C63.97 860.216 63.74 858.935 63.56 857.665C63.5 857.235 63.68 856.756 63.8 856.316C63.83 856.216 64.04 856.105 64.18 856.095C64.32 856.075 64.54 856.115 64.61 856.215C64.79 856.465 65 856.745 65.04 857.035C65.14 857.665 65.22 858.316 65.17 858.936C64.97 861.546 65.61 864.006 66.36 866.456C66.63 867.326 67.32 867.666 68.13 867.866C67.72 868.336 67.29 868.805 66.89 869.285C66.66 869.565 66.66 869.926 66.95 870.086C67.18 870.206 67.57 870.246 67.79 870.136C68.83 869.576 68.88 869.076 68.08 867.896C67.68 867.026 67.25 866.166 67.23 865.176C67.22 864.526 67.31 863.886 67.73 863.376C67.9 863.176 68.42 862.955 68.5 863.035C69.07 863.565 69.5 864.276 70.11 864.746C70.73 865.226 71.58 865.416 72.2 865.886C72.82 866.366 73.28 867.046 73.82 867.636C74.11 867.956 74.39 867.955 74.58 867.605C74.65 867.475 74.65 867.286 74.62 867.136C74.48 866.316 74.01 865.656 73.45 865.086C72.5 864.146 72.45 863.225 73.19 862.105C73.91 861.005 73.94 859.685 74.1 858.415C74.12 858.285 74.03 858.086 73.92 858.016C73.64 857.836 73.38 857.956 73.19 858.306C72.89 858.866 72.63 859.456 72.3 859.996C71.98 860.516 71.15 860.826 70.63 860.686C69.92 860.496 69.21 859.556 69.32 858.876C69.65 856.836 69.91 854.765 70.9 852.905C71.1 852.535 71.59 852.116 71.97 852.086C73.28 851.986 74.46 852.515 75.57 853.155C75.82 853.295 76.08 853.625 76.12 853.905C76.46 855.995 77.83 857.665 78.43 859.655C78.76 860.745 79.51 861.605 80.6 862.095C80.49 862.395 80.42 862.715 80.26 862.975C79.85 863.655 79.25 863.966 78.7 863.756C78.11 863.536 77.56 863.225 76.98 862.965C76.38 862.705 75.72 863.046 75.56 863.756C75.47 864.206 75.46 864.696 75.53 865.146C75.57 865.426 75.78 865.775 76.02 865.905C76.23 866.015 76.6 865.916 76.87 865.826C77.4 865.646 77.82 865.795 78.11 866.215C78.38 866.605 78.54 867.055 78.78 867.475C79.03 867.915 79.41 868.156 79.94 868.116C80.57 868.066 81.21 867.966 81.83 867.996C83.22 868.076 84.28 869.116 84.2 870.456C84.13 871.566 84.05 872.636 84.55 873.686C84.69 873.986 84.46 874.316 84.11 874.426C82.74 874.826 81.35 875.155 79.99 875.595C77.72 876.335 75.57 877.345 73.68 878.845C73.4 879.065 73.41 879.405 73.61 879.665C73.7 879.775 73.85 879.865 73.99 879.905C74.14 879.945 74.32 879.965 74.46 879.905C77.72 878.705 80.93 877.195 84.57 878.035C84.85 878.105 85.2 877.976 85.5 877.886C87.05 877.396 88.63 877.465 90.22 877.475C91.81 877.495 93.4 877.466 94.98 877.456C95.01 877.606 95.01 877.785 95.09 877.915C95.25 878.165 95.45 878.536 95.66 878.556C95.9 878.586 96.28 878.346 96.43 878.116C97.31 876.786 97.88 875.326 98.12 873.746C98.14 873.616 98.06 873.435 97.96 873.345C97.72 873.115 97.45 873.155 97.18 873.415C96 874.545 96.17 876.416 94.94 877.516C94.94 876.406 95 875.286 94.94 874.176C94.91 873.546 94.79 872.906 94.59 872.306C93.89 870.216 92.85 868.716 90.11 868.826C89.79 868.836 89.47 868.826 89.15 868.826L89.21 868.866C88.55 868.426 87.85 868.045 87.26 867.535C86.94 867.255 86.65 866.755 86.62 866.345C86.58 865.725 86.81 865.105 86.9 864.475C86.98 863.825 86.84 863.215 86.5 862.655C86.42 862.525 86.32 862.386 86.2 862.296C85.89 862.076 85.62 862.155 85.46 862.535C84.96 863.695 84.48 864.865 83.97 866.025C83.74 866.555 82.67 866.506 82.34 865.926C82.04 865.386 81.73 864.815 81.57 864.225C81.36 863.445 81.15 862.696 80.53 862.136C80.57 861.166 80.4 860.236 80.09 859.316C79.42 857.346 78.8 855.366 78.18 853.386C78 852.826 78.19 852.195 78.52 852.095C79.03 851.935 79.45 852.166 79.85 852.426C80.64 852.956 81.4 853.536 82.22 854.006C82.43 854.126 82.84 853.986 83.13 853.876C83.56 853.706 83.85 853.036 83.62 852.676C82.56 850.966 82.41 849.086 82.43 847.146C82.46 844.746 82.41 842.346 82.43 839.946C82.44 838.326 82.13 836.786 81.67 835.236C80.66 831.846 79.22 828.646 77.64 825.496C77.36 824.936 77.07 824.336 77.29 823.676C77.33 823.546 77.51 823.365 77.63 823.355C79.4 823.335 81.16 823.586 82.65 824.566C84.12 825.536 85.35 826.826 86.23 828.386C87.01 829.786 87.69 831.225 88.11 832.785C88.81 835.415 89.56 838.026 90.28 840.646C90.71 842.216 91.38 843.666 92.53 844.826C94.25 846.536 95.53 848.566 96.83 850.576C97.62 851.796 98.51 852.965 99.73 853.725C101.79 855.015 103.49 856.686 105.19 858.386C105.4 858.596 105.74 858.696 106.03 858.796C106.15 858.836 106.35 858.786 106.46 858.696C106.58 858.616 106.72 858.446 106.71 858.316C106.59 856.526 105.84 854.926 105.1 853.336C104.91 852.926 104.5 852.595 104.13 852.285C103.21 851.525 102.69 850.566 102.69 849.376C102.69 845.536 102.74 841.706 102.78 837.866C102.78 837.476 103.02 837.266 103.32 837.316C103.45 837.336 103.6 837.466 103.69 837.576C104.62 838.756 104.33 840.375 105.12 841.595C105.27 841.825 105.62 841.946 105.91 842.056C106.01 842.096 106.23 841.956 106.31 841.836C106.57 841.446 106.88 841.045 107.02 840.605C107.21 840.005 107.33 839.355 107.36 838.725C107.42 837.445 107.42 836.166 107.42 834.886C107.42 832.486 107.49 830.086 107.38 827.686C107.22 823.956 108.21 820.406 108.93 816.806C109.18 815.556 109.54 814.326 109.84 813.076C109.99 812.456 110.22 811.826 110.2 811.196C110.13 808.126 111.29 805.226 111.41 802.186C111.41 802.026 111.48 801.875 111.51 801.715C111.67 800.925 112.41 800.176 113.11 800.146C113.82 800.106 114.33 800.496 114.69 801.046C116.22 803.366 117.17 805.846 117.04 808.696C116.93 810.926 117.16 813.176 116.49 815.366C116.06 816.776 116.07 818.206 116.49 819.626C116.91 821.026 117.05 822.446 116.9 823.896C116.76 825.216 116.24 826.366 115.23 827.246C114.27 828.086 113.25 828.866 112.34 829.756C111.61 830.476 111.41 831.415 111.76 832.415C111.97 833.015 112.22 833.606 112.49 834.186C112.72 834.686 113.62 834.905 114.19 834.665C115.09 834.265 115.85 833.726 116.33 832.826C117.16 831.276 118 829.726 118.84 828.186C119.38 827.206 119.95 826.245 120.49 825.275C120.71 824.885 120.41 824.446 119.81 824.266C119.66 824.226 119.49 824.236 119.33 824.206C118.6 824.086 118.19 823.626 118.15 822.926C118.1 821.976 117.97 820.966 118.21 820.076C118.98 817.246 118.92 814.376 118.91 811.496C118.91 809.056 119.45 806.755 120.36 804.525C120.41 804.405 120.58 804.296 120.72 804.266C121.06 804.196 121.34 804.356 121.48 804.696C121.96 805.866 121.69 807.266 122.62 808.306C123.41 809.196 124.61 809.286 125.55 809.886C126.22 810.316 126.85 810.875 127.58 811.155C130 812.085 130.95 814.046 131.19 816.366C131.39 818.266 131.37 820.195 131.26 822.105C131.17 823.735 130.47 825.316 129.38 826.446C127.63 828.266 127.39 830.356 127.53 832.646C127.55 832.966 127.55 833.285 127.54 833.605C127.5 835.235 127.85 836.776 128.6 838.236C129.26 839.516 129.87 840.815 130.52 842.105C131.05 843.155 131.14 844.215 130.75 845.355C130.49 846.105 130.33 846.896 130.18 847.686C130.12 847.986 130.15 848.346 130.27 848.616C130.88 849.906 131.52 851.196 132.21 852.446C132.33 852.656 132.75 852.785 133.04 852.785C133.85 852.795 134.81 852.086 134.85 851.486C134.88 851.006 134.76 850.506 134.87 850.056C135.31 848.226 134.83 846.616 133.96 845.006C132.82 842.896 131.78 840.736 130.73 838.576C130.46 838.006 130.26 837.386 130.15 836.766C130.11 836.516 130.34 836.136 130.56 835.956C130.78 835.776 131.18 835.645 131.42 835.715C131.86 835.855 132.26 836.145 132.65 836.405C133.28 836.825 133.9 836.716 134.42 836.306C135.17 835.706 135.86 835.046 136.54 834.366C139.16 831.786 141.77 829.185 144.39 826.605C144.84 826.155 145.34 825.755 145.83 825.345C146.24 824.995 147.32 825.326 147.46 825.826C147.5 825.976 147.6 826.125 147.6 826.285C147.7 828.775 148.87 830.866 149.98 833.006C150.61 834.226 151.42 835.076 152.85 835.246C153.8 835.356 154.74 835.546 155.68 835.736C157.5 836.086 158.53 837.996 157.85 839.806C157.51 840.706 157.07 841.556 156.74 842.456C156.4 843.376 156.37 844.315 156.6 845.285C156.82 846.235 158.02 846.736 158.88 846.296C159.93 845.766 160.5 844.775 161.26 843.975C161.58 843.635 162.31 843.735 162.48 844.165C162.72 844.755 162.88 845.366 163.12 845.946C163.23 846.206 163.44 846.416 163.61 846.646C163.8 846.406 163.99 846.155 164.17 845.915C164.45 845.545 164.71 845.146 165.02 844.796C165.09 844.716 165.34 844.726 165.46 844.796C165.59 844.856 165.72 845.015 165.76 845.155C165.97 845.955 165.78 846.736 165.55 847.506C165.22 848.586 164.94 849.676 165.15 850.806C165.2 851.086 165.38 851.446 165.61 851.566C165.91 851.726 166.25 851.506 166.4 851.176C166.59 850.736 166.79 850.296 166.9 849.836C167.57 847.206 168.2 844.556 168.86 841.926C168.98 841.466 169.14 841.016 169.29 840.556C169.49 839.966 170.23 839.446 170.75 839.546C171.24 839.646 171.65 839.906 171.83 840.376C172.11 841.116 172.4 841.866 172.56 842.636C172.75 843.566 172.8 844.525 172.94 845.475C172.96 845.615 173.12 845.836 173.22 845.836C173.52 845.836 173.88 845.856 174.11 845.696C175.61 844.666 176.39 843.066 177.29 841.556C177.67 840.926 177.79 840.936 178.59 841.736C178.88 842.026 179.16 842.096 179.38 841.766C180.59 839.976 180.48 838.176 179.41 836.366C179.19 835.986 178.42 835.896 178.19 836.256C177.42 837.456 176.67 838.676 175.87 839.866C175.67 840.166 175.33 840.196 175.08 839.986C174.97 839.896 174.87 839.706 174.89 839.586C175.01 838.966 175.08 838.326 175.33 837.746C176.59 834.776 178.53 832.226 180.43 829.646C180.8 829.136 181.62 829.216 182.07 829.806C182.55 830.446 183.07 831.066 183.43 831.766C184.55 833.886 185.7 835.996 186.37 838.316C186.5 838.766 186.78 839.175 186.99 839.605C187.35 840.345 188.33 840.485 189.02 839.855C189.36 839.535 189.66 839.146 189.9 838.746C190.1 838.406 190.29 838.215 190.58 838.345C190.69 838.395 190.8 838.606 190.8 838.746C190.91 840.656 191.01 842.565 191.12 844.475C191.12 844.615 191.29 844.855 191.38 844.855C191.67 844.855 192 844.826 192.25 844.696C192.65 844.476 192.97 844.115 193.37 843.905C193.44 843.875 193.75 844.346 193.96 844.576C194.06 844.686 194.2 844.825 194.33 844.845C194.46 844.865 194.66 844.775 194.74 844.665C195.6 843.515 196.43 842.346 197.28 841.186C197.58 840.776 198.3 840.715 198.53 841.095C199.1 842.055 199.63 843.045 200.24 843.975C200.49 844.365 200.92 844.646 201.28 844.956C201.57 845.206 202.36 845.206 202.64 844.956C203.35 844.316 204.04 843.645 204.76 843.025C205.48 842.395 206.2 841.755 206.99 841.215C208.1 840.455 209.29 840.236 210.63 840.696C212.45 841.316 214.28 841.925 215.83 843.095C216.16 843.345 216.36 843.866 216.46 844.306C216.51 844.536 216.25 844.866 216.07 845.116C216.01 845.206 215.73 845.246 215.63 845.176C214.97 844.736 214.35 844.236 213.67 843.816C212.84 843.306 211.92 842.966 210.95 843.016C210.17 843.056 209.31 843.116 208.63 843.456C206.92 844.316 205.27 845.306 203.63 846.296C202.94 846.706 202.35 847.255 202.03 848.035C201.97 848.175 201.93 848.356 201.97 848.496C202.06 848.816 202.32 848.976 202.68 848.946C204.78 848.786 206.7 847.965 208.66 847.275C209.2 847.085 209.95 847.756 209.91 848.376C209.89 848.696 209.84 849.006 209.79 849.326C209.77 849.486 209.73 849.636 209.68 849.796C209.36 850.806 209.77 851.676 210.17 852.556C209.33 852.996 208.47 853.416 207.64 853.876C207.37 854.026 207.1 854.256 206.95 854.516C206.14 855.896 205.55 857.356 205.6 858.986C205.6 859.106 205.78 859.266 205.91 859.326C206.04 859.386 206.24 859.386 206.36 859.326C207.82 858.496 208.39 856.936 209.34 855.686C210.05 854.756 210.18 853.656 210.13 852.516C210.73 851.936 210.98 851.206 211.1 850.396C211.22 849.616 211.43 848.846 211.65 848.086C211.8 847.586 212.74 847.085 213.21 847.215C213.86 847.385 214.38 847.756 214.53 848.436C215.02 850.646 214.96 852.876 214.46 855.076C214.24 856.026 213.7 856.805 212.47 856.785C211.87 856.785 211.51 857.276 211.58 857.676C211.83 859.086 212.07 860.496 212.36 861.886C212.43 862.236 212.8 862.395 213.14 862.225C213.71 861.935 214.23 861.566 214.78 861.246C215.78 860.676 216.53 859.875 217.06 858.855C217.57 857.865 218.12 856.885 218.65 855.905C218.84 855.545 219.09 855.416 219.31 855.586C219.4 855.666 219.46 855.886 219.42 856.006C219.12 856.906 218.8 857.806 218.48 858.696C218.26 859.306 218.03 859.946 218.44 860.516C218.7 860.886 219.16 861.116 219.54 861.386C219.85 861.606 220.02 861.886 219.84 862.196C219.05 863.576 218.21 864.926 217.43 866.316C217.31 866.536 217.37 866.966 217.51 867.186C217.66 867.406 218.02 867.506 218.31 867.616C218.45 867.666 218.63 867.645 218.78 867.605C220.82 867.085 222.67 866.195 224.25 864.785C224.84 864.255 225.43 863.706 225.96 863.116C228.32 860.476 231.11 858.356 233.92 856.256C234.03 856.166 234.26 856.115 234.37 856.165C234.7 856.325 234.82 856.646 234.66 856.986C233.77 858.856 232.85 860.716 231.94 862.576C230.94 864.626 229.54 866.336 227.65 867.636C226.06 868.726 224.61 869.955 223.41 871.475C222.82 872.225 222.91 873.376 223.7 874.046C224.06 874.346 224.48 874.596 224.91 874.796C225.64 875.146 226.67 874.965 227.12 874.415C228.02 873.305 228.86 872.126 229.8 871.056C230.75 869.976 231.84 869.046 233.33 868.706C234.03 868.546 234.38 868.535 234.89 869.355C235.35 870.095 235.93 870.546 236.76 870.686C237.23 870.766 237.71 870.755 238.19 870.785C240.33 870.915 240.76 871.716 239.7 873.426C238.27 875.716 236.91 878.066 236.26 880.736C236.18 881.076 236.4 881.356 236.73 881.436C236.87 881.476 237.08 881.435 237.18 881.345C237.55 881.045 237.96 880.756 238.21 880.366C238.81 879.426 239.36 878.455 239.88 877.465C240.77 875.765 241.61 874.045 242.49 872.345C243.23 870.905 244.16 869.625 245.64 868.855L245.62 868.826C245.65 870.426 245.66 872.026 245.73 873.626C245.77 874.596 246.05 875.506 246.6 876.326C246.84 876.676 247.52 876.756 247.87 876.496C248.8 875.796 249.33 874.816 249.85 873.826C250.45 872.696 250.95 871.486 252.07 870.766C252.27 870.636 252.81 870.645 252.89 870.785C253.3 871.455 253.57 872.216 253.98 872.886C254.22 873.266 254.62 873.546 254.95 873.876C256.69 873.516 257.35 875.315 258.7 875.725C258.85 875.775 259.03 875.815 259.17 875.775C259.52 875.675 259.71 875.396 259.61 875.056C259.48 874.596 259.34 874.125 259.1 873.725C258.13 872.155 258.43 870.696 259.36 869.236C259.78 868.576 260.12 867.855 260.47 867.155C260.65 866.805 260.05 866.215 259.59 866.225C258.92 866.235 258.3 866.405 257.83 866.855C256.91 867.735 256.06 868.685 255.16 869.595C255.06 869.695 254.75 869.766 254.73 869.736C254.58 869.466 254.39 869.186 254.37 868.896C254.23 867.056 254.82 865.426 255.95 863.996C256.74 862.996 257.59 862.036 258.39 861.046C258.69 860.676 258.65 859.616 258.34 859.206C256.96 857.436 255.45 855.766 253.6 854.496C251.24 852.876 248.95 851.125 246.28 849.965C245.42 849.595 244.62 848.985 243.92 848.345C240.1 844.845 237.02 840.856 235.14 835.936C233.6 831.906 231.75 827.995 230.05 824.035C229.9 823.685 230.03 823.395 230.39 823.275C230.52 823.235 230.73 823.275 230.85 823.345C234.26 825.435 237.62 827.575 240.44 830.465C240.7 830.725 241.05 830.675 241.27 830.415C241.36 830.315 241.43 830.096 241.37 829.996C239.74 826.896 238.09 823.796 236.43 820.696C235.44 818.846 234.79 816.876 234.44 814.816C234.36 814.376 234.51 813.866 234.69 813.436C234.79 813.196 235.16 813.045 235.43 812.915C235.53 812.865 235.77 812.966 235.85 813.066C237.22 814.826 238.61 816.566 239.92 818.376C241.23 820.186 242.47 822.045 244.06 823.655C245.06 824.665 245.89 825.856 246.81 826.956C246.9 827.056 247.1 827.115 247.24 827.095C247.61 827.055 247.76 826.806 247.62 826.446C247.5 826.156 247.28 825.895 247.19 825.595C246.69 824.085 246.28 822.546 245.72 821.056C245.15 819.566 244.29 818.175 243.81 816.665C242.8 813.465 241.9 810.236 241.06 806.986C240.82 806.086 240.9 805.086 240.92 804.136C240.92 803.916 241.24 803.676 241.46 803.506C241.53 803.446 241.8 803.526 241.88 803.626C243.78 805.976 245.67 808.346 247.57 810.706C247.94 811.166 248.55 811.475 248.79 811.355C249.26 811.115 249.42 810.676 249.58 810.236C250.25 808.266 250.89 806.315 252.38 804.725C252.88 804.185 253.11 803.306 253.26 802.546C253.55 801.036 254.41 799.935 255.52 798.975C257.16 797.565 258.95 796.686 261.23 797.266C262.06 797.476 262.65 796.796 262.73 795.836C262.74 795.676 262.77 795.515 262.77 795.355C262.79 790.075 262.81 784.796 262.8 779.516C262.8 778.726 262.69 777.916 262.5 777.146C262.14 775.736 262.07 774.306 261.89 772.886C261.58 770.516 261.09 768.166 260.67 765.806C260.17 762.976 259.65 760.156 259.18 757.326C259.1 756.876 259.21 756.375 259.31 755.905C259.39 755.525 259.8 755.286 260.05 755.506C262.11 757.356 264.77 758.146 267.09 759.516C267.27 759.626 267.67 759.356 267.97 759.246C268.49 759.066 268.92 759.245 269.26 759.605C270.4 760.785 271.13 762.195 271.48 763.785C271.85 765.505 272.19 767.226 272.53 768.946C272.74 769.986 272.82 770.056 274.14 769.876C274.77 769.786 275.23 770.076 275.11 770.496C274.24 773.466 274.4 776.505 274.43 779.535C274.44 781.145 274.65 782.716 275.2 784.246C275.79 785.906 276.31 787.585 276.95 789.215C277.17 789.785 277.58 790.346 278.05 790.756C278.64 791.276 279.36 791.706 280.23 791.506C280.97 791.336 281.71 790.176 281.7 789.236C281.7 789.076 281.73 788.906 281.7 788.756C280.89 785.506 282.28 782.816 283.94 780.236C284.71 779.036 285.69 777.955 286.59 776.845C286.81 776.575 287.15 776.566 287.41 776.766C287.53 776.856 287.62 777.015 287.65 777.165C287.88 778.125 287.76 779.086 287.49 780.006C287.03 781.556 286.85 783.136 286.97 784.746C287.07 786.096 287.36 786.946 288.97 786.686C290.3 786.476 291.49 787.046 292.74 787.266C294.2 787.516 294.84 788.586 295.22 789.886C295.39 790.476 295.12 791.346 294.7 791.626C294.57 791.716 294.44 791.816 294.29 791.866C291.92 792.656 290.77 794.525 290.02 796.715C289.24 798.985 288.52 801.265 287.28 803.345C287.2 803.475 287.18 803.666 287.21 803.816C287.28 804.116 287.32 804.465 287.51 804.665C287.7 804.865 288.1 805.056 288.33 804.996C289.25 804.726 290.13 804.345 291.03 804.025C291.99 803.675 292.93 803.735 293.76 804.355C294.65 805.035 295.54 805.726 296.33 806.506C296.62 806.796 296.68 807.346 296.77 807.796C296.83 808.106 296.74 808.436 296.78 808.746C296.89 809.556 297.57 810.086 298.45 810.176C299.62 810.296 300.68 810.055 301.62 809.355C303.28 808.115 304.93 806.845 306.59 805.595C307.17 805.155 307.37 805.226 308.1 806.056C308.62 806.646 308.93 806.756 309.25 806.486C309.61 806.176 310 805.896 310.34 805.556C311.47 804.426 312.58 803.276 313.71 802.146C314.73 801.126 315.74 800.106 316.79 799.126C318.18 797.826 319.41 797.715 321.17 798.655C321.59 798.885 322 799.126 322.42 799.376C323.8 800.186 325.17 800.996 326.55 801.816C327.59 802.436 328.15 803.346 328.23 804.556C325.7 804.746 323.52 803.956 321.63 802.266C321.16 801.846 320.62 801.476 320.06 801.176C319.3 800.756 318.51 800.896 317.77 801.296C317.49 801.446 317.23 801.646 317.01 801.876C315.32 803.576 313.64 805.286 311.96 806.996C311.7 807.266 311.69 807.586 311.91 807.806C312 807.896 312.2 807.966 312.33 807.936C313.73 807.626 315.15 807.365 316.53 806.965C318.28 806.445 319.99 806.436 321.72 806.996C322.48 807.236 323.27 807.395 324.04 807.595C324.48 807.705 324.56 808.386 324.25 808.806C323.26 810.146 322.05 811.116 320.31 811.246C320.15 811.256 319.99 811.286 319.83 811.306C317.04 811.756 314.8 812.986 312.97 815.256C310.47 818.356 308.08 821.566 305.22 824.376C305.08 824.516 305.09 825.016 305.24 825.196C305.41 825.406 305.79 825.535 306.08 825.525C307.94 825.475 309.45 824.606 310.76 823.366C312.16 822.046 313.48 820.656 314.85 819.316C315.99 818.196 317.1 817.036 318.32 816.006C318.91 815.506 319.69 815.236 320.4 814.896C320.5 814.846 320.7 814.935 320.81 815.025C320.91 815.115 321.04 815.305 321.01 815.405C320.49 817.455 319.52 819.255 318.12 820.845C317.49 821.565 316.88 822.295 316.27 823.035C315.97 823.395 316.21 823.866 316.78 824.066C318.17 824.566 318.47 824.896 318.44 825.926C318.35 829.386 317.35 830.826 314.16 832.076C313.27 832.426 312.32 832.665 311.48 833.105C310.64 833.545 309.87 834.136 309.14 834.736C308.78 835.026 308.57 835.496 308.3 835.886C308.07 836.226 308.16 837.036 308.47 837.186C308.74 837.316 309.1 837.495 309.34 837.415C312.23 836.485 315.16 835.656 317.96 834.516C320.19 833.606 322.45 832.855 324.77 832.225C325.06 832.145 325.32 831.916 325.59 831.756C325.91 831.576 326.13 830.915 326.04 830.475C325.9 829.795 325.51 829.266 324.9 829.046C324 828.736 323.05 828.575 322.13 828.345C321.14 828.095 320.54 827.185 320.73 826.165C321.24 823.495 321.89 820.856 322.88 818.316C323.46 816.826 324.09 815.356 324.66 813.866C325.23 812.376 325.96 810.916 326.27 809.366C326.59 807.736 327.87 806.585 328.12 804.975C328.14 804.815 328.17 804.656 328.19 804.506C328.57 804.226 329 803.986 329.33 803.646C329.84 803.116 329.9 802.356 329.55 801.886C329.27 801.506 329.02 801.076 328.68 800.746C326.4 798.516 324.35 796.036 321.59 794.316C320.92 793.896 320.36 793.295 319.8 792.725C318.66 791.595 317.42 790.596 316.1 789.686C315.46 789.246 314.95 788.595 314.47 787.975C314.31 787.775 314.29 787.326 314.41 787.086C314.53 786.846 314.87 786.656 315.16 786.576C315.45 786.496 315.83 786.496 316.09 786.616C316.96 787.016 317.86 787.386 318.63 787.936C321.22 789.806 323.83 791.666 326.29 793.686C328.01 795.106 329.55 796.746 331.1 798.366C332.28 799.596 332.84 801.026 331.87 802.696C331.68 803.026 332.39 803.525 332.85 803.405C333 803.365 333.17 803.356 333.32 803.316C334.07 803.116 334.66 802.236 335.48 802.556C336.03 802.766 336.41 803.385 336.9 803.785C337.38 804.175 338.29 804.205 338.7 803.855C339.77 802.895 340.82 801.926 341.88 800.946C342.76 800.126 343.79 799.816 344.97 800.076C345.9 800.276 346.81 800.696 347.79 800.486C348.05 800.426 348.41 800.185 348.46 799.965C348.52 799.715 348.36 799.336 348.17 799.116C347.63 798.506 346.93 798.136 346.13 797.936C344.59 797.536 342.8 798.125 341.46 797.155C340.19 796.235 339.17 794.956 338.04 793.836C337.93 793.726 337.77 793.666 337.64 793.576C337.33 793.376 337.03 793.366 336.81 793.616C336.73 793.706 336.71 793.935 336.77 794.025C337.29 794.825 337.86 795.585 338.36 796.405C338.78 797.085 338.46 798.195 337.77 798.465C337.03 798.765 336.28 799.066 335.5 799.196C335.09 799.266 334.46 799.106 334.21 798.816C332.87 797.236 331.53 795.656 330.42 793.876C329.24 791.976 327.9 790.185 326.3 788.595C325.29 787.585 324.53 786.335 323.64 785.215C322.82 784.165 321.76 783.496 320.42 783.326C320.17 783.076 319.92 782.826 319.68 782.586C319.94 782.186 320.16 781.755 320.48 781.415C320.81 781.055 321.36 780.746 321.77 780.996C325.07 783.056 328.8 784.005 332.4 785.285C333.45 785.665 334.47 786.126 335.51 786.546C335.94 786.716 336.51 787.066 336.82 786.706C337.35 786.076 336.65 785.565 336.33 785.095C334.28 782.045 332.19 779.026 330.12 775.986C329.91 775.676 329.99 775.365 330.28 775.165C330.4 775.085 330.58 775.005 330.71 775.025C333.1 775.375 335.32 776.306 337.51 777.246C338.35 777.606 339.04 778.386 339.73 779.046C341.22 780.496 342.71 781.946 344.11 783.486C345.5 785.016 346.78 786.645 348.12 788.225C348.21 788.325 348.42 788.396 348.56 788.366C348.92 788.306 349.05 788.045 348.95 787.665C348.91 787.515 348.87 787.355 348.8 787.215C348.59 786.785 348.42 786.316 348.13 785.946C346.23 783.576 344.39 781.155 342.37 778.905C340.34 776.655 338.17 774.516 335.94 772.446C334.31 770.926 332.57 769.485 330.74 768.215C326.15 765.015 321.51 761.886 316.17 759.996C314.36 759.356 312.6 758.585 310.83 757.845C310.56 757.735 310.35 757.466 310.15 757.236C310.1 757.176 310.15 756.946 310.22 756.866C310.32 756.756 310.49 756.646 310.62 756.646C311.89 756.666 313.21 756.516 314.43 756.766C318.19 757.546 321.9 758.505 325.33 760.355C328.15 761.865 331.06 763.176 333.71 765.016C337.54 767.666 341.21 770.525 344.19 774.105C346.74 777.165 349.35 780.206 351.44 783.636C352.01 784.576 352.8 785.376 353.5 786.236C353.52 786.256 353.82 786.136 353.83 786.056C353.88 785.756 353.94 785.406 353.85 785.136C352.53 781.026 351.29 776.895 349.45 772.965C348.17 770.215 347.12 767.355 345.72 764.655C342.78 758.975 339.57 753.446 336.22 747.996C334.55 745.286 332.5 742.805 330.62 740.215C330.34 739.825 330.05 739.446 329.77 739.056C329.56 738.746 329.57 738.435 329.83 738.225C329.92 738.155 330.15 738.155 330.25 738.225C330.63 738.505 331.06 738.766 331.35 739.136C334.66 743.436 338.26 747.516 341.24 752.076C346.95 760.816 351.76 769.995 355.07 779.915C355.32 780.665 355.68 781.385 356.02 782.105C356.07 782.225 356.26 782.335 356.4 782.345C356.7 782.365 356.9 782.136 356.93 781.756C357.12 779.356 357.04 776.985 356.5 774.605C355.97 772.275 355.57 769.905 355.28 767.525C354.58 761.805 353.42 756.186 351.97 750.616C351.77 749.846 351.44 749.056 351.7 748.266C352.23 746.606 351.74 745.146 351.09 743.646C350.27 741.746 349.58 739.776 348.85 737.836C348.81 737.716 348.85 737.505 348.94 737.415C349.16 737.185 349.46 737.226 349.74 737.486C349.97 737.706 350.24 737.905 350.41 738.165C353.58 742.985 356.3 748.056 358.6 753.336C359.17 754.656 359.67 756.006 360.23 757.336C361.85 761.196 362.82 765.226 363.49 769.336C363.69 770.586 363.69 771.885 363.7 773.165C363.73 777.805 363.72 782.446 363.75 787.086C363.75 788.526 363.81 789.956 363.87 791.396C363.87 791.536 363.98 791.756 364.09 791.796C364.36 791.896 364.55 791.696 364.64 791.306C364.71 790.996 364.77 790.676 364.86 790.376C366.58 783.946 366.63 783.946 366.62 777.626C366.62 774.256 366.86 770.936 367.52 767.626C367.84 766.026 368.29 764.536 369.21 763.196C369.85 762.276 370.45 761.326 371.11 760.426C371.39 760.046 371.78 759.745 372.13 759.415C372.56 759.005 373.56 759.236 373.75 759.796C373.9 760.246 374.12 760.695 374.16 761.155C374.25 762.105 374.27 763.075 374.27 764.025C374.26 766.425 374.31 768.805 375.02 771.155C375.34 772.205 375.33 773.355 375.49 774.465C375.51 774.605 375.68 774.836 375.77 774.826C376.06 774.796 376.45 774.775 376.62 774.595C377.06 774.135 377.37 773.566 377.78 773.076C378.11 772.676 378.56 772.526 379.03 772.826C379.68 773.236 380.22 773.075 380.73 772.595C380.85 772.485 380.97 772.376 381.06 772.256C382.02 770.976 383 769.716 383.91 768.396C384.26 767.886 384.65 767.256 384.68 766.676C384.77 764.486 385.89 762.746 386.93 760.946C387.16 760.546 387.23 760.046 387.32 759.586C387.34 759.506 387.1 759.265 387.01 759.285C385.81 759.515 385.29 760.645 384.38 761.275C384 761.535 383.55 761.696 383.12 761.866C383.05 761.896 382.81 761.695 382.8 761.595C382.78 761.295 382.78 760.976 382.86 760.686C383.73 757.726 385.47 755.226 387.12 752.676C387.27 752.446 387.23 752.085 387.25 751.785C387.27 751.465 386.47 751.426 385.96 751.736C385.41 752.066 384.86 752.386 384.34 752.756C382.77 753.856 381.22 754.976 379.65 756.076C379.54 756.156 379.31 756.186 379.19 756.136C378.84 755.966 378.78 755.655 379.05 755.345C384.54 748.865 391.26 744.176 399.16 741.046C402.45 739.746 405.85 738.896 409.2 737.826C409.8 737.636 410.46 737.456 411.08 737.486C414.46 737.656 417.69 736.236 421.08 736.566C421.4 736.596 421.74 736.616 422.01 736.766C422.27 736.896 422.55 737.155 422.63 737.415C422.7 737.675 422.63 738.125 422.45 738.275C420.84 739.585 419.21 740.875 417.54 742.105C413.92 744.785 410.8 748.015 407.89 751.415C406.24 753.345 404.86 755.536 404.06 758.016C403.62 759.376 403.05 760.696 402.56 762.046C402.53 762.136 402.67 762.355 402.78 762.405C402.89 762.465 403.13 762.445 403.2 762.355C405.02 760.135 406.83 757.906 408.64 755.686C408.73 755.576 408.94 755.476 409.06 755.506C409.42 755.586 409.54 755.886 409.37 756.256C408.7 757.706 408 759.145 407.34 760.605C405.61 764.395 404.31 768.336 403.36 772.386C403.33 772.496 403.45 772.705 403.56 772.775C403.64 772.825 403.89 772.786 403.94 772.706C404.29 772.176 404.67 771.656 404.92 771.076C406.25 767.996 407.51 764.886 408.88 761.816C410.05 759.186 411.33 756.606 412.58 754.016C413.22 752.696 414.16 751.596 415.24 750.646C417.07 749.036 418.47 747.116 419.75 745.076C422.45 740.766 426.2 737.586 430.63 735.176C431.75 734.566 432.93 733.976 434.15 733.696C436.96 733.066 439.61 731.875 442.5 731.525C445.2 731.195 447.65 729.786 450.4 729.546C451.17 729.476 451.92 728.635 451.93 727.915C451.97 725.205 451.98 722.485 451.95 719.775C451.95 719.545 451.64 719.156 451.42 719.126C451.18 719.086 450.76 719.286 450.64 719.506C450.18 720.346 449.86 721.255 449.39 722.095C448.77 723.215 448.08 724.296 447.41 725.386C446.84 726.306 446.09 726.555 444.93 726.165C444.17 725.915 443.34 725.746 442.71 725.296C439.71 723.176 436.69 721.065 434.3 718.215C433.68 717.475 433.15 716.686 432.84 715.756C432.25 713.966 431.01 712.786 429.31 712.066C427.02 711.106 425.23 709.506 423.86 707.496C422.33 705.246 421.08 702.826 420.42 700.146C420.04 698.596 419.64 697.046 419.24 695.496C419.13 695.076 418.39 694.856 418.05 695.136C415.9 696.856 414.06 698.826 412.93 701.376C411.05 705.636 408.63 709.595 405.91 713.355C403.46 716.745 400.63 719.765 396.88 721.785C395.62 722.465 394.41 723.256 393.21 724.066C390.76 725.716 388.88 727.825 387.86 730.655C387.48 731.705 387.07 732.756 386.56 733.746C385.61 735.606 384.86 737.535 384.24 739.525C382.32 745.715 379.06 751.186 375.21 756.336C375.13 756.446 374.93 756.456 374.79 756.516C374.71 756.226 374.51 755.906 374.56 755.636C375 753.446 375.5 751.266 375.95 749.076C376.08 748.456 376.11 747.816 376.14 747.176C376.17 746.506 375.9 745.916 375.47 745.426C375.16 745.076 374.75 744.796 374.37 744.506C372.45 743.056 371.58 741.055 371.41 738.715C371.35 737.915 371.35 737.116 371.34 736.316C371.34 734.876 371.42 733.436 371.34 731.996C370.95 725.666 373.19 720.065 376.12 714.665C376.5 713.965 376.93 713.266 377.48 712.696C379.35 710.726 381.24 708.766 383.21 706.896C384.13 706.016 385.19 705.266 386.54 705.146C386.65 705.136 386.84 705.285 386.89 705.405C386.95 705.525 386.94 705.735 386.87 705.845C386.2 706.935 385.5 708.006 384.82 709.086C381.89 713.716 379.72 718.676 378.38 723.986C378.32 724.236 378.45 724.636 378.63 724.836C378.83 725.056 379.21 724.966 379.43 724.676C380.19 723.646 380.93 722.606 381.67 721.566C382.14 720.896 382.73 720.366 383.51 720.086C384.82 719.626 385.52 718.586 386.16 717.446C386.94 716.066 387.4 714.485 388.59 713.345C388.69 713.255 388.91 713.235 389.05 713.275C389.18 713.315 389.35 713.465 389.36 713.595C389.42 714.065 389.51 714.546 389.44 714.996C389.32 715.786 389.04 716.546 388.92 717.336C388.88 717.606 389.02 718.005 389.23 718.165C389.37 718.275 389.88 718.136 390.01 717.956C390.48 717.316 390.89 716.626 391.27 715.926C391.8 714.916 392.43 714.016 393.45 713.436C394.61 712.766 395.31 711.706 395.89 710.556C396.47 709.416 397.09 708.286 397.61 707.126C399.2 703.606 401.38 700.446 403.62 697.326C403.84 697.016 404.21 696.856 404.37 697.066C404.52 697.246 404.53 697.665 404.43 697.915C404 698.945 403.52 699.955 403.04 700.975C402.21 702.735 401.86 704.616 401.57 706.516C401.55 706.666 401.59 706.836 401.63 706.986C401.76 707.486 402.07 707.826 402.54 708.006C403.02 708.196 403.49 708.115 403.9 707.845C404.16 707.675 404.41 707.446 404.58 707.186C406.47 704.406 408.36 701.636 410.21 698.826C410.74 698.026 411.19 697.166 411.58 696.296C412.93 693.346 415.06 690.955 417.06 688.475C417.3 688.185 417.63 688.166 417.86 688.386C417.95 688.466 417.99 688.686 417.94 688.796C417.62 689.516 417.26 690.226 416.95 690.956C416.9 691.076 416.93 691.335 417.02 691.405C417.26 691.585 417.59 691.856 417.81 691.796C418.42 691.656 419.05 691.456 419.57 691.116C420.37 690.596 421.15 690.006 421.8 689.316C424.35 686.626 427.13 684.265 430.54 682.715C430.87 682.565 430.96 682.246 430.83 681.946C430.77 681.806 430.65 681.676 430.52 681.606C430.25 681.436 429.97 681.276 429.67 681.166C428.6 680.766 427.48 680.676 426.37 680.916C425.75 681.046 425.14 681.256 424.53 681.446C418.87 683.176 413.1 684.466 407.28 685.566C405.4 685.916 403.49 686.205 401.63 686.655C400.08 687.035 398.57 687.576 397.06 688.106C395.85 688.526 394.67 689.025 393.5 689.535C390.08 691.015 387.01 692.966 384.79 696.076C384.05 697.116 383.17 698.046 382.3 698.986C380.99 700.396 379.66 701.766 378.61 703.396C377.9 704.486 376.94 705.305 375.72 705.845C374.82 706.245 373.66 705.696 373.47 704.756C373.28 703.796 373.23 702.825 373.53 701.905C374.06 700.235 374.62 698.566 375.31 696.946C376 695.336 376.92 693.815 377.65 692.215C378.79 689.715 380.27 687.466 382.34 685.626C383.54 684.556 384.54 683.306 385.24 681.836C386.44 679.316 388.4 677.435 390.52 675.715C390.75 675.525 391.13 675.376 391.39 675.436C391.63 675.486 391.84 675.826 391.99 676.086C392.28 676.576 392.74 676.735 393.18 676.525C394.62 675.825 396.07 675.136 397.42 674.296C399.66 672.906 402.06 672.206 404.68 672.146C406.12 672.116 407.56 672.056 408.99 671.986C409.13 671.986 409.32 671.895 409.39 671.775C409.54 671.535 409.37 671.346 408.96 671.256C407.42 670.916 405.74 671.396 404.29 670.506C404.17 670.436 404.07 670.286 404.01 670.146C403.88 669.806 404.01 669.536 404.4 669.416C404.7 669.326 405.03 669.276 405.34 669.256C405.98 669.216 406.62 669.186 407.26 669.186C412.38 669.216 417.5 669.266 422.62 669.306C423.1 669.306 423.59 669.276 424.06 669.366C426.72 669.926 429.46 670.036 432.11 670.546C434.17 670.946 436.22 671.116 438.3 671.136C440.7 671.156 443.11 671.106 445.43 671.866C445.58 671.916 445.74 671.946 445.9 671.956C449.29 672.046 452.54 672.876 455.78 673.766C456.09 673.846 456.41 673.855 456.73 673.905C457.19 673.975 457.95 673.656 457.92 673.366C457.89 673.066 457.84 672.676 457.64 672.496C456.82 671.746 456.03 670.886 455.07 670.366C452.27 668.826 449.43 667.346 446.52 666.006C444.03 664.866 441.38 664.316 438.6 664.396C435.4 664.486 432.2 664.396 429 664.396C427.24 664.396 425.48 664.326 423.77 663.826C423.16 663.646 422.51 663.526 421.88 663.516C417.8 663.466 414.06 661.945 410.27 660.725C407.08 659.685 404 658.326 401.04 656.706C400.2 656.246 399.33 655.826 398.45 655.456C397.87 655.216 397.24 654.996 396.62 654.926C392.58 654.476 388.64 654.955 384.82 656.345C383.44 656.845 382.27 657.705 381.29 658.775C379.33 660.915 376.98 662.586 374.69 664.326C371.5 666.756 368.09 668.896 364.25 670.116C361.34 671.036 359.24 672.866 357.46 675.196C356.2 676.846 354.98 678.526 353.74 680.196C353.15 680.986 352.41 681.556 351.49 681.926C350.56 682.306 349.47 681.506 349.55 680.486C349.58 680.166 349.53 679.835 349.62 679.535C350.69 675.675 351.94 671.885 354.23 668.525C355.22 667.075 356.07 665.526 356.92 663.986C357.46 663.006 357.87 661.966 358.32 660.946C359.54 658.156 360.9 655.446 362.68 652.956C363.53 651.766 364.51 650.766 365.73 649.946C367.58 648.696 369.38 647.365 371.23 646.095C371.62 645.825 372.06 645.586 372.52 645.486C376.27 644.666 380.03 643.916 383.77 643.086C385.04 642.806 386.27 642.736 387.56 643.016C389.12 643.346 390.73 643.466 392.3 642.956C392.66 642.836 392.82 642.556 392.73 642.196C392.7 642.056 392.57 641.936 392.46 641.836C392.35 641.736 392.21 641.656 392.06 641.586C391.92 641.516 391.76 641.466 391.61 641.426C388.03 640.566 384.51 639.496 381.01 638.366C377.09 637.106 373.11 637.056 369.23 638.436C364.25 640.216 359.02 641.096 354.01 642.766C353.26 643.016 352.45 643.146 351.66 643.196C347.97 643.406 344.39 644.276 340.83 645.166C337.22 646.066 333.94 647.686 331.21 650.306C330.18 651.296 329.01 652.146 327.9 653.066C327.28 653.576 326.64 654.056 326.05 654.586C324.24 656.186 322.62 657.916 321.56 660.146C321.16 660.996 320.52 661.736 319.92 662.486C319.62 662.866 319.15 663.036 318.64 662.956C318.28 662.896 318.01 662.245 318.13 661.775C318.5 660.215 318.99 658.686 319.86 657.326C322.89 652.626 326.02 647.986 329.47 643.566C329.89 643.026 330.49 643.065 331.01 643.655C331.22 643.895 331.39 644.156 331.62 644.366C331.71 644.446 331.94 644.446 332.06 644.386C332.35 644.266 332.65 644.126 332.88 643.916C335.37 641.646 338.07 639.666 340.86 637.796C342.45 636.726 343.98 635.586 345.45 634.336C347.39 632.696 349.36 631.036 351.88 630.296C351.99 630.266 352.19 630.386 352.26 630.486C352.33 630.586 352.35 630.786 352.3 630.896C351.94 631.646 351.27 632.106 350.59 632.516C349.19 633.356 348.16 634.516 347.2 635.836C346.17 637.246 344.88 638.476 343.73 639.796C343.1 640.516 342.52 641.285 342.38 642.275C342.36 642.405 342.45 642.576 342.54 642.676C342.64 642.776 342.81 642.886 342.93 642.866C344.21 642.696 345.41 642.246 346.52 641.606C348.18 640.646 349.83 639.655 351.46 638.655C353.64 637.315 355.84 636.005 357.97 634.595C359.7 633.455 361.36 632.195 363.03 630.965C364.11 630.165 365.3 629.826 366.62 629.856C367.26 629.876 367.9 629.855 368.54 629.845C367.69 630.855 366.5 631.356 365.35 631.886C362.69 633.136 360.63 635.086 358.84 637.356C358.76 637.466 358.7 637.736 358.77 637.796C358.97 637.996 359.27 638.306 359.46 638.266C360.23 638.106 361.02 637.926 361.71 637.566C364.09 636.296 366.38 634.825 368.81 633.655C371.39 632.415 374.1 631.476 376.61 630.086C377.03 629.856 377.43 629.606 377.82 629.336C377.95 629.256 378.06 629.105 378.11 628.965C378.17 628.825 378.2 628.636 378.14 628.506C378.08 628.376 377.91 628.216 377.79 628.206C377.16 628.186 376.51 628.116 375.91 628.246C373.43 628.786 371.01 629.616 368.47 629.876C369.08 629.116 369.94 628.726 370.78 628.296C371.27 628.046 372.04 628.136 372.15 627.326C371.61 626.886 370.97 626.985 370.35 626.965C369.41 626.935 368.47 626.946 367.52 626.946L367.56 626.986C367.82 626.796 368.05 626.516 368.33 626.436C371.89 625.456 375.51 624.946 379.21 625.056C381.14 625.116 383.04 625.186 384.86 625.926C385.3 626.106 385.78 626.206 386.23 626.366C387.93 626.966 389.69 627.146 391.43 626.706C394.11 626.026 396.82 626.106 399.54 626.076C401.14 626.066 402.74 626.126 404.29 626.586C405.98 627.086 407.84 626.746 409.45 627.556C411.06 628.366 412.1 629.846 413.37 631.056C414.89 632.506 416.7 633.546 418.46 634.626C420.5 635.886 422.61 637.036 424.66 638.266C425.48 638.756 426.29 639.285 427.01 639.905C430.15 642.625 433.37 645.256 436.75 647.666C440.53 650.356 444.5 652.746 448.81 654.516C450.44 655.186 452.05 655.886 453.72 656.446C457.29 657.636 460.31 659.686 462.92 662.336C465.18 664.626 467.88 666.356 470.29 668.446C470.49 668.616 470.89 668.595 471.19 668.595C471.56 668.595 471.98 668.056 472.03 667.566C472.08 667.086 472.13 666.616 472.16 666.136C472.18 665.816 472.16 665.496 472.18 665.176C472.25 664.276 472.03 663.125 473.6 663.465C474.04 663.155 474.04 662.656 474.17 662.206C474.21 662.066 474.27 661.876 474.38 661.806C474.66 661.636 474.88 661.806 474.88 662.246C474.92 664.966 474.95 667.676 474.99 670.396C475.01 671.386 475.25 672.296 475.99 673.006V1044.49C474.23 1044.46 472.47 1044.41 470.72 1044.41C313.92 1044.41 157.11 1044.41 0.31 1044.41C-1.13 1044.41 -2.57 1044.46 -4 1044.49C-4 959.056 -4 873.626 -4 788.196C-3.19 788.176 -2.43 787.976 -1.8 787.436C0.87 785.126 2.71 782.146 4.74 779.316C4.83 779.196 4.85 779.016 4.89 778.866C4.98 778.516 4.88 778.226 4.55 778.056C4.42 777.986 4.19 777.966 4.09 778.046C3.45 778.506 2.78 778.935 2.22 779.475C0.97 780.695 -0.22 781.975 -1.44 783.215C-2.14 783.925 -3 784.285 -3.99 784.355V775.715C-3.3 775.295 -2.67 774.816 -2.38 774.016C-2.11 773.276 -1.92 772.476 -1.52 771.806C-1.32 771.456 -0.76 771.176 -0.34 771.136C0.27 771.076 0.96 771.136 1.52 771.386C2.54 771.826 3.49 772.416 4.45 772.986C5.93 773.876 7.47 773.905 9.05 773.355C9.65 773.145 10.24 772.876 10.78 772.546C12.13 771.696 13.49 770.855 14.77 769.905C18.35 767.245 21.94 764.596 25.45 761.836C28.21 759.666 30.62 757.096 32.91 754.426C33.63 753.586 34.18 752.595 34.8 751.665C34.89 751.535 34.95 751.375 34.97 751.225C34.99 751.085 34.98 750.896 34.9 750.796C34.69 750.526 34.36 750.496 34.09 750.756C32.26 752.536 30.44 754.316 28.65 756.126C27.05 757.756 25.12 758.836 23.04 759.706C22.44 759.956 21.8 760.076 21.17 759.876C19.09 759.216 17.09 759.516 15.09 760.256C13.75 760.746 12.39 761.315 10.93 761.285C8.33 761.235 5.85 761.886 3.42 762.616C1.36 763.236 -0.32 762.856 -1.98 761.696C-2.63 761.236 -3.3 760.806 -3.96 760.366C-3.96 756.526 -3.96 752.685 -3.96 748.845C-3.16 748.815 -2.34 748.916 -1.58 748.736C1.08 748.126 3.67 747.266 5.96 745.736C7.83 744.486 9.77 743.406 11.88 742.636C12.02 742.586 12.15 742.456 12.24 742.326C12.33 742.206 12.45 741.996 12.4 741.926C12.26 741.696 12.07 741.386 11.85 741.316C11.4 741.186 10.9 741.146 10.43 741.176C8.46 741.306 6.6 740.826 4.83 740.086C2.48 739.106 0.0200001 738.366 -2.16 736.986C-2.68 736.656 -3.35 736.566 -3.95 736.366C-3.95 735.406 -3.95 734.446 -3.95 733.486L-3.88 733.496ZM301.41 885.176C300.94 885.246 300.47 885.326 300 885.376C299.1 885.476 298.82 885.216 298.97 884.386C299.05 883.916 299.2 883.466 299.28 882.996C299.35 882.606 299.18 882.355 298.84 882.355C298.72 882.355 298.56 882.506 298.48 882.626C297.46 884.186 297.42 885.905 297.76 887.665C297.79 887.805 297.93 888.015 298.04 888.025C298.32 888.055 298.69 888.106 298.9 887.956C299.95 887.216 300.83 886.316 301.4 885.146C302.67 884.986 303.73 884.476 304.38 883.316C304.44 883.216 304.41 883.016 304.35 882.926C304.28 882.826 304.09 882.726 303.99 882.756C302.71 883.106 302.01 884.076 301.43 885.176H301.41ZM30.66 858.306C30.66 856.846 30.44 855.456 29.43 854.306C29.17 854.006 28.89 853.955 28.66 854.215C28.57 854.305 28.53 854.516 28.56 854.636C29.01 855.996 29.54 857.325 30.7 858.275C30.25 859.605 29.98 859.736 29.23 858.986C29.01 858.766 28.86 858.456 28.62 858.266C28.4 858.086 28.05 857.855 27.84 857.905C27.52 857.995 27.49 858.375 27.65 858.715C28.53 860.615 29 862.566 28.55 864.676C28.44 865.176 28.71 865.625 29.14 865.855C30.02 866.345 30.53 867.086 30.89 867.996C31.11 868.576 31.45 869.116 31.77 869.646C31.83 869.746 32.09 869.856 32.15 869.816C32.39 869.646 32.65 869.436 32.78 869.186C32.92 868.916 33.03 868.555 32.96 868.275C32.2 865.385 31.56 862.475 31.4 859.465C31.38 859.065 30.92 858.685 30.67 858.285L30.66 858.306ZM391.66 866.936C390.93 866.646 390.21 866.266 389.45 866.076C388.66 865.876 387.85 866.045 387.18 866.525C386.81 866.795 386.41 867.156 386.25 867.566C385.57 869.326 385.85 870.995 386.93 872.525C387.08 872.735 387.53 872.946 387.75 872.876C388.95 872.486 390.13 872.036 391.31 871.566C392.13 871.236 392.53 870.465 392.34 869.655C392.12 868.725 391.87 867.806 391.63 866.886C392.65 867.626 393.66 868.396 394.71 869.086C394.88 869.196 395.35 869.046 395.53 868.866C395.7 868.686 395.82 868.245 395.72 868.035C395.17 866.845 394.28 865.946 393.05 865.456C392.82 865.366 392.35 865.475 392.21 865.655C391.94 866.015 391.83 866.485 391.66 866.915V866.936ZM385.85 776.706C386.68 775.736 387.47 774.726 388.35 773.816C390.8 771.286 393.27 768.776 395.77 766.316C397.38 764.726 398.66 762.905 399.79 760.965C399.99 760.615 399.88 760.316 399.52 760.196C399.4 760.156 399.17 760.226 399.08 760.326C398.31 761.126 397.44 761.865 396.81 762.775C394.8 765.715 392.23 768.135 389.51 770.345C387.85 771.685 386.49 773.176 385.48 775.006C385.13 775.636 385.34 776.236 385.91 776.686C385.64 777.076 385.43 777.545 385.09 777.855C382.67 780.075 381.09 782.796 380.1 785.886C379.8 786.816 379.26 787.605 378.56 788.275C376.2 790.565 375.02 793.535 373.77 796.465C373.65 796.735 373.64 797.106 373.71 797.396C373.78 797.676 373.95 798.035 374.18 798.155C374.41 798.275 374.86 798.256 375.08 798.116C377.08 796.766 378.7 795.016 380.09 793.056C381.95 790.436 384.26 788.256 386.73 786.236C387 786.016 387.4 786.186 387.51 786.506C387.67 786.946 387.8 787.416 387.82 787.876C387.88 789.626 387.88 791.376 387.93 793.126C387.94 793.526 388.15 793.736 388.4 793.636C388.51 793.596 388.62 793.386 388.63 793.256C388.73 792.146 388.65 790.996 388.92 789.926C389.56 787.426 389.73 784.905 389.75 782.345C389.77 780.175 390.56 778.315 392.22 776.845C392.68 776.435 393.2 775.926 393.36 775.376C393.75 774.016 394.33 772.676 394.27 771.206C394.27 771.076 394.12 770.915 393.99 770.845C393.87 770.775 393.67 770.766 393.55 770.816C392.61 771.216 392.14 772.066 391.64 772.876C390.29 775.026 388.38 776.325 385.87 776.715L385.85 776.706ZM419.6 762.146C419.89 760.496 420.04 759.716 420.16 758.926C420.18 758.796 420.08 758.616 419.98 758.516C419.74 758.296 419.37 758.286 419.19 758.586C417.27 761.896 415.34 765.206 413.5 768.556C411.57 772.056 410.13 775.795 408.45 779.415C407.48 781.505 406.94 783.586 407.01 785.876C407.08 788.266 407.09 790.656 406.33 792.996C406.1 793.696 406.25 794.585 406.42 795.345C406.62 796.275 407.01 797.166 407.33 798.066C407.38 798.216 407.48 798.345 407.58 798.465C407.68 798.585 407.8 798.696 407.94 798.756C408.28 798.906 408.62 798.795 408.71 798.415C409.84 793.915 411.1 789.465 412.66 785.105C413.36 783.145 414.13 781.226 415.42 779.556C415.87 778.966 416.99 778.826 417.59 779.256C418.77 780.116 419.74 781.166 420.43 782.456C421.11 783.716 421.74 785.015 422.44 786.275C422.66 786.675 423 787.066 423.37 787.326C423.57 787.466 424.12 787.476 424.24 787.326C425.35 785.986 426.42 784.596 427.48 783.206C427.82 782.766 427.79 781.915 427.35 781.405C426.18 780.065 425.3 778.586 424.75 776.876C424.46 775.976 423.92 775.156 423.48 774.306C423.31 773.966 423.04 773.826 422.75 773.956C422.63 774.016 422.53 774.186 422.48 774.326C422.3 774.766 422.18 775.225 421.98 775.665C421.77 776.125 421.09 776.135 420.75 775.785C419.93 774.925 419.58 773.866 419.54 772.736C419.46 770.026 419.45 767.306 419.46 764.586C419.46 763.476 419.58 762.356 419.6 762.126V762.146ZM437.79 758.206C437.73 759.936 437.63 762.966 437.53 765.996C437.52 766.446 437.94 766.906 438.43 766.946C438.9 766.986 439.38 767.046 439.86 767.056C441.2 767.106 442.37 766.675 443.33 765.715C443.9 765.155 444.54 764.646 445.01 764.016C446.62 761.836 448.43 759.816 450.18 757.746C450.46 757.406 450.15 756.766 449.66 756.676C449.19 756.596 448.72 756.515 448.24 756.475C446.87 756.355 445.86 755.625 444.97 754.655C444.31 753.945 443.82 753.135 443.5 752.215C443.03 750.855 442.62 749.485 442.49 748.035C442.37 746.735 441.91 745.555 441.2 744.465C440.97 744.105 440.37 743.735 440.02 743.785C439.5 743.865 439.19 744.226 438.93 744.636C438.76 744.906 438.6 745.185 438.47 745.475C438 746.505 437.8 747.606 437.8 748.736C437.8 751.456 437.8 754.166 437.8 758.186L437.79 758.206ZM36.53 819.396C36.48 819.396 36.43 819.396 36.38 819.396C36.38 817.326 36.44 815.246 36.37 813.176C36.26 810.006 35.38 807.215 32.31 805.595C31.76 805.305 31.31 804.816 30.79 804.456C30.68 804.386 30.39 804.376 30.35 804.456C30.19 804.706 29.96 805.025 30 805.275C30.26 806.845 30.67 808.376 30.75 809.986C30.83 811.566 31.17 813.126 31.38 814.696C31.4 814.816 31.26 814.986 31.14 815.076C31.03 815.156 30.82 815.225 30.73 815.165C29.24 814.285 27.92 813.085 26.09 812.845C25.68 812.795 25.27 812.375 24.95 812.035C23.3 810.295 21.67 808.555 20.07 806.775C18.37 804.885 16.22 804.026 13.75 803.836C13.63 803.836 13.45 803.966 13.38 804.086C13.31 804.196 13.28 804.426 13.35 804.506C13.66 804.846 13.96 805.246 14.36 805.456C15.9 806.306 17.5 807.046 18.72 808.366C19.8 809.536 20.87 810.725 21.87 811.965C22.47 812.715 23.06 813.446 23.85 814.016C24.49 814.476 25.1 815.016 25.58 815.626C26.29 816.536 27.13 817.235 28.15 817.725C29.52 818.395 30.47 819.376 30.72 820.946C30.91 822.106 31.51 823.026 32.53 823.636C33.53 824.236 34.21 825.085 34.65 826.155C34.71 826.295 34.81 826.436 34.9 826.556C35.12 826.856 35.44 826.996 35.73 826.796C35.97 826.636 36.24 826.326 36.25 826.066C36.39 823.846 36.48 821.616 36.58 819.386L36.53 819.396ZM36.38 779.165C36.33 778.905 36.26 778.435 36.15 777.965C36.12 777.825 35.99 777.686 35.87 777.586C35.76 777.496 35.6 777.415 35.47 777.415C35.33 777.415 35.13 777.466 35.06 777.566C33.7 779.576 33.41 782.035 32.28 784.155C30.81 786.925 28.85 789.146 26.02 790.546C24.87 791.116 23.72 791.656 22.56 792.196C21.94 792.486 21.34 792.415 20.73 792.095C18.61 790.975 16.49 789.855 14.35 788.785C13.28 788.245 12.19 788.405 11.12 788.915C9.34 789.765 8 791.116 6.81 792.636C6.66 792.826 6.73 793.206 6.77 793.486C6.79 793.596 7.01 793.736 7.15 793.746C8.42 793.826 9.7 793.876 10.98 793.936C12.26 793.986 13.58 793.836 14.8 794.126C17.44 794.766 20.18 794.936 22.74 795.926C23.48 796.216 24.26 796.415 25.04 796.605C26.56 796.975 28.42 796.146 29.13 794.766C29.42 794.206 29.64 793.596 29.88 793.006C30.76 790.766 31.79 788.616 33.45 786.806C34.55 785.616 35.15 784.105 35.82 782.655C36.3 781.615 36.44 780.515 36.4 779.165H36.38ZM461.83 685.926H461.76C461.76 685.286 461.76 684.656 461.76 684.016C461.78 682.066 461.21 680.256 460.47 678.486C460.11 677.616 459.11 677.126 458.12 677.316C455.77 677.766 453.48 678.416 451.25 679.266C449.17 680.056 447.09 680.846 445.01 681.626C443.22 682.286 441.45 682.986 439.86 684.076C439.42 684.376 439.23 685.046 439.56 685.306C440.56 686.086 441.54 686.875 442.57 687.595C442.78 687.745 443.27 687.745 443.46 687.595C444.21 687.025 444.91 686.376 445.61 685.736C446.22 685.176 446.9 684.816 447.75 684.856C448.44 684.896 448.97 684.685 449.31 684.035C449.6 683.465 449.98 682.956 450.67 682.816C451.49 682.646 452.24 682.865 452.94 683.285C453.21 683.445 453.47 683.646 453.7 683.856C454.86 684.936 455.99 686.036 457.69 686.296C458.02 686.346 458.4 686.956 458.5 687.376C458.8 688.606 458.94 689.865 459.22 691.095C459.27 691.325 459.65 691.586 459.91 691.636C460.17 691.686 460.62 691.586 460.75 691.396C461.1 690.886 461.48 690.315 461.56 689.725C461.74 688.475 461.75 687.196 461.82 685.926H461.83ZM421.17 790.595C421.09 790.175 421.1 789.836 420.96 789.556C420.12 787.846 419.25 786.136 418.37 784.446C418.09 783.906 417.08 783.925 416.74 784.405C415.9 785.595 415.31 786.895 414.9 788.275C414.36 790.105 413.85 791.956 413.34 793.796C413.17 794.406 412.92 795.035 412.91 795.655C412.87 798.075 411.99 800.345 411.73 802.725C411.6 803.915 410.98 804.795 409.95 805.405C409.25 805.825 408.61 806.336 408.38 807.136C408.26 807.546 408.35 808.065 408.5 808.475C408.58 808.675 409.05 808.905 409.28 808.855C411.32 808.415 413.38 808.295 415.45 808.275C415.61 808.275 415.78 808.266 415.92 808.196C416.2 808.066 416.48 807.916 416.72 807.736C416.92 807.586 416.72 806.695 416.42 806.405C416.08 806.075 415.78 805.656 415.37 805.446C412.77 804.096 413.1 803.555 414.37 801.345C415.48 799.425 416.85 797.646 418.1 795.806C419 794.496 419.93 793.195 420.79 791.855C421.03 791.475 421.06 790.955 421.15 790.595H421.17ZM366.14 831.396C365.86 831.396 365.22 831.335 364.59 831.405C361.55 831.745 358.6 832.425 355.9 833.915C353.38 835.315 350.96 836.866 348.94 838.956C347.71 840.216 346.45 841.436 345.22 842.696C344.9 843.036 344.65 843.445 344.4 843.855C344.33 843.965 344.33 844.246 344.4 844.296C344.65 844.466 344.99 844.715 345.21 844.655C345.81 844.495 346.41 844.235 346.95 843.915C349.57 842.365 351.9 840.405 354.29 838.535C355.56 837.535 356.92 836.736 358.46 836.236C360.89 835.456 363.33 834.665 365.77 833.905C366.06 833.815 366.4 833.836 366.71 833.876C366.84 833.886 367.02 834.066 367.05 834.196C367.12 834.486 367.2 834.815 367.13 835.105C366.62 837.305 365.58 839.296 364.59 841.296C363.81 842.876 363.08 844.466 362.33 846.056C362.17 846.396 362.24 846.795 362.55 846.855C362.78 846.895 363.18 846.666 363.31 846.436C363.96 845.336 364.61 844.226 365.16 843.076C366.68 839.896 368.39 836.836 370.4 833.936C370.67 833.546 370.85 833.105 371.03 832.665C371.08 832.545 371.03 832.286 370.95 832.236C370.15 831.766 369.39 831.145 368.39 831.155C367.75 831.155 367.12 831.286 366.12 831.396H366.14ZM453.1 750.105C452.96 751.035 452.89 751.505 452.81 751.975C452.75 752.285 452.66 752.595 452.61 752.915C452.52 753.485 452.78 754.096 453.11 754.076C453.42 754.056 453.81 754.066 454.01 753.886C455.09 752.946 456.1 751.925 457.17 750.975C458.79 749.545 459.77 747.876 459.96 745.636C460.08 744.236 460.7 742.876 461.1 741.496C461.79 739.106 461.19 738.326 458.61 738.256C458.13 738.246 457.65 738.256 457.18 738.246C453.59 738.226 453.08 738.805 453.1 742.415C453.11 745.125 453.1 747.835 453.1 750.095V750.105ZM442.45 794.066C441.15 794.236 440.53 794.326 439.9 794.396C439.48 794.446 438.93 793.956 438.93 793.516C438.92 792.726 439.02 791.925 438.89 791.155C438.69 790.015 437.04 789.485 436.26 790.275C435.25 791.285 434.15 792.256 433.35 793.426C431.34 796.366 428.82 798.746 425.96 800.816C425.32 801.276 424.71 801.796 424.12 802.336C423.77 802.656 423.48 803.046 423.16 803.396C422.79 803.806 422.71 804.606 423.03 804.636C423.32 804.666 423.68 804.735 423.91 804.605C426.12 803.335 428.33 802.065 430.49 800.725C432.26 799.625 434.07 798.626 436.04 797.956C438.15 797.236 440.29 796.616 442.42 795.946C443.02 795.756 443.63 795.575 444.18 795.285C444.38 795.185 444.44 794.776 444.5 794.486C444.52 794.406 444.29 794.196 444.16 794.186C443.38 794.116 442.59 794.076 442.47 794.066H442.45ZM347.18 886.586C347.34 886.606 347.5 886.666 347.65 886.636C351.1 885.916 354.43 884.826 357.42 882.946C359.04 881.926 360.42 880.586 361.38 878.886C361.64 878.426 361.34 877.525 360.84 877.215C360.28 876.865 359.68 876.656 359.03 876.816C354.82 877.846 350.86 879.465 347.33 882.025C346.83 882.385 346.45 882.936 346.08 883.446C345.56 884.176 345.72 885.406 346.38 886.086C346.59 886.306 346.9 886.425 347.17 886.595L347.18 886.586ZM46.03 835.816C46.01 832.316 45.18 829.555 44.54 826.775C44.34 825.885 43.67 825.086 43.13 824.316C42.87 823.946 42.41 823.706 42.03 823.436C41.53 823.066 40.68 823.496 40.54 824.136C40.16 825.886 40.29 827.606 40.71 829.336C41.69 833.366 42.48 837.425 42.26 841.605C42.23 842.235 42.37 842.866 42.46 843.496C42.48 843.636 42.63 843.856 42.73 843.866C43.02 843.876 43.39 843.896 43.59 843.736C43.96 843.456 44.38 843.096 44.51 842.676C45.3 840.256 46.12 837.836 46.04 835.826L46.03 835.816ZM145.14 832.415C144.6 833.065 143.67 834.156 142.76 835.256C142.36 835.736 142.54 836.535 143.11 836.915C143.24 837.005 143.38 837.086 143.53 837.136C145.32 837.756 145.84 839.156 145.88 840.886C145.91 842.336 145.72 843.736 145.32 845.126C144.7 847.256 145.68 848.815 147.28 850.095C147.37 850.165 147.6 850.145 147.72 850.095C147.83 850.035 147.98 849.806 147.94 849.746C147.02 848.236 147.13 846.725 147.9 845.215C148.1 844.825 148.37 844.816 148.64 845.176C148.83 845.426 148.99 845.706 149.19 845.946C149.28 846.056 149.45 846.145 149.6 846.155C149.96 846.195 150.2 846.005 150.34 845.665C150.84 844.445 150.66 843.156 150.75 841.896C150.85 840.466 151.73 839.176 151.43 837.686C151.4 837.536 151.32 837.385 151.22 837.275C150.99 837.025 150.7 837.036 150.4 837.246C149.06 838.216 148.63 838.226 147.85 837.136C147.49 836.636 147.11 836.046 147.03 835.456C146.84 834.046 146.82 832.606 146.71 831.176C146.7 831.026 146.62 830.866 146.51 830.766C146.44 830.696 146.2 830.686 146.16 830.736C145.9 831.126 145.67 831.536 145.13 832.436L145.14 832.415ZM283.1 868.736C282.92 868.196 282.84 867.706 282.61 867.306C282.48 867.076 282.12 866.965 281.84 866.855C281.76 866.825 281.54 867.006 281.49 867.126C280.78 868.896 280.33 870.825 279.33 872.405C278 874.495 277.38 876.716 276.98 879.086C276.88 879.716 276.68 880.326 276.58 880.946C276.53 881.246 276.59 881.576 276.65 881.886C276.68 882.026 276.8 882.186 276.93 882.256C277.22 882.416 277.57 882.366 277.73 882.056C278.57 880.346 279.37 878.625 280.2 876.915C280.26 876.785 280.42 876.666 280.55 876.636C280.85 876.566 281.06 876.756 281.19 877.116C282.27 879.976 284.29 882.295 285.68 884.965C285.91 885.405 286.66 885.426 286.91 885.066C287.47 884.256 287.79 883.386 287.81 882.396C287.83 881.586 287.48 881.056 286.8 881.046C285.67 881.026 285.05 880.376 284.69 879.426C284.41 878.686 284.21 877.916 284.04 877.136C283.82 876.156 283.34 875.376 282.55 874.766C282.3 874.576 282.06 874.336 281.91 874.076C281.76 873.816 281.6 873.446 281.68 873.196C281.96 872.286 282.38 871.426 282.68 870.516C282.88 869.916 282.97 869.286 283.09 868.736H283.1ZM40.99 854.535C40.86 854.575 40.69 854.586 40.61 854.676C40.51 854.776 40.43 854.946 40.43 855.086C40.46 856.956 41.18 858.805 40.49 860.715C40.35 861.095 40.57 861.655 40.74 862.095C41.33 863.645 41.31 865.186 40.81 866.756C40.66 867.206 40.61 867.686 40.53 868.146C40.44 868.606 40.71 869.045 41.34 869.105C42.18 869.185 42.85 869.466 43.36 870.146C43.55 870.396 43.78 870.616 44.02 870.826C44.49 871.236 45.42 870.895 45.53 870.275C45.59 869.965 45.64 869.655 45.63 869.345C45.63 868.875 45.43 868.366 45.56 867.956C45.73 867.426 46.36 867.616 46.8 867.496C47.09 867.416 47.42 867.266 47.61 867.056C48.75 865.766 49.12 864.305 48.48 862.665C48.17 861.865 47.05 861.596 46.54 862.236C46.05 862.846 45.62 863.505 45.21 864.165C44.88 864.695 44.63 865.276 44.31 865.816C44.25 865.916 43.98 866.025 43.91 865.975C43.69 865.815 43.35 865.586 43.35 865.386C43.38 864.606 43.44 863.806 43.64 863.056C43.97 861.796 44.04 860.566 43.64 859.316C43.35 858.416 43.19 857.466 42.87 856.576C42.54 855.656 41.83 855.016 40.98 854.556L40.99 854.535ZM387.24 846.076C386.83 846.146 386.34 846.166 385.9 846.316C381.96 847.636 377.97 848.656 373.8 848.866C373.67 848.866 373.44 849.046 373.44 849.146C373.44 849.426 373.44 849.825 373.62 849.975C374.84 851.035 376.29 851.706 377.82 852.146C378.56 852.356 379.42 852.406 380.17 852.236C382.34 851.746 384.5 851.166 386.62 850.516C387.65 850.196 388.47 850.435 389.31 850.975C389.62 851.175 389.93 851.026 390.1 850.706C390.17 850.576 390.24 850.366 390.18 850.266C389.51 849.016 388.85 847.756 388.12 846.546C387.99 846.326 387.58 846.265 387.24 846.095V846.076ZM456.97 780.636C457 781.046 457 781.206 457.02 781.366C457.04 781.526 457.08 781.676 457.09 781.836C457.14 782.306 457.6 782.866 457.97 782.836C458.27 782.816 458.65 782.816 458.86 782.646C460.37 781.476 461.84 780.256 463.32 779.056C463.83 778.646 464.21 778.126 464.36 777.486C464.58 776.556 464.8 775.616 464.91 774.676C465.05 773.476 464.51 772.476 463.6 771.756C463.27 771.486 462.71 771.355 462.27 771.405C461.47 771.495 460.72 771.875 460.22 772.525C458.33 774.995 457.48 777.886 456.96 780.646L456.97 780.636ZM404.2 826.926C404.18 826.626 404.28 825.615 404.02 824.715C403.14 821.585 403.15 818.406 403.11 815.206C403.11 814.906 402.97 814.596 402.83 814.316C402.68 814.016 402.33 813.896 402.02 814.086C400.25 815.136 399.3 816.645 399.23 818.775C399.13 821.705 399.84 824.486 400.63 827.246C400.98 828.486 401.68 829.576 402.67 830.436C402.9 830.646 403.19 830.845 403.48 830.905C403.75 830.965 404.06 830.865 404.34 830.775C404.46 830.735 404.62 830.525 404.6 830.405C404.51 829.455 404.39 828.515 404.19 826.915L404.2 826.926ZM107.98 851.165C107.65 851.105 107.34 851.036 107.02 850.986C106.63 850.926 106.4 851.086 106.41 851.446C106.41 851.576 106.53 851.766 106.65 851.836C107.06 852.076 107.48 852.286 107.91 852.486C108.78 852.886 109.67 853.226 110.51 853.676C110.92 853.896 111.23 854.285 111.57 854.605C111.93 854.935 111.79 855.566 111.29 855.696C110.85 855.816 110.34 855.735 110.01 856.155C109.73 856.515 109.92 857.205 110.49 857.845C110.81 858.195 111.16 858.526 111.49 858.876C112.25 859.686 113.16 859.646 114.13 859.376C115.37 859.026 115.82 858.526 115.57 857.366C115.32 856.206 115.33 855.206 116.13 854.246C116.48 853.826 116.21 853.356 115.86 852.986C115.53 852.646 115.16 852.335 114.88 851.965C114.65 851.675 114.75 851.355 115.07 851.165C115.19 851.085 115.37 851.036 115.51 851.046C116.84 851.186 117.74 852.216 118.9 852.706C119.01 852.756 119.22 852.735 119.32 852.655C119.59 852.445 119.6 852.156 119.41 851.826C118.84 850.846 118.01 850.106 117.11 849.436C116.19 848.736 114.85 848.706 114.02 849.456C113.32 850.096 112.74 850.856 112.05 851.516C111.86 851.696 111.38 851.806 111.2 851.696C110.18 851.036 109.04 851.276 107.97 851.176L107.98 851.165ZM375.32 649.666C375.17 649.486 375.07 649.285 374.97 649.285C373.26 649.265 371.94 650.175 370.73 651.225C366.63 654.835 363.27 659.076 360.49 663.766C360.27 664.136 360.31 664.676 360.3 665.136C360.3 665.536 361.07 665.946 361.39 665.756C361.8 665.516 362.25 665.326 362.6 665.016C365.15 662.786 367.04 659.986 368.75 657.126C370 655.036 371.49 653.226 373.22 651.566C373.9 650.916 374.62 650.295 375.32 649.655V649.666ZM427.09 773.975C427.09 773.975 427.16 773.975 427.19 773.975C427.19 774.765 427.13 775.565 427.21 776.345C427.27 776.965 427.47 777.576 427.67 778.176C427.91 778.876 429.05 779.315 429.65 779.025C432.19 777.835 434.07 776.006 435.22 773.446C435.34 773.176 435.33 772.825 435.31 772.525C435.25 771.885 434.26 771.216 433.51 771.256C432.88 771.296 432.3 771.785 432.18 772.405C431.97 773.485 431.77 774.556 431.54 775.636C431.51 775.756 431.34 775.876 431.21 775.946C430.87 776.136 430.56 776.065 430.38 775.725C430.15 775.315 429.92 774.896 429.78 774.456C429.44 773.406 429.17 772.325 428.82 771.275C428.74 771.035 428.42 770.836 428.17 770.696C427.87 770.526 427.34 771.086 427.3 771.616C427.23 772.406 427.17 773.185 427.1 773.975H427.09ZM374.11 846.715C377.78 846.855 380.68 846.066 383.52 844.996C384.09 844.776 384.57 844.306 385.07 843.926C385.36 843.706 385.47 842.846 385.22 842.626C384.99 842.426 384.71 842.225 384.43 842.155C383.63 841.955 382.85 842.156 382.1 842.426C379.38 843.386 376.62 844.015 373.71 843.975C373.1 843.975 372.46 844.195 371.88 844.415C371.63 844.505 371.44 844.846 371.3 845.116C371.14 845.436 371.54 846.136 371.9 846.266C372.2 846.366 372.49 846.516 372.8 846.566C373.43 846.666 374.06 846.705 374.1 846.715H374.11ZM395.96 863.046C395.93 863.206 395.85 863.376 395.89 863.516C396.02 863.976 396.15 864.446 396.36 864.866C396.79 865.726 397.26 866.556 397.75 867.386C398.23 868.206 399.08 868.386 399.74 867.736C400.31 867.176 400.77 866.476 401.72 866.696C402.87 866.966 403.93 866.505 405.03 866.345C405.38 866.295 405.63 866.055 405.58 865.715C405.54 865.425 405.41 865.046 405.19 864.886C403.89 863.956 402.57 863.056 401.24 862.196C400.7 861.846 400.06 861.675 399.41 861.785C398.47 861.955 397.52 862.136 396.6 862.386C396.35 862.456 396.18 862.816 395.97 863.046H395.96ZM270.67 786.746H270.64C270.64 785.316 270.65 783.895 270.64 782.465C270.64 781.995 270.57 781.516 270.5 781.056C270.48 780.916 270.36 780.706 270.24 780.676C269.92 780.596 269.69 780.785 269.52 781.105C268.8 782.415 268.82 783.845 268.79 785.275C268.73 787.965 268.74 790.636 268.06 793.296C267.63 794.956 267.61 796.736 268.06 798.456C268.1 798.586 268.24 798.755 268.37 798.785C268.72 798.885 269.04 798.745 269.16 798.405C270.05 795.855 270.76 793.286 270.68 790.546C270.64 789.276 270.68 788.016 270.68 786.746H270.67ZM402.52 800.405C402.39 799.915 402.02 798.375 401.6 796.855C401.52 796.565 401.29 796.305 401.13 796.035C400.81 795.495 400.03 795.195 399.47 795.475C397.9 796.235 396.34 797.006 394.81 797.826C394.61 797.936 394.53 798.325 394.46 798.605C394.43 798.715 394.56 798.946 394.67 798.996C396.97 800.046 399.28 801.075 401.59 802.095C401.98 802.265 402.71 801.825 402.54 800.405H402.52ZM32.53 836.155C32.53 836.155 32.6 836.155 32.64 836.155C32.64 837.425 32.63 838.695 32.64 839.975C32.64 840.445 32.67 840.936 32.8 841.386C32.87 841.616 33.2 841.925 33.39 841.915C33.63 841.895 33.98 841.636 34.07 841.396C35.23 838.236 35.43 834.885 35.98 831.605C36.01 831.455 35.95 831.296 35.95 831.136C35.95 830.566 34.9 829.776 34.18 829.806C33.55 829.826 32.89 830.346 32.84 830.936C32.71 832.676 32.62 834.415 32.52 836.155H32.53ZM93.33 861.636C93.11 861.626 92.84 861.956 92.66 862.176C92.58 862.266 92.6 862.496 92.65 862.636C93.05 863.936 94.23 864.606 95.1 865.516C96.13 866.586 96.88 867.756 96.92 869.296C96.92 869.616 97 869.926 97.05 870.236C97.15 870.746 97.76 871.085 98.09 870.785C98.67 870.245 99.26 869.705 99.76 869.105C99.92 868.915 99.98 868.476 99.88 868.236C99.58 867.516 99.05 866.886 99.27 866.006C99.49 865.146 99.17 864.496 98.46 863.946C96.93 862.756 95.32 861.746 93.33 861.646V861.636ZM270.59 873.095C270.66 874.475 270.69 875.596 270.79 876.706C270.81 876.946 271.07 877.186 271.27 877.376C271.33 877.436 271.58 877.346 271.7 877.266C272.21 876.886 272.72 876.506 273.21 876.086C273.86 875.536 274.28 874.816 274.02 873.986C273.56 872.486 273.82 871.175 274.68 869.905C274.84 869.675 274.88 869.266 274.81 868.996C274.69 868.556 274.52 868.036 274.19 867.756C273.07 866.816 271.01 867.636 270.85 869.076C270.7 870.496 270.66 871.935 270.59 873.095ZM139.07 845.426C138.88 845.656 138.55 845.875 138.54 846.105C138.44 847.625 139.04 848.856 140.23 849.796C140.54 850.036 141.22 849.826 141.49 849.436C143.32 846.766 144.21 843.756 144.66 840.586C144.68 840.436 144.64 840.266 144.57 840.126C144.5 839.986 144.38 839.795 144.26 839.785C143.98 839.745 143.6 839.686 143.43 839.836C143.09 840.136 142.75 840.536 142.61 840.956C142.21 842.156 141.93 843.395 141.54 844.595C141.4 845.025 141.13 845.496 140.78 845.746C140.36 846.046 139.93 845.596 139.51 845.446C139.37 845.396 139.21 845.425 139.06 845.415L139.07 845.426ZM375.43 841.046C376.24 840.976 377.03 840.916 377.81 840.816C377.95 840.796 378.15 840.656 378.18 840.546C378.24 840.266 378.32 839.906 378.2 839.696C376.81 837.206 373.55 836.386 370.72 837.836C369.99 838.216 369.82 839.446 370.49 839.816C371.17 840.196 371.88 840.596 372.63 840.766C373.54 840.976 374.51 840.966 375.44 841.046H375.43ZM326.35 858.186C326.09 858.006 325.86 857.765 325.58 857.665C324.78 857.395 324.01 857.576 323.34 858.066C321.8 859.196 320.48 860.575 319.35 862.105C318.79 862.855 318.45 863.766 318.06 864.626C317.94 864.896 317.97 865.246 317.98 865.556C317.98 865.686 318.09 865.856 318.21 865.936C318.31 866.006 318.54 866.056 318.61 865.996C320.01 864.936 320.76 863.316 321.98 862.076C323.32 860.706 324.95 859.766 326.44 858.626C326.5 858.586 326.39 858.326 326.36 858.176L326.35 858.186ZM277.3 798.066C277.59 799.296 277.17 800.436 277.77 801.456C277.83 801.566 278 801.645 278.13 801.665C278.27 801.685 278.47 801.666 278.56 801.566C279.65 800.396 280.23 798.925 280.8 797.465C281.32 796.125 280.85 795.025 279.8 794.105C279.17 793.565 278.03 793.756 277.87 794.516C277.63 795.736 277.47 796.976 277.3 798.066ZM382.96 802.215C382.98 802.405 382.92 801.785 382.82 801.165C382.8 801.055 382.62 800.886 382.53 800.896C382.4 800.906 382.21 801.035 382.17 801.155C380.91 804.585 380.12 808.135 379.5 811.715C379.46 811.945 379.75 812.266 379.94 812.496C380 812.576 380.26 812.546 380.4 812.496C380.54 812.436 380.69 812.316 380.74 812.186C382.01 809.266 383.2 806.336 382.97 802.236L382.96 802.215ZM39.22 840.605C39.22 840.605 39.3 840.605 39.34 840.605C39.28 839.655 39.23 838.696 39.15 837.746C39.14 837.606 39.02 837.395 38.91 837.355C38.6 837.245 38.33 837.396 38.19 837.736C37.33 839.806 36.92 841.996 36.56 844.196C36.46 844.806 36.59 845.465 36.63 846.095C36.66 846.625 37.12 847.126 37.5 847.066C38.01 846.986 38.38 846.665 38.55 846.225C38.83 845.485 39.13 844.726 39.2 843.946C39.31 842.846 39.23 841.715 39.23 840.605H39.22ZM266.69 869.496L266.86 869.516C266.86 870.146 266.86 870.775 266.86 871.405C266.86 871.715 266.88 872.035 266.91 872.345C266.97 872.965 267.05 873.586 267.73 873.866C268.15 874.036 268.68 873.345 268.71 872.535C268.82 870.035 268.73 867.515 269.19 865.025C269.21 864.915 268.72 864.565 268.49 864.595C267.81 864.675 267.34 865.156 267.22 865.796C266.98 867.016 266.85 868.266 266.68 869.506L266.69 869.496ZM261.46 899.506C261.43 899.366 261.43 899.196 261.35 899.076C260.8 898.266 259.96 897.815 259.12 897.405C258.86 897.275 258.49 897.276 258.2 897.336C256.74 897.666 255.61 898.455 255 899.855C254.89 900.095 254.92 900.505 255.06 900.725C255.21 900.945 255.59 901.185 255.83 901.155C257.53 900.885 259.23 900.566 260.91 900.196C261.13 900.146 261.28 899.746 261.46 899.506ZM29.64 845.905C29.64 845.905 29.73 845.905 29.77 845.905C29.71 844.795 29.65 843.686 29.57 842.576C29.57 842.436 29.43 842.256 29.31 842.196C29.24 842.166 28.99 842.295 28.96 842.405C28.77 843.015 28.67 843.646 28.45 844.246C28.02 845.446 27.47 846.596 27.1 847.806C26.81 848.726 26.84 849.685 27.28 850.595C27.45 850.945 28.05 851.276 28.48 851.126C28.76 851.026 29.08 850.835 29.21 850.595C29.42 850.185 29.59 849.706 29.61 849.256C29.67 848.146 29.63 847.025 29.63 845.915L29.64 845.905ZM452.07 789.136C452.04 788.976 451.92 788.206 451.76 787.456C451.66 786.976 450.78 786.526 450.24 786.636C449.24 786.846 448.5 787.776 448.72 788.636C448.95 789.536 449.24 790.426 449.56 791.306C449.78 791.906 450.24 792.336 450.9 792.456C451.45 792.556 452.01 791.696 452.05 790.686C452.06 790.376 452.05 790.066 452.05 789.146L452.07 789.136ZM93.9 851.016C93.06 851.166 92.6 852.055 92.93 852.535C93.02 852.665 93.07 852.826 93.17 852.946C94.39 854.316 97.56 856.756 99.53 857.836C99.6 857.876 99.83 857.746 99.89 857.636C99.95 857.526 99.96 857.305 99.89 857.215C98.26 855.275 96.48 853.466 94.99 851.396C94.78 851.096 94.15 851.096 93.89 851.016H93.9ZM37.46 861.766C37.46 860.816 37.45 860.496 37.46 860.176C37.58 857.866 36.84 855.815 35.61 853.915C35.4 853.585 35.13 853.506 34.88 853.706C34.77 853.796 34.67 853.985 34.69 854.105C35.02 856.445 35.36 858.786 35.73 861.116C35.8 861.576 35.98 862.026 36.12 862.486C36.21 862.786 36.34 863.076 36.43 863.386C36.54 863.746 36.75 863.946 37.05 863.876C37.16 863.846 37.29 863.636 37.3 863.506C37.38 862.726 37.43 861.935 37.45 861.775L37.46 861.766ZM384.38 870.046C384.41 869.716 384.52 869.385 384.45 869.105C384.38 868.845 384.15 868.616 383.94 868.426C383.85 868.346 383.63 868.356 383.5 868.396C382.42 868.766 381.63 869.496 381.06 870.446C380.84 870.816 380.75 871.346 380.81 871.766C380.89 872.366 381.12 872.966 381.38 873.516C381.49 873.756 381.82 873.926 382.08 874.046C382.42 874.206 383.04 873.855 383.28 873.525C384.06 872.475 383.99 871.165 384.38 870.025V870.046ZM264.3 870.446C264.3 870.446 264.38 870.446 264.42 870.446C264.33 869.526 264.26 868.596 264.15 867.676C264.14 867.586 263.92 867.466 263.79 867.456C263.66 867.456 263.47 867.526 263.38 867.626C261.99 869.296 261.84 871.315 261.86 873.355C261.86 873.665 262.43 874.076 262.82 874.236C263.66 874.576 264.55 874.005 264.5 873.225C264.45 872.295 264.36 871.376 264.29 870.446H264.3ZM267.64 906.556C267.64 906.466 267.64 906.306 267.64 906.146C267.6 905.276 267.21 904.646 266.42 904.256C265.59 903.836 264.85 904.035 264.22 904.605C263.76 905.035 263.36 905.546 262.99 906.056C262.78 906.346 262.84 906.776 263.13 906.866C264.18 907.206 265.26 907.486 266.33 907.756C266.87 907.886 267.58 907.246 267.64 906.556ZM243.29 876.386C243.02 876.516 242.64 876.575 242.52 876.785C241.64 878.245 241.74 879.755 242.37 881.275C242.53 881.665 243.29 881.736 243.58 881.366C244.06 880.746 244.54 880.126 244.95 879.456C245.09 879.226 245.11 878.806 244.99 878.566C244.59 877.716 244.16 876.876 243.29 876.386ZM16.84 870.285C16.56 869.565 16.26 868.676 15.87 867.826C15.77 867.606 15.32 867.386 15.08 867.426C14.31 867.556 13.55 867.805 12.8 868.035C12.66 868.075 12.46 868.226 12.46 868.336C12.46 868.616 12.44 869.036 12.61 869.146C13.64 869.866 14.71 870.556 15.81 871.176C15.97 871.266 16.36 871.036 16.61 870.896C16.71 870.836 16.72 870.625 16.84 870.275V870.285ZM66.4 880.756C66.76 880.646 66.92 880.626 67.05 880.556C67.75 880.176 68.29 879.656 68.56 878.886C68.69 878.526 68.53 877.906 68.13 877.676C67.74 877.456 67.17 877.135 66.87 877.275C65.91 877.735 65.04 878.376 64.14 878.956C63.81 879.176 63.96 879.955 64.39 880.105C65.11 880.365 65.84 880.576 66.39 880.756H66.4ZM307.79 866.266C307.38 866.216 306.91 866.136 306.43 866.116C306.12 866.116 305.76 866.115 305.5 866.275C305.27 866.405 305.02 866.745 305.04 866.965C305.06 867.205 305.36 867.586 305.58 867.616C307.45 867.936 309.35 868.006 311.24 867.956C311.32 867.956 311.45 867.725 311.45 867.605C311.45 867.185 310.95 866.636 310.68 866.496C309.76 866.006 308.78 866.546 307.79 866.266ZM1.9 797.446C1.66 797.626 1.51 797.686 1.43 797.806C1.36 797.916 1.29 798.135 1.35 798.215C1.62 798.575 1.86 799.045 2.24 799.215C3.65 799.845 5.1 800.385 6.56 800.905C6.87 801.015 7.13 800.776 7.19 800.446C7.21 800.306 7.17 800.126 7.09 800.016C5.75 798.296 3.83 797.786 1.91 797.446H1.9ZM57.62 857.836C57.68 858.576 57.69 859.376 58.25 860.006C58.34 860.116 58.49 860.205 58.63 860.225C58.94 860.285 59.2 860.125 59.29 859.775C59.37 859.475 59.46 859.125 59.38 858.855C58.95 857.405 59.22 856.086 60.01 854.836C60.06 854.756 59.99 854.516 59.9 854.436C59.66 854.216 59.39 854.266 59.09 854.496C58.01 855.336 57.61 856.475 57.61 857.845L57.62 857.836ZM247.04 890.415C247.11 889.865 246.98 889.586 246.65 889.426C245.71 888.956 244.83 889.045 243.98 889.665C243.43 890.065 243.46 890.955 244.03 891.275C244.78 891.695 245.55 891.806 246.27 891.326C246.63 891.086 246.85 890.645 247.03 890.415H247.04ZM6.17 856.465C6.1 856.595 5.96 856.745 5.98 856.855C6.42 859.145 6.85 861.435 7.76 863.605C7.81 863.735 7.98 863.815 8.09 863.915C8.22 863.665 8.5 863.375 8.45 863.165C8.02 861.195 7.54 859.235 7.05 857.285C6.98 857.005 6.74 856.755 6.54 856.525C6.48 856.455 6.3 856.485 6.17 856.465ZM7.71 878.486C7.61 877.966 7.56 877.326 7.37 876.736C7.22 876.286 6.83 875.976 6.33 875.866C5.96 875.786 5.59 875.916 5.55 876.266C5.42 877.556 5.72 878.786 6.26 879.946C6.36 880.166 6.77 880.256 7.06 880.336C7.13 880.356 7.33 880.136 7.36 879.996C7.49 879.546 7.57 879.076 7.7 878.486H7.71ZM271.74 889.626C271.46 889.886 271.04 890.125 270.89 890.475C270.64 891.065 270.78 891.675 271.26 892.165C271.7 892.615 272.43 892.696 272.93 892.306C273.17 892.126 273.38 891.886 273.54 891.636C273.92 891.066 273.75 890.306 273.19 890.076C272.77 889.906 272.32 889.796 271.74 889.626ZM263.81 884.525C263.89 882.995 262.77 882.126 261.52 882.736C260.74 883.126 260.59 884.106 261.29 884.576C261.78 884.906 262.35 885.135 262.91 885.345C263.29 885.495 263.78 885.015 263.8 884.525H263.81ZM25.14 860.465C24.94 860.265 24.76 859.906 24.54 859.886C23.37 859.766 22.47 860.305 21.88 861.285C21.76 861.485 21.85 861.896 21.98 862.126C22.23 862.546 22.7 862.736 23.17 862.646C24.15 862.466 24.77 861.815 25.13 860.905C25.18 860.775 25.13 860.616 25.13 860.456L25.14 860.465ZM294.88 872.855C294.63 872.695 294.33 872.355 294.15 872.405C292.71 872.815 291.82 873.836 291.3 875.196C291.26 875.296 291.35 875.496 291.44 875.586C291.53 875.686 291.7 875.786 291.82 875.766C293.12 875.556 294.11 874.846 294.81 873.746C294.95 873.526 294.87 873.155 294.89 872.855H294.88ZM464.6 766.056C465.15 766.106 465.73 765.895 466.27 765.525C466.66 765.255 466.91 764.605 466.67 764.285C466.49 764.045 466.25 763.786 465.98 763.706C464.94 763.416 463.79 764.196 463.51 765.306C463.42 765.656 463.97 766.066 464.6 766.046V766.056ZM193.52 849.785C193.68 849.765 193.87 849.795 193.99 849.725C194.95 849.125 195.7 848.316 196.23 847.326C196.3 847.206 196.32 846.986 196.26 846.866C196.09 846.536 195.79 846.496 195.46 846.706C194.67 847.216 193.81 847.675 193.32 848.525C193.18 848.775 193.2 849.136 193.22 849.436C193.22 849.556 193.42 849.665 193.53 849.775L193.52 849.785ZM350.81 870.996C350.56 871.136 350.19 871.216 350.07 871.426C349.96 871.616 350.01 872.095 350.16 872.215C350.62 872.585 351.15 872.886 351.7 873.116C351.91 873.206 352.27 873.045 352.51 872.905C352.82 872.715 352.74 872.026 352.43 871.696C351.99 871.226 351.45 870.996 350.81 870.996ZM253.29 880.535C253.2 880.965 253.14 881.125 253.15 881.275C253.15 881.415 253.21 881.586 253.3 881.676C253.53 881.896 253.83 881.896 254.12 881.676C255.04 880.986 255.62 880.075 255.6 878.905C255.6 878.695 255.26 878.466 255.04 878.296C254.97 878.246 254.7 878.315 254.64 878.405C254.13 879.175 253.64 879.975 253.29 880.535ZM370.03 876.576C370.47 876.446 370.91 876.366 371.31 876.186C371.6 876.056 371.66 875.676 371.43 875.426C370.65 874.596 369.42 874.585 368.63 875.415C368.39 875.665 368.46 876.035 368.75 876.165C369.15 876.355 369.59 876.436 370.04 876.576H370.03ZM186.36 847.566C186.25 847.426 186.13 847.186 186.08 847.206C184.64 847.576 183.72 848.545 183.12 849.855C183.09 849.915 183.28 850.126 183.41 850.176C183.54 850.226 183.74 850.206 183.86 850.136C184.93 849.506 185.95 848.826 186.37 847.566H186.36ZM61.39 869.376C61.26 869.306 61.12 869.166 61 869.186C60.71 869.236 60.34 869.285 60.16 869.475C59.43 870.225 59.45 871.166 59.63 872.116C59.66 872.256 59.76 872.436 59.88 872.486C59.97 872.526 60.21 872.416 60.26 872.316C60.69 871.476 61.09 870.635 61.48 869.775C61.53 869.675 61.43 869.495 61.4 869.355L61.39 869.376ZM-0.52 793.215C-0.39 793.135 -0.2 793.076 -0.15 792.956C0.17 792.266 0.48 791.565 0.76 790.855C0.81 790.735 0.76 790.545 0.69 790.405C0.63 790.275 0.53 790.126 0.4 790.066C0.28 790.006 0.0799998 789.996 -0.0300002 790.066C-1.03 790.706 -1.53 791.596 -1.27 792.796C-1.2 793.136 -0.88 793.255 -0.53 793.215H-0.52ZM311.64 879.095C311.68 878.425 311.28 877.875 310.68 877.785C310.04 877.685 309.39 878.235 309.5 878.775C309.63 879.365 310.09 879.795 310.73 879.915C311.12 879.985 311.61 879.545 311.64 879.095ZM27.88 867.866C27.91 867.716 28.02 867.476 27.97 867.426C27.39 866.906 26.79 866.395 26.17 865.915C25.86 865.665 25.55 865.736 25.38 866.076C25.32 866.196 25.36 866.395 25.42 866.535C25.76 867.275 26.27 867.886 27.07 868.136C27.29 868.206 27.61 867.966 27.88 867.866ZM70.34 871.746C69.82 871.976 69.62 872.926 69.99 873.366C70.3 873.726 70.91 873.936 71.25 873.806C71.59 873.676 71.61 873.185 71.3 872.535C70.98 871.865 70.66 871.606 70.34 871.736V871.746ZM296.5 881.105C296.5 880.655 296.53 880.495 296.5 880.355C296.42 880.075 296.36 879.686 296.17 879.586C295.94 879.466 295.69 879.766 295.63 880.116C295.53 880.696 295.4 881.276 295.37 881.866C295.35 882.196 295.64 882.376 295.96 882.336C296.08 882.316 296.24 882.205 296.28 882.095C296.41 881.675 296.49 881.235 296.52 881.105H296.5ZM20.46 858.285C20.6 858.265 20.79 858.286 20.89 858.206C21.27 857.866 21.45 857.416 21.29 856.926C21.13 856.436 20.68 856.206 20.19 856.136C19.84 856.086 19.57 856.315 19.6 856.665C19.65 857.315 19.92 857.885 20.47 858.275L20.46 858.285ZM47.2 851.836C47.07 852.856 47.37 853.576 47.57 853.316C47.75 853.086 47.94 852.846 48.03 852.576C48.22 852.006 48.35 851.425 48.47 850.845C48.49 850.755 48.33 850.565 48.22 850.525C48.11 850.485 47.87 850.546 47.82 850.636C47.53 851.146 47.28 851.666 47.2 851.836Z" fill="#261916"/>
<path d="M476.12 622.145C474.48 622.835 473.01 623.775 471.79 625.085C470.44 626.535 469.58 628.205 469.47 630.215C469.4 631.495 469.34 632.765 469.25 634.045C469.25 634.175 469.08 634.305 468.99 634.435C468.88 634.335 468.69 634.255 468.67 634.145C468.42 632.395 468.03 630.685 467.41 629.035C467.19 628.435 466.94 627.845 466.65 627.275C465.59 625.125 463.08 624.375 460.94 625.625C458.58 627.005 456.35 628.545 454.86 630.935C454.62 631.315 454.22 631.645 453.83 631.865C453.63 631.975 453.14 631.875 452.99 631.705C452.7 631.355 452.45 630.895 452.36 630.455C452.03 628.855 452.23 627.275 452.68 625.715C453.23 623.835 453.18 621.925 452.98 620.005C452.91 619.325 452.08 618.465 451.4 618.405C450.45 618.335 449.49 618.315 448.53 618.245C447.26 618.145 445.96 618.135 444.73 617.855C441.08 617.045 437.44 617.095 433.79 617.825C433.33 617.915 432.85 617.955 432.38 618.005C431.95 618.055 431.41 617.495 431.47 617.095C431.73 615.225 432.74 613.855 434.3 612.875C435.39 612.185 436.58 611.765 437.88 611.605C440.12 611.345 442.28 610.805 444.22 609.605C444.32 609.545 444.4 609.295 444.36 609.175C444.32 609.055 444.14 608.905 444 608.885C443.53 608.825 443.05 608.775 442.57 608.805C442.1 608.835 441.61 608.915 441.16 609.055C435.42 610.925 436.57 610.955 431 609.215C430.1 608.935 429.12 608.805 428.17 608.745C423.96 608.455 419.86 608.835 416.04 610.815C415.62 611.035 415.14 611.135 414.69 611.295C414.23 611.455 413.53 611.255 413.41 610.905C413.31 610.615 413.19 610.265 413.27 610.015C413.52 609.265 413.85 608.535 414.19 607.805C414.88 606.295 415.99 605.185 417.48 604.445C417.62 604.375 417.77 604.305 417.9 604.215C421.49 601.945 425.39 601.625 429.45 602.385C430.7 602.615 431.92 603.075 433.23 602.845C433.38 602.815 433.55 602.755 433.65 602.645C433.86 602.405 433.81 602.095 433.46 601.925C432.75 601.575 432 601.295 431.28 600.945C430.86 600.735 430.46 600.475 430.08 600.195C429.98 600.125 429.94 599.885 429.98 599.745C430.02 599.615 430.2 599.425 430.31 599.435C432.22 599.495 434.06 600.135 436 600.055C438.23 599.965 440.48 600.075 442.71 600.035C443.82 600.015 444.92 599.875 446.03 599.765C446.15 599.755 446.32 599.585 446.35 599.455C446.44 599.095 446.29 598.775 445.94 598.675C445.18 598.475 444.4 598.235 443.62 598.215C441.06 598.145 438.5 598.165 435.95 598.145C434.19 598.135 432.43 598.145 430.72 597.605C430.42 597.505 430.1 597.425 429.78 597.405C424.99 597.045 420.18 596.935 415.41 597.365C412.53 597.625 409.84 598.845 407.41 600.435C405.54 601.655 403.71 602.915 402.05 604.455C400.06 606.295 397.87 607.905 395.76 609.605C395.47 609.835 395.15 609.795 394.94 609.545C394.84 609.435 394.78 609.275 394.76 609.125C394.64 608.315 394.8 607.525 395.13 606.785C397.17 602.205 400.58 598.975 405.07 596.815C405.21 596.745 405.36 596.665 405.51 596.625C409.38 595.635 413.24 594.565 417.24 594.355C419.78 594.225 422.36 594.075 424.85 594.925C425.3 595.075 425.79 595.155 426.26 595.165C432.17 595.255 438.08 595.495 443.99 595.075C444.36 595.045 444.51 594.705 444.42 594.375C444.38 594.235 444.29 594.075 444.18 594.005C443.92 593.835 443.64 593.605 443.35 593.575C442.24 593.465 441.12 593.365 440.01 593.365C436.81 593.355 433.61 593.395 430.42 593.405C429.14 593.405 427.86 593.445 426.58 593.375C425.63 593.325 424.64 593.275 423.74 592.995C422.02 592.455 420.28 592.435 418.52 592.405C417.24 592.385 415.89 592.535 414.71 592.155C412.92 591.575 411.26 591.815 409.54 592.185C409.41 592.215 409.21 592.145 409.12 592.045C408.91 591.815 409 591.545 409.31 591.295C410.56 590.285 411.92 589.435 413.44 588.885C415.84 588.015 418.12 586.815 420.67 586.355C421.13 586.275 421.58 586.025 421.98 585.775C422.22 585.625 422.51 585.315 422.52 585.075C422.53 584.825 422.28 584.505 422.05 584.315C421.82 584.115 421.49 583.995 421.19 583.925C418.69 583.375 416.21 582.765 413.69 582.325C409.92 581.675 406.18 580.785 402.32 580.795C401.21 580.795 400.06 580.755 398.99 580.485C396.63 579.875 394.24 579.835 391.85 579.795C389.93 579.755 388.01 579.815 386.09 579.795C383.65 579.755 381.32 580.115 379.15 581.325C378.6 581.635 377.98 581.835 377.37 582.005C377.03 582.105 376.79 581.855 376.79 581.505C376.79 581.355 376.85 581.165 376.95 581.075C377.3 580.755 377.63 580.375 378.05 580.195C379.23 579.695 380.44 579.295 381.64 578.845C381.77 578.795 381.86 578.625 381.97 578.515C381.71 578.355 381.46 578.185 381.19 578.045C380.91 577.905 380.59 577.845 380.33 577.695C380.01 577.515 380.29 577.035 380.94 576.675C381.78 576.215 382.63 575.765 383.47 575.305C383.81 575.125 383.95 574.865 383.81 574.575C383.75 574.465 383.55 574.365 383.41 574.355C382.77 574.335 382.13 574.275 381.5 574.375C380.56 574.525 379.63 574.805 378.69 574.995C377.61 575.215 376.52 575.415 375.43 575.595C375.35 575.605 375.18 575.405 375.13 575.265C375.08 575.125 375.11 574.945 375.16 574.795C375.6 573.545 376.43 572.565 377.49 571.825C379.48 570.435 381.62 569.395 384.13 569.365C384.93 569.365 385.75 569.365 386.51 569.165C389.49 568.365 392.53 568.435 395.57 568.405C399.25 568.375 402.93 568.425 406.6 568.405C408.71 568.395 410.76 568.735 412.69 569.535C416.09 570.925 419.55 572.175 422.81 573.895C424.94 575.015 427.03 576.205 428.92 577.675C432.32 580.335 435.98 582.645 439.17 585.565C439.75 586.095 440.46 586.505 441.15 586.905C441.84 587.315 442.59 587.605 443.26 588.035C445.71 589.605 448.21 590.945 451.29 590.625C451.9 590.565 452.54 590.835 453.16 590.985C457.67 592.085 462.12 593.405 466.37 595.275C469.01 596.435 471.58 596.665 474.28 595.725C474.88 595.515 475.52 595.415 476.14 595.275V622.155L476.12 622.145ZM410.46 577.025C411.39 576.985 412.18 576.955 412.97 576.895C413.11 576.895 413.31 576.815 413.38 576.705C413.55 576.465 413.39 576.255 412.99 576.155C411.92 575.885 410.85 575.575 409.77 575.355C409.32 575.265 408.82 575.305 408.37 575.405C408.13 575.465 407.81 575.775 407.79 575.995C407.77 576.225 408.05 576.635 408.26 576.685C409.02 576.865 409.81 576.935 410.46 577.025Z" fill="#261916"/>
<path d="M476.12 539.585C473.09 539.565 470.06 539.555 467.03 539.525C464.16 539.495 461.32 539.425 458.47 538.855C455.2 538.195 451.84 537.995 448.54 537.515C446.49 537.215 444.46 536.815 442.43 536.385C441.34 536.155 440.27 535.735 439.43 534.975C438.97 534.565 438.6 534.025 438.3 533.475C438.06 533.045 438.11 532.465 438.47 532.135C439.29 531.385 440.17 530.705 441.05 530.045C441.83 529.455 442.74 529.205 443.71 529.065C445.13 528.875 446.54 528.595 447.95 528.405C449.05 528.255 450.16 528.115 451.27 528.065C452.7 527.995 454.14 528.025 455.58 528.005C462.69 527.895 469.49 529.455 476.12 531.905V539.585Z" fill="#261916"/>
<path d="M476.12 549.185C471.46 548.995 466.95 549.865 462.53 551.245C461.77 551.485 461.02 551.745 460.24 551.915C457.42 552.515 454.76 553.535 452.21 554.875C451.79 555.095 451.34 555.285 450.89 555.395C450.61 555.465 450.28 555.385 449.99 555.295C449.67 555.205 449.43 554.455 449.54 554.025C449.58 553.875 449.57 553.705 449.62 553.555C450.35 551.355 451.72 549.625 453.71 548.465C454.94 547.745 456.23 547.085 457.57 546.605C460.41 545.595 463.27 544.685 466.3 544.295C469.6 543.875 472.85 543.085 476.13 542.455V549.175L476.12 549.185Z" fill="#261916"/>
<path d="M476.12 558.786C474.81 558.106 473.41 557.856 471.95 557.816C469.71 557.756 467.47 557.676 465.24 557.586C464.8 557.566 464.65 557.326 464.85 556.996C464.93 556.866 465.07 556.776 465.2 556.696C466.05 556.196 467 556.026 467.96 556.006C470.68 555.946 473.4 555.936 476.11 555.906V558.786H476.12Z" fill="#261916"/>
<path d="M344.69 706.295C344.15 703.275 345.17 700.675 346.84 698.215C348.45 695.845 349.95 693.395 351.47 690.965C352.51 689.295 353.94 688.085 355.68 687.175C359.64 685.095 363.75 683.385 367.92 681.765C369.1 681.305 370.31 680.895 371.51 680.485C371.6 680.455 371.8 680.595 371.88 680.705C371.96 680.815 372.01 681.015 371.96 681.125C371.84 681.415 371.7 681.715 371.5 681.945C371.19 682.305 370.87 682.695 370.47 682.935C366.91 685.045 364.55 688.215 362.63 691.755C361.41 693.995 360.28 696.275 358.58 698.215C358.08 698.785 357.7 699.625 357.66 700.365C357.58 701.625 356.9 702.435 356.06 703.185C355.47 703.715 354.85 704.225 354.17 704.645C351.33 706.405 348.46 708.125 345.59 709.835C345.34 709.985 344.92 710.055 344.69 709.935C344.49 709.835 344.35 709.405 344.37 709.145C344.44 708.195 344.58 707.255 344.7 706.295H344.69Z" fill="#261916"/>
<path d="M100.81 846.885C100.58 848.375 101.26 849.615 100.83 850.875C100.8 850.965 100.54 851.085 100.46 851.045C100.04 850.845 99.5399 850.675 99.2699 850.335C97.5799 848.225 95.8099 846.175 93.9799 844.175C93.4299 843.575 93.1799 842.765 93.3799 841.945C94.5899 837.165 95.2199 832.235 97.0399 827.605C98.2199 824.595 99.7099 821.815 102.38 819.835C102.5 819.745 102.69 819.685 102.82 819.715C103.16 819.795 103.32 820.075 103.21 820.425C102.88 821.485 102.6 822.575 102.15 823.595C101.37 825.355 100.93 827.185 100.55 829.075C99.6099 833.675 99.5099 838.225 100.46 842.825C100.75 844.215 100.71 845.675 100.8 846.875L100.81 846.885Z" fill="#261916"/>
<path d="M362.92 697.595C362.42 697.835 362.15 697.996 361.85 698.086C361.75 698.116 361.54 698.025 361.47 697.925C361.39 697.825 361.34 697.595 361.41 697.505C362.55 695.975 363.76 694.505 364.84 692.935C365.83 691.485 366.69 689.955 367.58 688.445C368.65 686.625 370.24 685.275 371.69 683.795C374.04 681.375 376.86 679.555 379.64 677.675C380 677.425 380.54 677.355 380.99 677.355C381.2 677.355 381.53 677.695 381.59 677.935C381.75 678.605 381.41 679.206 381.04 679.706C379.25 682.146 377.58 684.685 375.43 686.845C374.3 687.975 373.16 689.095 372.06 690.255C369.3 693.175 366.02 695.445 362.94 697.605L362.92 697.595Z" fill="#261916"/>
<path d="M187.51 824.775C187.62 824.855 187.81 824.915 187.84 825.015C187.96 825.465 188.11 825.935 188.11 826.395C188.11 828.325 188.36 830.195 189.31 831.915C189.97 833.115 189.95 834.335 189.45 835.585C189.27 836.025 189.13 836.485 188.94 836.915C188.88 837.045 188.7 837.235 188.6 837.215C188.32 837.165 187.95 837.105 187.81 836.915C187.53 836.545 187.35 836.095 187.19 835.655C186.31 833.255 185.18 831.005 183.48 829.065C182.98 828.495 183.12 828.055 183.63 827.375C184.63 826.035 186.09 825.435 187.52 824.785L187.51 824.775Z" fill="#261916"/>
<path d="M64.9404 852.225C64.2504 852.285 63.4604 851.485 63.5604 850.995C63.6204 850.685 63.6204 850.325 63.7804 850.085C65.7704 847.025 67.7504 843.955 69.8004 840.945C70.6304 839.735 71.8704 838.995 73.2604 838.525C73.6204 838.405 73.9204 838.495 74.0704 838.825C74.1304 838.945 74.0904 839.185 74.0004 839.275C72.1204 841.245 70.6704 843.485 69.4504 845.925C68.4604 847.905 67.1804 849.735 65.9604 851.595C65.7304 851.945 65.2004 852.085 64.9404 852.245V852.225Z" fill="#261916"/>
<path d="M367.63 626.925C367.25 627.205 366.91 627.595 366.49 627.735C363.49 628.725 360.59 629.935 357.74 631.275C357.39 631.435 357.09 631.335 356.96 631.005C356.92 630.905 357.02 630.665 357.13 630.585C360.32 628.455 363.74 626.955 367.67 626.955L367.63 626.915V626.925Z" fill="#261916"/>
<path d="M89.2105 868.815C89.6805 869.235 90.1205 869.685 90.6205 870.065C91.8405 871.005 92.2505 872.325 92.4505 873.765C92.5505 874.535 91.7105 875.315 90.9405 875.135C90.3305 874.985 89.7305 874.785 89.1305 874.625C87.9705 874.315 87.2305 873.535 86.7705 872.485C86.5205 871.915 86.3005 871.325 86.0905 870.735C85.9105 870.225 86.3505 869.415 86.9705 869.255C87.7205 869.065 88.5105 868.985 89.2805 868.855L89.2205 868.815H89.2105Z" fill="#261916"/>
</g>
<defs>
<clipPath id="clip0_63_1449">
<rect width="475" height="1596" fill="white" transform="matrix(-1 0 0 1 475 0)"/>
</clipPath>
</defs>
</svg>
