<?xml version="1.0" encoding="UTF-8"?>
<svg id="Layer_1" data-name="Layer 1" xmlns="http://www.w3.org/2000/svg" viewBox="0 0 479.76 312.04">
  <path d="m0,312.04c0-42.46-.02-84.91.08-127.37,0-.41,1.36-.96,2.16-1.2,3.89-1.16,7.81-2.19,11.7-3.35,3.9-1.16,7.76-2.42,11.64-3.64,1.77-.55,3.7-.81,5.27-1.71,5.07-2.91,10.2-5.78,14.95-9.17,5.56-3.97,10.81-8.38,16.05-12.78,3.51-2.94,6.72-6.23,10.13-9.29,2.54-2.28,5.16-4.48,7.78-6.68,1.52-1.27,3.2-2.35,4.65-3.69,3.35-3.07,6.5-6.37,9.95-9.33,3.27-2.81,6.88-5.23,10.23-7.96,2.16-1.76,4.09-3.81,6.22-5.61.66-.56,1.8-.53,2.48-1.07,2.57-2.03,4.95-4.3,7.58-6.24,2.23-1.64,4.79-2.84,7.06-4.44,1.2-.84,1.99-2.25,3.15-3.17,1.06-.84,2.39-1.34,3.58-2.03.38-.22.79-.5,1-.87.37-.64.45-1.51.92-2.03.6-.64,1.5-1,2.23-1.53.24-.17.36-.51.57-.74.2-.22.43-.45.69-.59,1.01-.55,2.15-.92,3.03-1.63,2.59-2.09,4.97-4.45,7.62-6.44,2.18-1.64,4.76-2.74,6.92-4.39,2.2-1.68,4.07-3.78,6.14-5.63,1.34-1.2,4.16-2.91,3.97-3.33-1.37-3.04,2.3-1.15,2.64-2.97.29-1.57,2.59-2.75,3.98-4.13.89-.89,1.74-1.84,2.6-2.76,1.04-1.12,2.09-2.23,3.1-3.39.87-.99,1.6-2.11,2.53-3.04,1.16-1.17,2.58-2.11,3.67-3.33,1.4-1.56,2.52-3.37,3.89-4.95,2.16-2.48,4.49-4.81,6.64-7.29,1.28-1.48,2.47-3.08,3.51-4.74,1.98-3.15,3.88-6.36,5.71-9.6.47-.83.56-1.86.85-2.8.03-.08.17-.15.28-.19.49-.17,1.26-.19,1.42-.52.68-1.34,1.11-2.82,1.8-4.16.19-.38.94-.47,1.42-.71.21-.1.54-.2.58-.36.76-2.98,3.91-3.17,5.87-4.56,1.41-.99,4.22.08,6.4.09,2.5.02,5.02,0,7.51-.21,3.24-.29,6.45-1.08,9.68-1.16,4.8-.11,9.62.4,14.42.27,2.66-.07,5.28-1.19,7.94-1.32,2.24-.11,4.55.95,6.76.73,2.1-.21,4.11-1.38,6.14-2.19,2.53-1.01,5.19-3.15,7.53-2.84,2.68.36,5.09,2.84,7.59,4.45,1.73,1.12,3.52,2.19,5.1,3.5,1.54,1.29,2.76,2.96,4.27,4.29,2.62,2.31,5.38,4.47,8.02,6.75,1.22,1.06,2.38,2.2,3.46,3.4,2.7,3,5.19,6.2,8.06,9.03,2.16,2.14,4.75,3.85,7.19,5.69,1.91,1.44,3.92,2.75,5.82,4.21,1.86,1.43,3.65,2.95,5.45,4.46.79.66,1.45,1.51,2.31,2.04,1.07.67,2.36.98,3.42,1.65,1.61,1.02,3.08,2.28,4.68,3.34,1.08.72,2.33,1.19,3.39,1.93.58.4.92,1.12,1.39,1.68.16.19.37.4.59.46.41.1.96-.07,1.25.14,2.47,1.83,4.87,3.76,7.34,5.59,1.99,1.48,4.1,2.82,6.05,4.35.45.35.28,1.51.73,1.83,1.17.83,2.54,1.38,3.8,2.09.55.31,1.05.73,1.58,1.09,1.2.81,2.41,1.6,3.59,2.43.58.41,1.11.89,1.66,1.35,2.27,1.92,4.5,3.9,6.84,5.74.7.55,1.82.55,2.58,1.06,1.27.86,2.35,2,3.62,2.86,1.12.76,2.4,1.28,3.59,1.93.84.47,1.67.95,2.46,1.5,1.91,1.31,3.82,2.64,5.69,4.01.5.37.8,1.04,1.33,1.36.29.18.85-.06,1.29-.12.08-.01.15-.08.22-.12.14.41.25.82.41,1.22.13.32.3.62.46.92.15-.22.31-.44.45-.66.08-.13.15-.27.23-.4,1.48,1.18,2.96,2.37,4.44,3.55,2.86,2.28,5.75,4.51,8.55,6.86.74.62,1.06,1.76,1.83,2.32,1.04.76,2.4,1.08,3.48,1.8,1.33.88,2.43,2.11,3.79,2.94,3.86,2.36,7.76,4.66,11.73,6.84,1.88,1.03,3.91,1.79,5.92,2.56,1.95.75,3.96,1.33,5.92,2.06.16.06-.02,1,.15,1.07,1.35.58,2.75,1.03,4.12,1.54,2.27.84,4.66,1.48,6.77,2.62,1.98,1.06,3.59,2.8,5.52,3.98,1.85,1.13,3.92,1.89,5.86,2.87.45.23.78.7,1.16,1.06,0,57.93,0,115.86-.04,173.79,0,.36-.67,1.03-1.03,1.04-159.56.05-319.12.04-478.68.04Z"/>
</svg>